<svg xmlns="http://www.w3.org/2000/svg" viewBox="0 0 1200 506" style="background-color: #1c1c1c; font-family: sans-serif;">
<rect x="0" y="0" width="1200" height="450" fill="#1c1c1c" />
<line x1="60" y1="405" x2="1140" y2="405" stroke="#444" stroke-width="2" />
<line x1="60" y1="45" x2="60" y2="405" stroke="#444" stroke-width="2" />
<text x="60" y="30" fill="#aaa" font-size="20">2131W</text>
<text x="1140" y="440" fill="#aaa" font-size="20" text-anchor="middle">102m</text>
<text x="600" y="30" fill="#fff" font-size="26" text-anchor="middle" font-weight="bold">Profile Comparison: 45-65 Grad</text>
<polygon points="60.0,404.2 60.7,404.2 61.4,404.2 62.2,404.2 62.9,404.2 63.6,404.2 64.3,404.2 65.0,404.2 65.8,404.2 66.5,404.1 67.2,404.1 67.9,404.1 68.7,404.1 69.4,404.1 70.1,404.1 70.8,404.1 71.5,404.0 72.3,404.0 73.0,403.3 73.7,401.7 74.4,400.2 75.1,401.7 75.9,402.5 76.6,402.7 77.3,403.2 78.0,403.2 78.8,403.3 79.5,403.4 80.2,403.4 80.9,403.4 81.6,402.9 82.4,403.4 83.1,401.6 83.8,403.3 84.5,403.3 85.2,403.3 86.0,403.0 86.7,403.1 87.4,403.2 88.1,403.3 88.9,403.5 89.6,401.5 90.3,401.5 91.0,401.5 91.7,401.7 92.5,401.7 93.2,401.8 93.9,401.8 94.6,401.8 95.3,401.8 96.1,401.4 96.8,400.6 97.5,400.0 98.2,400.0 98.9,400.3 99.7,400.2 100.4,400.2 101.1,400.1 101.8,400.2 102.6,400.5 103.3,399.6 104.0,399.1 104.7,392.1 105.4,257.2 106.2,69.8 106.9,73.4 107.6,74.1 108.3,74.7 109.0,74.8 109.8,74.8 110.5,74.8 111.2,74.8 111.9,74.8 112.7,74.8 113.4,75.1 114.1,75.2 114.8,75.3 115.5,75.3 116.3,75.4 117.0,77.1 117.7,95.6 118.4,117.5 119.1,132.4 119.9,142.2 120.6,147.2 121.3,147.2 122.0,147.2 122.8,147.2 123.5,147.2 124.2,374.3 124.9,398.0 125.6,398.0 126.4,398.0 127.1,398.0 127.8,398.0 128.5,399.4 129.2,399.9 130.0,400.1 130.7,400.5 131.4,400.4 132.1,400.4 132.8,400.2 133.6,400.3 134.3,400.3 135.0,400.3 135.7,400.3 136.5,400.3 137.2,400.3 137.9,400.3 138.6,400.1 139.3,400.1 140.1,400.0 140.8,399.8 141.5,399.8 142.2,399.1 142.9,398.2 143.7,397.9 144.4,397.9 145.1,397.9 145.8,397.9 146.5,397.9 147.3,397.9 148.0,397.9 148.7,398.3 149.4,398.4 150.2,398.5 150.9,398.8 151.6,399.3 152.3,399.7 153.0,399.7 153.8,400.3 154.5,400.6 155.2,400.5 155.9,399.9 156.7,400.0 157.4,400.1 158.1,400.1 158.8,400.1 159.5,400.2 160.3,400.2 161.0,400.2 161.7,400.2 162.4,400.2 163.1,400.2 163.9,400.1 164.6,400.1 165.3,399.9 166.0,399.2 166.7,397.9 167.5,397.9 168.2,398.0 168.9,398.0 169.6,398.0 170.4,398.0 171.1,398.1 171.8,398.2 172.5,398.2 173.2,398.4 174.0,398.4 174.7,398.4 175.4,398.6 176.1,398.6 176.8,399.3 177.6,400.0 178.3,400.1 179.0,400.3 179.7,400.2 180.4,400.2 181.2,400.2 181.9,400.2 182.6,400.2 183.3,400.2 184.1,400.3 184.8,400.3 185.5,400.3 186.2,400.3 186.9,400.3 187.7,400.3 188.4,400.3 189.1,400.3 189.8,400.3 190.6,400.3 191.3,400.3 192.0,400.3 192.7,400.3 193.4,400.3 194.2,400.3 194.9,400.2 195.6,400.2 196.3,400.1 197.0,400.1 197.8,400.0 198.5,400.0 199.2,399.9 199.9,399.9 200.6,399.8 201.4,399.3 202.1,398.0 202.8,397.2 203.5,398.3 204.3,399.0 205.0,399.8 205.7,400.3 206.4,400.3 207.1,400.2 207.9,400.0 208.6,400.3 209.3,400.3 210.0,400.3 210.7,400.3 211.5,400.0 212.2,400.1 212.9,400.2 213.6,400.2 214.3,400.2 215.1,400.2 215.8,400.2 216.5,400.3 217.2,400.3 218.0,400.3 218.7,400.3 219.4,400.3 220.1,400.0 220.8,399.3 221.6,398.5 222.3,398.0 223.0,398.1 223.7,398.1 224.5,398.4 225.2,398.5 225.9,398.5 226.6,398.9 227.3,398.9 228.1,399.1 228.8,399.2 229.5,399.2 230.2,399.2 230.9,399.3 231.7,400.4 232.4,400.6 233.1,400.6 233.8,400.4 234.5,400.3 235.3,400.3 236.0,400.3 236.7,400.1 237.4,400.1 238.1,400.1 238.9,400.1 239.6,400.1 240.3,400.0 241.0,400.0 241.8,400.0 242.5,400.0 243.2,399.9 243.9,398.6 244.6,397.9 245.4,397.9 246.1,398.0 246.8,398.0 247.5,398.0 248.2,398.0 249.0,398.0 249.7,398.0 250.4,398.0 251.1,398.0 251.9,398.0 252.6,398.0 253.3,398.0 254.0,399.0 254.7,399.9 255.5,400.5 256.2,400.7 256.9,400.6 257.6,400.0 258.4,400.0 259.1,400.0 259.8,400.0 260.5,400.0 261.2,400.1 262.0,400.1 262.7,400.1 263.4,400.1 264.1,400.1 264.8,400.0 265.6,399.9 266.3,399.8 267.0,400.0 267.7,400.0 268.4,399.9 269.2,399.8 269.9,399.5 270.6,399.3 271.3,399.1 272.0,398.1 272.8,398.1 273.5,398.1 274.2,398.1 274.9,398.0 275.7,398.1 276.4,398.1 277.1,398.3 277.8,398.4 278.5,400.0 279.3,400.3 280.0,400.3 280.7,400.3 281.4,400.3 282.1,400.3 282.9,400.3 283.6,400.3 284.3,400.3 285.0,400.3 285.7,400.1 286.5,400.1 287.2,400.1 287.9,399.9 288.6,399.9 289.4,399.8 290.1,399.7 290.8,398.8 291.5,398.8 292.3,398.0 293.0,398.0 293.7,398.0 294.4,398.0 295.1,398.0 295.9,398.0 296.6,398.2 297.3,398.4 298.0,398.8 298.7,398.8 299.5,398.8 300.2,399.8 300.9,400.1 301.6,400.2 302.3,400.6 303.1,400.6 303.8,400.5 304.5,400.5 305.2,400.2 305.9,400.1 306.7,400.1 307.4,400.1 308.1,400.1 308.8,400.1 309.6,400.1 310.3,400.1 311.0,400.1 311.7,400.0 312.4,400.0 313.2,400.0 313.9,399.8 314.6,398.7 315.3,398.4 316.0,399.6 316.8,399.8 317.5,399.8 318.2,399.8 318.9,399.9 319.6,400.0 320.4,400.0 321.1,400.0 321.8,400.0 322.5,400.0 323.3,400.0 324.0,400.0 324.7,400.0 325.4,400.1 326.2,400.1 326.9,400.1 327.6,400.1 328.3,400.1 329.0,400.1 329.8,400.0 330.5,399.8 331.2,400.3 331.9,400.4 332.6,400.4 333.4,400.4 334.1,400.5 334.8,400.5 335.5,400.5 336.2,400.4 337.0,400.3 337.7,400.2 338.4,400.1 339.1,400.0 339.8,400.0 340.6,399.9 341.3,399.9 342.0,399.8 342.7,399.8 343.5,399.8 344.2,399.5 344.9,399.2 345.6,398.0 346.3,398.0 347.1,398.0 347.8,398.0 348.5,397.9 349.2,398.0 349.9,398.0 350.7,398.1 351.4,398.1 352.1,398.1 352.8,398.4 353.5,398.5 354.3,398.6 355.0,399.5 355.7,400.0 356.4,400.3 357.2,400.2 357.9,400.5 358.6,400.0 359.3,400.0 360.1,400.1 360.8,400.1 361.5,400.1 362.2,400.1 362.9,400.1 363.7,400.2 364.4,400.2 365.1,400.2 365.8,400.2 366.5,400.1 367.3,399.7 368.0,399.1 368.7,398.2 369.4,398.2 370.1,398.0 370.9,398.2 371.6,398.3 372.3,398.4 373.0,398.5 373.7,398.5 374.5,398.5 375.2,398.5 375.9,399.0 376.6,399.2 377.4,399.2 378.1,399.4 378.8,400.1 379.5,400.4 380.2,400.4 381.0,400.3 381.7,400.4 382.4,400.4 383.1,400.3 383.8,400.3 384.6,400.3 385.3,400.3 386.0,400.3 386.7,400.3 387.4,400.3 388.2,400.3 388.9,400.3 389.6,400.3 390.3,400.2 391.1,400.2 391.8,400.2 392.5,400.2 393.2,400.2 394.0,400.2 394.7,400.2 395.4,400.2 396.1,400.2 396.8,400.1 397.6,399.9 398.3,399.1 399.0,399.7 399.7,399.6 400.4,399.7 401.2,399.2 401.9,399.2 402.6,399.5 403.3,399.6 404.0,399.6 404.8,399.6 405.5,399.6 406.2,399.6 406.9,399.6 407.6,399.6 408.4,399.6 409.1,399.6 409.8,399.6 410.5,399.1 411.3,398.3 412.0,398.1 412.7,398.1 413.4,398.1 414.1,398.2 414.9,398.2 415.6,398.2 416.3,398.2 417.0,398.2 417.7,398.2 418.5,398.1 419.2,398.1 419.9,398.1 420.6,398.1 421.3,398.0 422.1,399.6 422.8,400.6 423.5,400.4 424.2,400.2 425.0,400.3 425.7,400.3 426.4,400.1 427.1,400.1 427.8,400.1 428.6,400.1 429.3,400.1 430.0,400.1 430.7,400.1 431.5,400.1 432.2,400.1 432.9,400.0 433.6,399.8 434.3,399.6 435.1,398.8 435.8,398.8 436.5,398.8 437.2,398.8 437.9,398.8 438.7,398.6 439.4,398.6 440.1,398.5 440.8,398.0 441.5,398.2 442.3,398.1 443.0,398.1 443.7,398.2 444.4,398.6 445.2,399.1 445.9,399.7 446.6,400.0 447.3,400.1 448.0,400.6 448.8,400.6 449.5,400.5 450.2,400.0 450.9,400.0 451.6,400.0 452.4,400.0 453.1,400.0 453.8,400.1 454.5,400.0 455.2,399.9 456.0,399.8 456.7,399.8 457.4,399.8 458.1,399.2 458.9,398.7 459.6,398.6 460.3,398.5 461.0,398.7 461.7,399.6 462.5,400.8 463.2,402.2 463.9,400.5 464.6,400.6 465.4,401.8 466.1,401.8 466.8,401.8 467.5,402.0 468.2,402.0 469.0,402.2 469.7,402.4 470.4,402.4 471.1,399.5 471.8,399.4 472.6,400.8 473.3,403.9 474.0,403.3 474.7,401.5 475.4,402.1 476.2,402.8 476.9,403.9 477.6,402.9 478.3,401.8 479.1,401.9 479.8,401.9 480.5,401.7 481.2,401.5 481.9,401.0 482.7,401.0 483.4,401.0 484.1,400.9 484.8,400.7 485.5,400.3 486.3,401.3 487.0,400.2 487.7,400.2 488.4,400.3 489.1,400.3 489.9,400.1 490.6,400.1 491.3,399.9 492.0,400.6 492.8,400.7 493.5,400.6 494.2,400.5 494.9,400.0 495.6,400.5 496.4,400.6 497.1,400.5 497.8,400.5 498.5,400.6 499.3,400.6 500.0,400.6 500.7,400.6 501.4,400.6 502.1,400.6 502.9,400.8 503.6,400.8 504.3,400.9 505.0,400.9 505.7,400.8 506.5,400.7 507.2,400.5 507.9,399.4 508.6,399.4 509.3,399.4 510.1,399.4 510.8,399.4 511.5,399.4 512.2,399.4 513.0,399.3 513.7,399.2 514.4,399.2 515.1,399.1 515.8,398.9 516.6,399.0 517.3,399.0 518.0,399.4 518.7,399.7 519.4,400.6 520.2,400.7 520.9,400.4 521.6,400.4 522.3,400.7 523.0,400.7 523.8,400.7 524.5,400.6 525.2,400.6 525.9,400.6 526.7,400.6 527.4,400.5 528.1,400.5 528.8,400.5 529.5,400.5 530.3,400.5 531.0,400.4 531.7,398.9 532.4,398.9 533.2,398.9 533.9,398.9 534.6,398.9 535.3,398.9 536.0,398.9 536.8,398.9 537.5,398.9 538.2,398.9 538.9,398.9 539.6,398.9 540.4,399.4 541.1,399.4 541.8,399.4 542.5,399.8 543.2,400.0 544.0,400.5 544.7,400.1 545.4,400.8 546.1,401.0 546.9,400.9 547.6,400.9 548.3,400.9 549.0,400.9 549.7,400.8 550.5,400.8 551.2,400.8 551.9,400.8 552.6,400.7 553.3,400.7 554.1,400.7 554.8,400.5 555.5,400.1 556.2,399.8 556.9,399.2 557.7,399.5 558.4,400.8 559.1,402.1 559.8,403.2 560.6,400.5 561.3,400.8 562.0,401.7 562.7,401.9 563.4,401.9 564.2,402.0 564.9,402.1 565.6,402.2 566.3,402.2 567.0,402.2 567.8,402.2 568.5,402.2 569.2,402.1 569.9,402.0 570.7,401.8 571.4,401.4 572.1,400.5 572.8,400.6 573.5,401.1 574.3,401.0 575.0,400.8 575.7,400.6 576.4,400.6 577.1,400.7 577.9,400.2 578.6,399.9 579.3,400.8 580.0,400.8 580.8,400.4 581.5,387.2 582.2,262.7 582.9,74.2 583.6,69.1 584.4,69.5 585.1,69.9 585.8,70.3 586.5,70.7 587.2,71.0 588.0,71.4 588.7,71.8 589.4,72.2 590.1,72.6 590.8,72.9 591.6,73.2 592.3,73.5 593.0,73.7 593.7,73.9 594.4,74.2 595.2,74.4 595.9,74.6 596.6,74.9 597.3,75.1 598.1,75.4 598.8,75.6 599.5,75.8 600.2,76.0 600.9,76.2 601.7,76.5 602.4,76.7 603.1,76.9 603.8,77.1 604.6,77.3 605.3,77.4 606.0,77.6 606.7,77.8 607.4,78.0 608.2,78.1 608.9,78.3 609.6,78.6 610.3,78.6 611.0,78.8 611.8,79.0 612.5,79.2 613.2,79.3 613.9,79.3 614.7,79.3 615.4,79.4 616.1,79.5 616.8,79.5 617.5,79.6 618.3,79.6 619.0,79.6 619.7,79.6 620.4,79.7 621.1,79.8 621.9,79.9 622.6,79.9 623.3,79.9 624.0,80.1 624.7,80.2 625.5,80.2 626.2,80.5 626.9,80.6 627.6,80.6 628.3,80.8 629.1,80.9 629.8,80.9 630.5,81.1 631.2,81.1 632.0,81.2 632.7,81.4 633.4,81.4 634.1,81.8 634.8,82.0 635.6,82.1 636.3,82.4 637.0,82.6 637.7,82.7 638.5,82.9 639.2,83.0 639.9,83.3 640.6,83.5 641.3,83.6 642.1,83.9 642.8,84.0 643.5,84.3 644.2,84.3 644.9,84.5 645.7,84.5 646.4,84.6 647.1,84.6 647.8,84.6 648.6,84.6 649.3,84.6 650.0,84.6 650.7,84.6 651.4,84.8 652.2,84.8 652.9,84.8 653.6,84.9 654.3,84.9 655.0,84.9 655.8,84.9 656.5,84.9 657.2,84.9 657.9,84.9 658.6,84.9 659.4,84.9 660.1,84.9 660.8,84.9 661.5,84.9 662.2,84.9 663.0,84.9 663.7,84.9 664.4,84.9 665.1,84.6 665.9,84.7 666.6,84.7 667.3,84.7 668.0,84.7 668.7,84.7 669.5,84.7 670.2,84.7 670.9,84.7 671.6,84.8 672.4,84.8 673.1,84.8 673.8,84.8 674.5,84.8 675.2,84.8 676.0,85.1 676.7,85.4 677.4,85.7 678.1,86.0 678.8,86.3 679.6,85.7 680.3,86.8 681.0,87.1 681.7,87.4 682.5,87.8 683.2,88.1 683.9,88.4 684.6,88.7 685.3,88.8 686.1,88.8 686.8,88.9 687.5,88.9 688.2,88.9 688.9,88.9 689.7,88.9 690.4,88.8 691.1,88.7 691.8,88.6 692.5,88.6 693.3,88.5 694.0,88.4 694.7,88.4 695.4,88.3 696.1,88.2 696.9,92.6 697.6,92.9 698.3,93.0 699.0,134.9 699.8,148.0 700.5,153.4 701.2,153.4 701.9,187.5 702.6,200.7 703.4,204.3 704.1,218.1 704.8,218.1 705.5,235.4 706.2,266.5 707.0,354.9 707.7,400.5 708.4,400.6 709.1,400.9 709.9,401.2 710.6,401.4 711.3,401.5 712.0,401.5 712.7,401.5 713.5,402.4 714.2,402.7 714.9,402.9 715.6,403.2 716.4,402.6 717.1,400.3 717.8,400.5 718.5,401.4 719.2,402.7 720.0,403.0 720.7,403.4 721.4,403.3 722.1,403.6 722.8,401.9 723.6,402.7 724.3,402.7 725.0,403.4 725.7,404.0 726.4,404.1 727.2,404.2 727.9,404.2 728.6,404.2 729.3,404.2 730.0,404.2 730.8,404.2 731.5,404.2 732.2,404.2 732.9,404.2 733.7,404.1 734.4,404.1 735.1,404.1 735.8,404.1 736.5,404.1 737.3,404.1 738.0,404.1 738.7,404.1 739.4,404.1 740.1,404.1 740.9,403.9 741.6,403.9 742.3,403.9 743.0,403.9 743.8,403.9 744.5,403.9 745.2,403.9 745.9,403.9 746.6,403.9 747.4,403.9 748.1,403.9 748.8,403.9 749.5,403.9 750.3,403.9 751.0,403.8 751.7,403.8 752.4,403.8 753.1,403.8 753.9,403.8 754.6,403.8 755.3,403.8 756.0,403.8 756.7,403.7 757.5,403.3 758.2,403.7 758.9,403.8 759.6,403.9 760.3,403.9 761.1,403.9 761.8,403.9 762.5,403.9 763.2,404.0 763.9,404.0 764.7,404.0 765.4,404.0 766.1,404.0 766.8,404.0 767.6,404.1 768.3,404.1 769.0,404.2 769.7,404.2 770.4,404.2 771.2,404.2 771.9,404.2 772.6,404.2 773.3,404.2 774.0,404.2 774.8,404.2 775.5,404.2 776.2,404.2 776.9,404.2 777.7,404.2 778.4,404.2 779.1,404.2 779.8,404.2 780.5,404.2 781.3,404.2 782.0,404.2 782.7,404.2 783.4,404.2 784.2,404.2 784.9,404.2 785.6,404.2 786.3,404.2 787.0,404.2 787.8,404.2 788.5,404.2 789.2,404.2 789.9,404.2 790.6,404.2 791.4,404.2 792.1,404.2 792.8,404.2 793.5,404.2 794.2,404.2 795.0,404.2 795.7,404.2 796.4,404.2 797.1,404.2 797.8,404.2 798.6,404.2 799.3,404.2 800.0,404.2 800.7,404.2 801.5,404.2 802.2,404.2 802.9,404.2 803.6,404.2 804.3,404.2 805.1,404.2 805.8,404.2 806.5,404.2 807.2,404.2 807.9,404.2 808.7,404.2 809.4,404.2 810.1,404.2 810.8,404.2 811.6,404.2 812.3,404.2 813.0,404.2 813.7,404.2 814.4,404.2 815.2,404.2 815.9,404.2 816.6,404.2 817.3,404.2 818.1,404.2 818.8,404.2 819.5,404.2 820.2,404.2 820.9,404.2 821.7,404.2 822.4,404.2 823.1,404.2 823.8,404.2 824.5,404.2 825.3,404.2 826.0,404.2 826.7,404.2 827.4,404.2 828.1,404.2 828.9,404.2 829.6,404.2 830.3,404.2 831.0,404.2 831.7,404.2 832.5,404.2 833.2,404.2 833.9,404.2 834.6,404.2 835.4,404.2 836.1,404.2 836.8,404.2 837.5,404.2 838.2,404.2 839.0,404.2 839.7,404.2 840.4,404.2 841.1,404.2 841.8,404.2 842.6,404.2 843.3,404.2 844.0,404.2 844.7,404.2 845.4,404.2 846.2,404.2 846.9,404.2 847.6,404.2 848.3,404.2 849.1,404.2 849.8,404.2 850.5,404.2 851.2,404.2 852.0,404.2 852.7,404.2 853.4,404.2 854.1,404.2 854.8,404.2 855.6,404.2 856.3,404.2 857.0,404.2 857.7,404.2 858.4,404.2 859.2,404.2 859.9,404.2 860.6,404.2 861.3,404.2 862.0,404.2 862.8,404.2 863.5,404.2 864.2,404.2 864.9,404.2 865.6,404.2 866.4,404.2 867.1,404.2 867.8,404.2 868.5,404.2 869.3,404.2 870.0,404.2 870.7,404.2 871.4,404.2 872.1,404.2 872.9,404.2 873.6,404.2 874.3,404.2 875.0,404.2 875.7,404.2 876.5,404.2 877.2,404.2 877.9,404.2 878.6,404.2 879.3,404.2 880.1,404.2 880.8,404.2 881.5,404.2 882.2,404.2 883.0,404.2 883.7,404.2 884.4,404.2 885.1,404.2 885.9,404.2 886.6,404.2 887.3,404.2 888.0,404.2 888.7,404.2 889.5,404.2 890.2,404.2 890.9,404.2 891.6,404.2 892.3,404.2 893.1,404.2 893.8,404.2 894.5,404.2 895.2,404.2 895.9,404.2 896.7,404.2 897.4,404.2 898.1,404.2 898.8,404.2 899.5,404.2 900.3,404.2 901.0,404.2 901.7,404.2 902.4,404.2 903.2,404.2 903.9,404.2 904.6,404.2 905.3,404.2 906.0,404.2 906.8,404.2 907.5,404.2 908.2,404.2 908.9,404.2 909.6,404.2 910.4,404.2 911.1,404.2 911.8,404.2 912.5,404.2 913.2,404.2 914.0,404.2 914.7,404.2 915.4,404.2 916.1,404.2 916.9,404.2 917.6,404.2 918.3,404.2 919.0,404.2 919.8,404.2 920.5,404.2 921.2,404.2 921.9,404.2 922.6,404.2 923.4,404.2 924.1,404.2 924.8,404.2 925.5,404.2 926.2,404.2 927.0,404.2 927.7,404.2 928.4,404.2 929.1,404.2 929.8,404.2 930.6,404.2 931.3,404.2 932.0,404.2 932.7,404.2 933.4,404.2 934.2,404.2 934.9,404.2 935.6,404.2 936.3,404.2 937.1,404.2 937.8,404.2 938.5,404.2 939.2,404.2 939.9,404.2 940.7,404.2 941.4,404.2 942.1,404.2 942.8,404.2 943.5,404.2 944.3,404.2 945.0,404.2 945.7,404.2 946.4,404.2 947.1,404.2 947.9,404.2 948.6,404.2 949.3,404.2 950.0,404.2 950.8,404.2 951.5,404.2 952.2,404.2 952.9,404.2 953.7,404.2 954.4,404.2 955.1,404.2 955.8,404.2 956.5,404.2 957.3,404.2 958.0,404.2 958.7,404.2 959.4,404.2 960.1,404.2 960.9,404.2 961.6,404.2 962.3,404.2 963.0,404.2 963.7,404.2 964.5,404.2 965.2,404.2 965.9,404.2 966.6,404.2 967.3,404.2 968.1,404.2 968.8,404.2 969.5,404.2 970.2,404.2 971.0,404.2 971.7,404.2 972.4,404.2 973.1,404.2 973.8,404.2 974.6,404.2 975.3,404.2 976.0,404.2 976.7,404.2 977.4,404.2 978.2,404.2 978.9,404.2 979.6,404.2 980.3,404.2 981.0,404.2 981.8,404.2 982.5,404.2 983.2,404.2 983.9,404.2 984.6,404.2 985.4,404.2 986.1,404.2 986.8,404.2 987.5,404.2 988.3,404.2 989.0,404.2 989.7,404.2 990.4,404.2 991.2,404.2 991.9,404.2 992.6,404.2 993.3,404.2 994.0,404.2 994.8,404.2 995.5,404.2 996.2,404.2 996.9,404.2 997.6,404.2 998.4,404.2 999.1,404.2 999.8,404.2 1000.5,404.2 1001.2,404.2 1002.0,404.2 1002.7,404.2 1003.4,404.2 1004.1,404.2 1004.9,404.2 1005.6,404.2 1006.3,404.2 1007.0,404.2 1007.7,404.2 1008.5,404.2 1009.2,404.2 1009.9,404.2 1010.6,404.2 1011.3,404.2 1012.1,404.2 1012.8,404.2 1013.5,404.2 1014.2,404.2 1014.9,404.2 1015.7,404.2 1016.4,404.2 1017.1,404.2 1017.8,404.2 1018.5,404.2 1019.3,404.2 1020.0,404.2 1020.7,404.2 1021.4,404.2 1022.2,404.2 1022.9,404.2 1023.6,404.2 1024.3,404.2 1025.1,404.2 1025.8,404.2 1026.5,404.2 1027.2,404.2 1027.9,404.2 1028.7,404.2 1029.4,404.2 1030.1,404.2 1030.8,404.2 1031.5,404.2 1032.3,404.2 1033.0,404.2 1033.7,404.2 1034.4,404.2 1035.1,404.2 1035.9,404.2 1036.6,404.2 1037.3,404.2 1038.0,404.2 1038.8,404.2 1039.5,404.2 1040.2,404.2 1040.9,404.2 1041.6,404.2 1042.4,404.2 1043.1,404.2 1043.8,404.2 1044.5,404.2 1045.2,404.2 1046.0,404.2 1046.7,404.2 1047.4,404.2 1048.1,404.2 1048.8,404.2 1049.6,404.2 1050.3,404.2 1051.0,404.2 1051.7,404.2 1052.4,404.2 1053.2,404.2 1053.9,404.2 1054.6,404.2 1055.3,404.2 1056.1,404.2 1056.8,404.2 1057.5,404.2 1058.2,404.2 1059.0,404.2 1059.7,404.2 1060.4,404.2 1061.1,404.2 1061.8,404.2 1062.6,404.2 1063.3,404.2 1064.0,404.2 1064.7,404.2 1065.4,404.2 1066.2,404.2 1066.9,404.2 1067.6,404.2 1068.3,404.2 1069.0,404.2 1069.8,404.2 1070.5,404.2 1071.2,404.2 1071.9,404.2 1072.7,404.2 1073.4,404.2 1074.1,404.2 1074.8,404.2 1075.5,404.2 1076.3,404.2 1077.0,404.0 1077.7,403.8 1078.4,403.6 1079.1,403.4 1079.9,403.2 1080.6,402.0 1081.3,403.4 1082.0,404.1 1082.7,404.3 1083.5,404.4 1084.2,404.4 1084.9,404.4 1085.6,404.4 1086.3,404.4 1087.1,404.4 1087.8,404.4 1088.5,404.4 1089.2,404.4 1090.0,404.4 1090.7,404.4 1091.4,404.4 1092.1,404.4 1092.9,404.4 1093.6,404.4 1094.3,404.4 1095.0,404.4 1095.0,404.4 1094.3,404.4 1093.6,404.4 1092.9,404.4 1092.1,404.4 1091.4,404.4 1090.7,404.4 1090.0,404.4 1089.2,404.4 1088.5,404.4 1087.8,404.4 1087.1,404.4 1086.3,404.4 1085.6,404.4 1084.9,404.4 1084.2,404.4 1083.5,404.4 1082.7,404.4 1082.0,404.3 1081.3,403.7 1080.6,402.6 1079.9,403.8 1079.1,403.8 1078.4,403.8 1077.7,403.8 1077.0,404.1 1076.3,404.2 1075.5,404.2 1074.8,404.2 1074.1,404.2 1073.4,404.2 1072.7,404.2 1071.9,404.2 1071.2,404.2 1070.5,404.2 1069.8,404.2 1069.0,404.2 1068.3,404.2 1067.6,404.2 1066.9,404.2 1066.2,404.2 1065.4,404.2 1064.7,404.2 1064.0,404.2 1063.3,404.2 1062.6,404.2 1061.8,404.2 1061.1,404.2 1060.4,404.2 1059.7,404.2 1059.0,404.2 1058.2,404.2 1057.5,404.2 1056.8,404.2 1056.1,404.2 1055.3,404.2 1054.6,404.2 1053.9,404.2 1053.2,404.2 1052.4,404.2 1051.7,404.2 1051.0,404.2 1050.3,404.2 1049.6,404.2 1048.8,404.2 1048.1,404.2 1047.4,404.2 1046.7,404.2 1046.0,404.2 1045.2,404.2 1044.5,404.2 1043.8,404.2 1043.1,404.2 1042.4,404.2 1041.6,404.2 1040.9,404.2 1040.2,404.2 1039.5,404.2 1038.8,404.2 1038.0,404.2 1037.3,404.2 1036.6,404.2 1035.9,404.2 1035.1,404.2 1034.4,404.2 1033.7,404.2 1033.0,404.2 1032.3,404.2 1031.5,404.2 1030.8,404.2 1030.1,404.2 1029.4,404.2 1028.7,404.2 1027.9,404.2 1027.2,404.2 1026.5,404.2 1025.8,404.2 1025.1,404.2 1024.3,404.2 1023.6,404.2 1022.9,404.2 1022.2,404.2 1021.4,404.2 1020.7,404.2 1020.0,404.2 1019.3,404.2 1018.5,404.2 1017.8,404.2 1017.1,404.2 1016.4,404.2 1015.7,404.2 1014.9,404.2 1014.2,404.2 1013.5,404.2 1012.8,404.2 1012.1,404.2 1011.3,404.2 1010.6,404.2 1009.9,404.2 1009.2,404.2 1008.5,404.2 1007.7,404.2 1007.0,404.2 1006.3,404.2 1005.6,404.2 1004.9,404.2 1004.1,404.2 1003.4,404.2 1002.7,404.2 1002.0,404.2 1001.2,404.2 1000.5,404.2 999.8,404.2 999.1,404.2 998.4,404.2 997.6,404.2 996.9,404.2 996.2,404.2 995.5,404.2 994.8,404.2 994.0,404.2 993.3,404.2 992.6,404.2 991.9,404.2 991.2,404.2 990.4,404.2 989.7,404.2 989.0,404.2 988.3,404.2 987.5,404.2 986.8,404.2 986.1,404.2 985.4,404.2 984.6,404.2 983.9,404.2 983.2,404.2 982.5,404.2 981.8,404.2 981.0,404.2 980.3,404.2 979.6,404.2 978.9,404.2 978.2,404.2 977.4,404.2 976.7,404.2 976.0,404.2 975.3,404.2 974.6,404.2 973.8,404.2 973.1,404.2 972.4,404.2 971.7,404.2 971.0,404.2 970.2,404.2 969.5,404.2 968.8,404.2 968.1,404.2 967.3,404.2 966.6,404.2 965.9,404.2 965.2,404.2 964.5,404.2 963.7,404.2 963.0,404.2 962.3,404.2 961.6,404.2 960.9,404.2 960.1,404.2 959.4,404.2 958.7,404.2 958.0,404.2 957.3,404.2 956.5,404.2 955.8,404.2 955.1,404.2 954.4,404.2 953.7,404.2 952.9,404.2 952.2,404.2 951.5,404.2 950.8,404.2 950.0,404.2 949.3,404.2 948.6,404.2 947.9,404.2 947.1,404.2 946.4,404.2 945.7,404.2 945.0,404.2 944.3,404.2 943.5,404.2 942.8,404.2 942.1,404.2 941.4,404.2 940.7,404.2 939.9,404.2 939.2,404.2 938.5,404.2 937.8,404.2 937.1,404.2 936.3,404.2 935.6,404.2 934.9,404.2 934.2,404.2 933.4,404.2 932.7,404.2 932.0,404.2 931.3,404.2 930.6,404.2 929.8,404.2 929.1,404.2 928.4,404.2 927.7,404.2 927.0,404.2 926.2,404.2 925.5,404.2 924.8,404.2 924.1,404.2 923.4,404.2 922.6,404.2 921.9,404.2 921.2,404.2 920.5,404.2 919.8,404.2 919.0,404.2 918.3,404.2 917.6,404.2 916.9,404.2 916.1,404.2 915.4,404.2 914.7,404.2 914.0,404.2 913.2,404.2 912.5,404.2 911.8,404.2 911.1,404.2 910.4,404.2 909.6,404.2 908.9,404.2 908.2,404.2 907.5,404.2 906.8,404.2 906.0,404.2 905.3,404.2 904.6,404.2 903.9,404.2 903.2,404.2 902.4,404.2 901.7,404.2 901.0,404.2 900.3,404.2 899.5,404.2 898.8,404.2 898.1,404.2 897.4,404.2 896.7,404.2 895.9,404.2 895.2,404.2 894.5,404.2 893.8,404.2 893.1,404.2 892.3,404.2 891.6,404.2 890.9,404.2 890.2,404.2 889.5,404.2 888.7,404.2 888.0,404.2 887.3,404.2 886.6,404.2 885.9,404.2 885.1,404.2 884.4,404.2 883.7,404.2 883.0,404.2 882.2,404.2 881.5,404.2 880.8,404.2 880.1,404.2 879.3,404.2 878.6,404.2 877.9,404.2 877.2,404.2 876.5,404.2 875.7,404.2 875.0,404.2 874.3,404.2 873.6,404.2 872.9,404.2 872.1,404.2 871.4,404.2 870.7,404.2 870.0,404.2 869.3,404.2 868.5,404.2 867.8,404.2 867.1,404.2 866.4,404.2 865.6,404.2 864.9,404.2 864.2,404.2 863.5,404.2 862.8,404.2 862.0,404.2 861.3,404.2 860.6,404.2 859.9,404.2 859.2,404.2 858.4,404.2 857.7,404.2 857.0,404.2 856.3,404.2 855.6,404.2 854.8,404.2 854.1,404.2 853.4,404.2 852.7,404.2 852.0,404.2 851.2,404.2 850.5,404.2 849.8,404.2 849.1,404.2 848.3,404.2 847.6,404.2 846.9,404.2 846.2,404.2 845.4,404.2 844.7,404.2 844.0,404.2 843.3,404.2 842.6,404.2 841.8,404.2 841.1,404.2 840.4,404.2 839.7,404.2 839.0,404.2 838.2,404.2 837.5,404.2 836.8,404.2 836.1,404.2 835.4,404.2 834.6,404.2 833.9,404.2 833.2,404.2 832.5,404.2 831.7,404.2 831.0,404.2 830.3,404.2 829.6,404.2 828.9,404.2 828.1,404.2 827.4,404.2 826.7,404.2 826.0,404.2 825.3,404.2 824.5,404.2 823.8,404.2 823.1,404.2 822.4,404.2 821.7,404.2 820.9,404.2 820.2,404.2 819.5,404.2 818.8,404.2 818.1,404.2 817.3,404.2 816.6,404.2 815.9,404.2 815.2,404.2 814.4,404.2 813.7,404.2 813.0,404.2 812.3,404.2 811.6,404.2 810.8,404.2 810.1,404.2 809.4,404.2 808.7,404.2 807.9,404.2 807.2,404.3 806.5,404.3 805.8,404.3 805.1,404.3 804.3,404.3 803.6,404.3 802.9,404.3 802.2,404.3 801.5,404.3 800.7,404.3 800.0,404.3 799.3,404.3 798.6,404.3 797.8,404.3 797.1,404.3 796.4,404.3 795.7,404.3 795.0,404.3 794.2,404.3 793.5,404.3 792.8,404.3 792.1,404.3 791.4,404.3 790.6,404.3 789.9,404.3 789.2,404.3 788.5,404.3 787.8,404.3 787.0,404.3 786.3,404.2 785.6,404.2 784.9,404.2 784.2,404.2 783.4,404.2 782.7,404.2 782.0,404.2 781.3,404.2 780.5,404.2 779.8,404.2 779.1,404.2 778.4,404.2 777.7,404.2 776.9,404.2 776.2,404.2 775.5,404.2 774.8,404.2 774.0,404.2 773.3,404.2 772.6,404.2 771.9,404.2 771.2,404.2 770.4,404.2 769.7,404.2 769.0,404.2 768.3,404.2 767.6,404.2 766.8,404.1 766.1,404.1 765.4,404.1 764.7,404.0 763.9,404.0 763.2,404.0 762.5,404.0 761.8,403.9 761.1,403.9 760.3,403.9 759.6,403.9 758.9,403.9 758.2,403.9 757.5,403.9 756.7,403.9 756.0,403.9 755.3,403.9 754.6,403.9 753.9,403.9 753.1,403.9 752.4,403.9 751.7,403.9 751.0,403.9 750.3,404.0 749.5,404.0 748.8,404.0 748.1,404.0 747.4,404.0 746.6,404.0 745.9,404.0 745.2,404.0 744.5,404.0 743.8,404.0 743.0,404.0 742.3,404.0 741.6,404.1 740.9,404.1 740.1,404.2 739.4,404.2 738.7,404.2 738.0,404.2 737.3,404.2 736.5,404.2 735.8,404.2 735.1,404.2 734.4,404.2 733.7,404.2 732.9,404.2 732.2,404.2 731.5,404.2 730.8,404.2 730.0,404.2 729.3,404.2 728.6,404.2 727.9,404.2 727.2,404.2 726.4,404.2 725.7,404.1 725.0,403.8 724.3,403.1 723.6,403.1 722.8,402.6 722.1,403.8 721.4,403.4 720.7,403.4 720.0,403.1 719.2,403.1 718.5,401.7 717.8,401.2 717.1,401.1 716.4,403.8 715.6,404.0 714.9,404.2 714.2,404.2 713.5,404.0 712.7,403.9 712.0,403.8 711.3,403.7 710.6,403.6 709.9,403.5 709.1,403.3 708.4,403.2 707.7,403.2 707.0,401.5 706.2,318.5 705.5,282.9 704.8,240.2 704.1,235.4 703.4,218.1 702.6,218.1 701.9,218.1 701.2,178.5 700.5,165.5 699.8,153.4 699.0,153.4 698.3,126.7 697.6,113.8 696.9,100.9 696.1,92.2 695.4,92.1 694.7,92.0 694.0,91.9 693.3,91.7 692.5,91.6 691.8,91.4 691.1,91.3 690.4,91.2 689.7,91.1 688.9,91.1 688.2,91.1 687.5,91.1 686.8,91.1 686.1,91.1 685.3,89.0 684.6,88.7 683.9,88.4 683.2,88.1 682.5,87.8 681.7,87.5 681.0,87.2 680.3,86.9 679.6,86.6 678.8,86.6 678.1,86.0 677.4,85.7 676.7,85.5 676.0,85.2 675.2,84.9 674.5,84.9 673.8,84.9 673.1,84.9 672.4,84.9 671.6,84.9 670.9,84.9 670.2,84.9 669.5,84.9 668.7,84.9 668.0,84.9 667.3,84.9 666.6,84.9 665.9,84.9 665.1,84.9 664.4,85.2 663.7,85.8 663.0,85.7 662.2,85.6 661.5,85.6 660.8,85.5 660.1,85.4 659.4,85.4 658.6,85.3 657.9,85.2 657.2,85.2 656.5,85.1 655.8,85.0 655.0,85.0 654.3,84.9 653.6,84.9 652.9,84.9 652.2,84.9 651.4,84.9 650.7,84.9 650.0,84.7 649.3,84.7 648.6,84.6 647.8,84.6 647.1,84.6 646.4,84.6 645.7,84.6 644.9,84.6 644.2,84.6 643.5,84.4 642.8,84.3 642.1,84.0 641.3,83.8 640.6,83.6 639.9,83.5 639.2,83.2 638.5,83.0 637.7,82.8 637.0,82.7 636.3,82.4 635.6,82.2 634.8,82.1 634.1,81.9 633.4,81.5 632.7,81.5 632.0,81.4 631.2,81.2 630.5,81.2 629.8,81.1 629.1,80.9 628.3,80.9 627.6,80.7 626.9,80.6 626.2,80.6 625.5,80.3 624.7,80.2 624.0,80.2 623.3,80.1 622.6,80.0 621.9,79.9 621.1,79.9 620.4,79.9 619.7,79.7 619.0,79.7 618.3,79.6 617.5,79.6 616.8,79.6 616.1,79.6 615.4,79.6 614.7,79.4 613.9,79.4 613.2,79.3 612.5,79.3 611.8,79.3 611.0,78.9 610.3,78.8 609.6,78.6 608.9,78.4 608.2,78.3 607.4,78.1 606.7,78.0 606.0,77.7 605.3,77.6 604.6,77.4 603.8,77.2 603.1,76.9 602.4,76.8 601.7,76.6 600.9,76.4 600.2,76.1 599.5,75.9 598.8,75.6 598.1,75.4 597.3,75.1 596.6,74.9 595.9,74.7 595.2,74.4 594.4,74.2 593.7,74.2 593.0,74.2 592.3,74.2 591.6,74.2 590.8,74.2 590.1,74.2 589.4,74.2 588.7,74.2 588.0,74.2 587.2,74.2 586.5,74.2 585.8,74.2 585.1,74.2 584.4,74.2 583.6,74.2 582.9,165.2 582.2,398.7 581.5,400.2 580.8,400.5 580.0,400.8 579.3,401.2 578.6,400.4 577.9,400.3 577.1,401.8 576.4,400.7 575.7,400.8 575.0,400.9 574.3,401.2 573.5,401.4 572.8,401.1 572.1,401.1 571.4,401.9 570.7,401.9 569.9,402.1 569.2,402.2 568.5,402.2 567.8,402.2 567.0,402.2 566.3,402.4 565.6,402.6 564.9,402.7 564.2,402.8 563.4,403.0 562.7,403.1 562.0,402.7 561.3,401.6 560.6,402.0 559.8,403.3 559.1,402.5 558.4,401.5 557.7,399.9 556.9,399.5 556.2,400.1 555.5,400.3 554.8,400.5 554.1,400.7 553.3,400.7 552.6,400.8 551.9,400.9 551.2,400.9 550.5,400.9 549.7,400.9 549.0,400.9 548.3,400.9 547.6,400.9 546.9,401.0 546.1,401.0 545.4,400.9 544.7,400.6 544.0,400.7 543.2,400.9 542.5,400.3 541.8,399.9 541.1,399.9 540.4,399.9 539.6,399.3 538.9,399.1 538.2,399.0 537.5,399.0 536.8,399.0 536.0,399.0 535.3,399.0 534.6,399.0 533.9,399.0 533.2,399.0 532.4,399.0 531.7,399.4 531.0,400.6 530.3,400.6 529.5,400.6 528.8,400.6 528.1,400.6 527.4,400.6 526.7,400.6 525.9,400.6 525.2,400.6 524.5,401.0 523.8,401.0 523.0,401.0 522.3,401.0 521.6,400.6 520.9,400.6 520.2,400.9 519.4,400.7 518.7,400.2 518.0,399.4 517.3,399.2 516.6,399.1 515.8,399.1 515.1,399.2 514.4,399.2 513.7,399.3 513.0,399.4 512.2,399.4 511.5,399.5 510.8,399.6 510.1,399.6 509.3,399.7 508.6,399.8 507.9,399.9 507.2,400.7 506.5,401.0 505.7,401.0 505.0,401.0 504.3,401.0 503.6,401.1 502.9,401.0 502.1,400.8 501.4,400.7 500.7,400.7 500.0,400.7 499.3,400.7 498.5,400.7 497.8,400.6 497.1,400.6 496.4,400.8 495.6,400.6 494.9,400.2 494.2,400.7 493.5,401.0 492.8,401.2 492.0,401.2 491.3,400.1 490.6,400.6 489.9,400.3 489.1,400.7 488.4,400.8 487.7,400.9 487.0,401.0 486.3,402.0 485.5,400.8 484.8,401.0 484.1,401.0 483.4,401.1 482.7,401.3 481.9,401.5 481.2,402.0 480.5,402.1 479.8,402.0 479.1,402.0 478.3,401.9 477.6,403.5 476.9,404.2 476.2,403.6 475.4,403.0 474.7,402.5 474.0,403.6 473.3,404.2 472.6,402.5 471.8,400.1 471.1,400.7 470.4,403.1 469.7,403.0 469.0,402.2 468.2,402.2 467.5,402.1 466.8,402.0 466.1,402.0 465.4,402.3 464.6,401.4 463.9,401.4 463.2,402.4 462.5,401.3 461.7,400.2 461.0,398.8 460.3,398.7 459.6,398.7 458.9,398.7 458.1,399.4 457.4,400.5 456.7,400.5 456.0,400.4 455.2,400.4 454.5,400.4 453.8,400.3 453.1,400.4 452.4,400.4 451.6,400.4 450.9,400.5 450.2,400.5 449.5,400.7 448.8,401.0 448.0,400.9 447.3,400.7 446.6,400.1 445.9,400.0 445.2,399.4 444.4,398.9 443.7,398.3 443.0,398.2 442.3,398.2 441.5,398.3 440.8,398.5 440.1,398.8 439.4,398.8 438.7,398.8 437.9,398.8 437.2,398.9 436.5,399.0 435.8,399.2 435.1,399.4 434.3,399.8 433.6,400.0 432.9,400.5 432.2,400.5 431.5,400.5 430.7,400.5 430.0,400.4 429.3,400.4 428.6,400.4 427.8,400.4 427.1,400.4 426.4,400.4 425.7,400.3 425.0,400.6 424.2,400.5 423.5,400.6 422.8,400.9 422.1,400.2 421.3,399.0 420.6,398.7 419.9,398.7 419.2,398.6 418.5,398.5 417.7,398.5 417.0,398.5 416.3,398.4 415.6,398.3 414.9,398.3 414.1,398.3 413.4,398.2 412.7,398.2 412.0,398.2 411.3,398.4 410.5,400.5 409.8,400.3 409.1,400.1 408.4,400.0 407.6,400.0 406.9,399.9 406.2,399.9 405.5,399.8 404.8,399.7 404.0,399.7 403.3,399.6 402.6,399.6 401.9,399.5 401.2,399.5 400.4,399.9 399.7,399.9 399.0,400.0 398.3,400.0 397.6,400.1 396.8,400.4 396.1,400.4 395.4,400.4 394.7,400.4 394.0,400.4 393.2,400.4 392.5,400.4 391.8,400.4 391.1,400.4 390.3,400.4 389.6,400.4 388.9,400.4 388.2,400.4 387.4,400.4 386.7,400.4 386.0,400.4 385.3,400.4 384.6,400.4 383.8,400.4 383.1,400.4 382.4,400.7 381.7,401.2 381.0,400.6 380.2,400.9 379.5,400.9 378.8,400.3 378.1,399.6 377.4,399.5 376.6,399.5 375.9,399.5 375.2,398.9 374.5,398.9 373.7,398.7 373.0,398.6 372.3,398.6 371.6,398.3 370.9,398.3 370.1,398.1 369.4,398.3 368.7,398.7 368.0,399.7 367.3,399.9 366.5,400.3 365.8,400.3 365.1,400.2 364.4,400.2 363.7,400.2 362.9,400.3 362.2,400.3 361.5,400.3 360.8,400.3 360.1,400.3 359.3,400.3 358.6,400.4 357.9,400.7 357.2,400.4 356.4,400.5 355.7,400.7 355.0,399.5 354.3,398.8 353.5,398.7 352.8,398.7 352.1,398.3 351.4,398.3 350.7,398.2 349.9,398.1 349.2,398.0 348.5,398.0 347.8,398.2 347.1,398.5 346.3,398.7 345.6,399.0 344.9,400.3 344.2,400.4 343.5,400.3 342.7,400.3 342.0,400.3 341.3,400.3 340.6,400.3 339.8,400.3 339.1,400.3 338.4,400.3 337.7,400.3 337.0,400.3 336.2,400.5 335.5,400.5 334.8,400.6 334.1,400.7 333.4,400.7 332.6,400.8 331.9,400.9 331.2,400.5 330.5,400.3 329.8,400.2 329.0,400.2 328.3,400.1 327.6,400.1 326.9,400.1 326.2,400.1 325.4,400.1 324.7,400.1 324.0,400.1 323.3,400.1 322.5,400.1 321.8,400.1 321.1,400.1 320.4,400.1 319.6,400.1 318.9,400.1 318.2,400.1 317.5,400.1 316.8,400.1 316.0,400.1 315.3,400.1 314.6,400.1 313.9,400.1 313.2,400.1 312.4,400.1 311.7,400.1 311.0,400.1 310.3,400.1 309.6,400.1 308.8,400.1 308.1,400.1 307.4,400.1 306.7,400.1 305.9,400.2 305.2,400.4 304.5,400.9 303.8,400.7 303.1,400.7 302.3,400.7 301.6,400.5 300.9,400.5 300.2,400.5 299.5,399.5 298.7,399.3 298.0,398.9 297.3,398.8 296.6,398.8 295.9,398.8 295.1,398.8 294.4,398.8 293.7,398.8 293.0,398.8 292.3,398.9 291.5,400.4 290.8,399.9 290.1,400.4 289.4,400.1 288.6,400.1 287.9,400.1 287.2,400.2 286.5,400.2 285.7,400.2 285.0,400.4 284.3,400.4 283.6,400.5 282.9,400.6 282.1,400.6 281.4,400.7 280.7,400.6 280.0,400.8 279.3,400.9 278.5,400.3 277.8,398.9 277.1,398.3 276.4,398.3 275.7,398.1 274.9,398.1 274.2,398.1 273.5,398.4 272.8,398.6 272.0,398.8 271.3,399.8 270.6,399.8 269.9,399.8 269.2,399.9 268.4,400.0 267.7,400.3 267.0,400.1 266.3,400.0 265.6,400.0 264.8,400.0 264.1,400.1 263.4,400.1 262.7,400.1 262.0,400.2 261.2,400.2 260.5,400.3 259.8,400.3 259.1,400.3 258.4,400.3 257.6,400.3 256.9,400.7 256.2,400.7 255.5,400.7 254.7,400.0 254.0,399.1 253.3,398.5 252.6,398.2 251.9,398.0 251.1,398.0 250.4,398.0 249.7,398.0 249.0,398.0 248.2,398.0 247.5,398.0 246.8,398.0 246.1,398.0 245.4,398.0 244.6,398.0 243.9,399.3 243.2,400.4 242.5,400.4 241.8,400.3 241.0,400.3 240.3,400.3 239.6,400.3 238.9,400.2 238.1,400.2 237.4,400.3 236.7,400.4 236.0,400.4 235.3,400.4 234.5,400.4 233.8,400.5 233.1,400.7 232.4,400.9 231.7,400.5 230.9,399.9 230.2,399.5 229.5,399.4 228.8,399.3 228.1,399.2 227.3,399.2 226.6,399.2 225.9,398.8 225.2,398.6 224.5,398.5 223.7,398.3 223.0,398.2 222.3,398.3 221.6,398.9 220.8,399.8 220.1,400.2 219.4,400.4 218.7,400.3 218.0,400.3 217.2,400.3 216.5,400.3 215.8,400.3 215.1,400.3 214.3,400.3 213.6,400.3 212.9,400.3 212.2,400.3 211.5,400.3 210.7,400.6 210.0,400.6 209.3,400.6 208.6,400.8 207.9,400.3 207.1,400.3 206.4,400.4 205.7,400.3 205.0,400.3 204.3,400.3 203.5,400.3 202.8,400.3 202.1,400.3 201.4,400.3 200.6,400.3 199.9,400.3 199.2,400.3 198.5,400.3 197.8,400.3 197.0,400.3 196.3,400.3 195.6,400.3 194.9,400.3 194.2,400.3 193.4,400.3 192.7,400.3 192.0,400.3 191.3,400.3 190.6,400.3 189.8,400.3 189.1,400.3 188.4,400.3 187.7,400.3 186.9,400.3 186.2,400.3 185.5,400.3 184.8,400.3 184.1,400.3 183.3,400.3 182.6,400.3 181.9,400.3 181.2,400.3 180.4,400.3 179.7,400.3 179.0,400.7 178.3,400.4 177.6,400.2 176.8,399.4 176.1,399.3 175.4,399.2 174.7,399.2 174.0,399.2 173.2,399.2 172.5,399.2 171.8,399.2 171.1,399.2 170.4,399.2 169.6,399.2 168.9,399.2 168.2,399.2 167.5,399.2 166.7,399.2 166.0,399.8 165.3,400.0 164.6,400.2 163.9,400.2 163.1,400.2 162.4,400.2 161.7,400.2 161.0,400.3 160.3,400.3 159.5,400.3 158.8,400.3 158.1,400.3 157.4,400.3 156.7,400.3 155.9,400.3 155.2,400.6 154.5,400.9 153.8,401.0 153.0,400.2 152.3,400.1 151.6,399.7 150.9,399.3 150.2,398.9 149.4,398.6 148.7,398.5 148.0,398.0 147.3,398.1 146.5,398.1 145.8,398.2 145.1,398.2 144.4,398.2 143.7,398.2 142.9,398.5 142.2,399.2 141.5,399.8 140.8,399.9 140.1,400.2 139.3,400.2 138.6,400.2 137.9,400.3 137.2,400.3 136.5,400.3 135.7,400.3 135.0,400.3 134.3,400.3 133.6,400.3 132.8,400.4 132.1,400.4 131.4,400.7 130.7,401.0 130.0,400.3 129.2,400.3 128.5,399.6 127.8,398.7 127.1,398.3 126.4,398.2 125.6,398.0 124.9,398.0 124.2,398.0 123.5,262.8 122.8,218.5 122.0,207.1 121.3,185.2 120.6,169.9 119.9,169.9 119.1,135.3 118.4,132.7 117.7,102.7 117.0,90.4 116.3,83.0 115.5,83.0 114.8,83.0 114.1,83.0 113.4,83.0 112.7,83.0 111.9,83.0 111.2,83.0 110.5,83.0 109.8,83.0 109.0,83.0 108.3,83.0 107.6,83.0 106.9,110.7 106.2,169.3 105.4,276.1 104.7,398.7 104.0,399.6 103.3,400.7 102.6,400.7 101.8,400.3 101.1,400.2 100.4,400.2 99.7,400.2 98.9,400.6 98.2,400.2 97.5,400.2 96.8,401.1 96.1,401.5 95.3,402.1 94.6,402.0 93.9,402.0 93.2,401.9 92.5,401.8 91.7,401.8 91.0,401.8 90.3,401.8 89.6,402.4 88.9,403.8 88.1,403.4 87.4,403.3 86.7,403.3 86.0,403.3 85.2,403.5 84.5,403.8 83.8,403.8 83.1,402.7 82.4,404.0 81.6,403.4 80.9,403.8 80.2,403.9 79.5,404.0 78.8,404.1 78.0,404.1 77.3,403.8 76.6,402.9 75.9,402.7 75.1,402.1 74.4,401.5 73.7,403.0 73.0,403.7 72.3,404.3 71.5,404.3 70.8,404.3 70.1,404.3 69.4,404.3 68.7,404.3 67.9,404.3 67.2,404.3 66.5,404.3 65.8,404.3 65.0,404.3 64.3,404.3 63.6,404.3 62.9,404.3 62.2,404.3 61.4,404.3 60.7,404.3 60.0,404.3" fill="#3498db" fill-opacity="0.2" stroke="none" />
<polyline points="60.0,404.3 60.7,404.2 61.4,404.2 62.2,404.2 62.9,404.2 63.6,404.2 64.3,404.2 65.0,404.2 65.8,404.2 66.5,404.2 67.2,404.2 67.9,404.2 68.7,404.2 69.4,404.1 70.1,404.1 70.8,404.1 71.5,404.1 72.3,404.1 73.0,403.5 73.7,402.3 74.4,400.7 75.1,402.0 75.9,402.6 76.6,402.8 77.3,403.4 78.0,403.6 78.8,403.6 79.5,403.6 80.2,403.6 80.9,403.5 81.6,403.1 82.4,403.7 83.1,402.2 83.8,403.5 84.5,403.5 85.2,403.4 86.0,403.1 86.7,403.2 87.4,403.3 88.1,403.3 88.9,403.7 89.6,402.0 90.3,401.6 91.0,401.6 91.7,401.7 92.5,401.8 93.2,401.9 93.9,401.9 94.6,401.9 95.3,401.9 96.1,401.5 96.8,400.8 97.5,400.1 98.2,400.1 98.9,400.4 99.7,400.2 100.4,400.2 101.1,400.2 101.8,400.2 102.6,400.6 103.3,400.1 104.0,399.3 104.7,396.3 105.4,263.8 106.2,104.6 106.9,86.2 107.6,77.2 108.3,77.5 109.0,77.5 109.8,77.5 110.5,77.5 111.2,77.6 111.9,77.6 112.7,77.6 113.4,77.9 114.1,78.1 114.8,78.4 115.5,78.6 116.3,78.7 117.0,84.3 117.7,100.1 118.4,123.0 119.1,133.5 119.9,154.7 120.6,161.9 121.3,167.4 122.0,185.4 122.8,190.9 123.5,215.0 124.2,390.1 124.9,398.0 125.6,398.0 126.4,398.1 127.1,398.1 127.8,398.5 128.5,399.4 129.2,400.1 130.0,400.2 130.7,400.7 131.4,400.5 132.1,400.4 132.8,400.3 133.6,400.3 134.3,400.3 135.0,400.3 135.7,400.3 136.5,400.3 137.2,400.3 137.9,400.3 138.6,400.2 139.3,400.1 140.1,400.1 140.8,399.8 141.5,399.8 142.2,399.2 142.9,398.4 143.7,398.1 144.4,398.1 145.1,398.1 145.8,398.1 146.5,398.0 147.3,398.0 148.0,398.0 148.7,398.4 149.4,398.5 150.2,398.8 150.9,399.1 151.6,399.5 152.3,399.9 153.0,400.0 153.8,400.6 154.5,400.7 155.2,400.6 155.9,400.1 156.7,400.1 157.4,400.1 158.1,400.2 158.8,400.2 159.5,400.2 160.3,400.2 161.0,400.2 161.7,400.2 162.4,400.2 163.1,400.2 163.9,400.2 164.6,400.1 165.3,400.0 166.0,399.5 166.7,398.4 167.5,398.4 168.2,398.4 168.9,398.4 169.6,398.4 170.4,398.4 171.1,398.5 171.8,398.5 172.5,398.6 173.2,398.7 174.0,398.7 174.7,398.7 175.4,398.8 176.1,398.9 176.8,399.3 177.6,400.1 178.3,400.3 179.0,400.5 179.7,400.3 180.4,400.3 181.2,400.3 181.9,400.3 182.6,400.3 183.3,400.3 184.1,400.3 184.8,400.3 185.5,400.3 186.2,400.3 186.9,400.3 187.7,400.3 188.4,400.3 189.1,400.3 189.8,400.3 190.6,400.3 191.3,400.3 192.0,400.3 192.7,400.3 193.4,400.3 194.2,400.3 194.9,400.3 195.6,400.3 196.3,400.2 197.0,400.2 197.8,400.2 198.5,400.1 199.2,400.1 199.9,400.1 200.6,400.1 201.4,399.6 202.1,398.8 202.8,398.4 203.5,399.1 204.3,399.5 205.0,400.1 205.7,400.3 206.4,400.3 207.1,400.3 207.9,400.1 208.6,400.6 209.3,400.4 210.0,400.4 210.7,400.5 211.5,400.1 212.2,400.2 212.9,400.2 213.6,400.2 214.3,400.2 215.1,400.2 215.8,400.3 216.5,400.3 217.2,400.3 218.0,400.3 218.7,400.3 219.4,400.3 220.1,400.1 220.8,399.5 221.6,398.7 222.3,398.1 223.0,398.1 223.7,398.2 224.5,398.4 225.2,398.5 225.9,398.6 226.6,399.0 227.3,399.0 228.1,399.1 228.8,399.3 229.5,399.3 230.2,399.4 230.9,399.7 231.7,400.4 232.4,400.7 233.1,400.7 233.8,400.4 234.5,400.4 235.3,400.4 236.0,400.4 236.7,400.3 237.4,400.2 238.1,400.2 238.9,400.2 239.6,400.2 240.3,400.2 241.0,400.2 241.8,400.2 242.5,400.2 243.2,400.2 243.9,399.0 244.6,398.0 245.4,398.0 246.1,398.0 246.8,398.0 247.5,398.0 248.2,398.0 249.0,398.0 249.7,398.0 250.4,398.0 251.1,398.0 251.9,398.0 252.6,398.0 253.3,398.2 254.0,399.1 254.7,399.9 255.5,400.6 256.2,400.7 256.9,400.6 257.6,400.2 258.4,400.2 259.1,400.2 259.8,400.2 260.5,400.2 261.2,400.1 262.0,400.1 262.7,400.1 263.4,400.1 264.1,400.1 264.8,400.0 265.6,400.0 266.3,399.9 267.0,400.0 267.7,400.1 268.4,400.0 269.2,399.8 269.9,399.7 270.6,399.6 271.3,399.6 272.0,398.4 272.8,398.3 273.5,398.2 274.2,398.1 274.9,398.1 275.7,398.1 276.4,398.2 277.1,398.3 277.8,398.7 278.5,400.2 279.3,400.6 280.0,400.6 280.7,400.5 281.4,400.6 282.1,400.5 282.9,400.5 283.6,400.4 284.3,400.4 285.0,400.4 285.7,400.2 286.5,400.2 287.2,400.1 287.9,400.0 288.6,400.0 289.4,399.9 290.1,400.0 290.8,399.4 291.5,399.4 292.3,398.6 293.0,398.5 293.7,398.4 294.4,398.4 295.1,398.3 295.9,398.3 296.6,398.4 297.3,398.6 298.0,398.8 298.7,399.1 299.5,399.1 300.2,400.1 300.9,400.2 301.6,400.4 302.3,400.6 303.1,400.7 303.8,400.6 304.5,400.7 305.2,400.3 305.9,400.1 306.7,400.1 307.4,400.1 308.1,400.1 308.8,400.1 309.6,400.1 310.3,400.1 311.0,400.1 311.7,400.1 312.4,400.1 313.2,400.1 313.9,400.0 314.6,399.2 315.3,399.2 316.0,399.8 316.8,400.0 317.5,400.0 318.2,400.0 318.9,400.0 319.6,400.0 320.4,400.0 321.1,400.0 321.8,400.0 322.5,400.0 323.3,400.0 324.0,400.1 324.7,400.1 325.4,400.1 326.2,400.1 326.9,400.1 327.6,400.1 328.3,400.1 329.0,400.1 329.8,400.1 330.5,400.0 331.2,400.4 331.9,400.6 332.6,400.6 333.4,400.6 334.1,400.6 334.8,400.5 335.5,400.5 336.2,400.4 337.0,400.3 337.7,400.2 338.4,400.2 339.1,400.1 339.8,400.1 340.6,400.1 341.3,400.1 342.0,400.1 342.7,400.1 343.5,400.1 344.2,400.0 344.9,399.9 345.6,398.3 346.3,398.2 347.1,398.1 347.8,398.1 348.5,398.0 349.2,398.0 349.9,398.1 350.7,398.2 351.4,398.2 352.1,398.2 352.8,398.5 353.5,398.5 354.3,398.7 355.0,399.5 355.7,400.3 356.4,400.4 357.2,400.3 357.9,400.6 358.6,400.3 359.3,400.2 360.1,400.2 360.8,400.2 361.5,400.2 362.2,400.2 362.9,400.2 363.7,400.2 364.4,400.2 365.1,400.2 365.8,400.2 366.5,400.2 367.3,399.8 368.0,399.3 368.7,398.5 369.4,398.2 370.1,398.1 370.9,398.2 371.6,398.3 372.3,398.5 373.0,398.5 373.7,398.6 374.5,398.7 375.2,398.8 375.9,399.2 376.6,399.3 377.4,399.3 378.1,399.5 378.8,400.2 379.5,400.6 380.2,400.7 381.0,400.4 381.7,400.8 382.4,400.5 383.1,400.4 383.8,400.4 384.6,400.4 385.3,400.4 386.0,400.4 386.7,400.4 387.4,400.4 388.2,400.4 388.9,400.4 389.6,400.4 390.3,400.3 391.1,400.3 391.8,400.3 392.5,400.3 393.2,400.3 394.0,400.3 394.7,400.3 395.4,400.3 396.1,400.3 396.8,400.2 397.6,400.0 398.3,399.4 399.0,399.8 399.7,399.8 400.4,399.8 401.2,399.4 401.9,399.4 402.6,399.6 403.3,399.6 404.0,399.6 404.8,399.7 405.5,399.7 406.2,399.8 406.9,399.8 407.6,399.9 408.4,399.9 409.1,400.0 409.8,400.1 410.5,399.9 411.3,398.3 412.0,398.1 412.7,398.1 413.4,398.2 414.1,398.2 414.9,398.2 415.6,398.3 416.3,398.3 417.0,398.4 417.7,398.4 418.5,398.4 419.2,398.4 419.9,398.5 420.6,398.5 421.3,398.6 422.1,399.8 422.8,400.7 423.5,400.5 424.2,400.3 425.0,400.5 425.7,400.3 426.4,400.2 427.1,400.2 427.8,400.2 428.6,400.2 429.3,400.2 430.0,400.2 430.7,400.2 431.5,400.2 432.2,400.2 432.9,400.2 433.6,399.9 434.3,399.7 435.1,399.1 435.8,399.0 436.5,398.9 437.2,398.8 437.9,398.8 438.7,398.7 439.4,398.7 440.1,398.6 440.8,398.3 441.5,398.2 442.3,398.1 443.0,398.1 443.7,398.3 444.4,398.7 445.2,399.2 445.9,399.8 446.6,400.1 447.3,400.4 448.0,400.7 448.8,400.7 449.5,400.6 450.2,400.2 450.9,400.2 451.6,400.2 452.4,400.2 453.1,400.2 453.8,400.2 454.5,400.1 455.2,400.1 456.0,400.1 456.7,400.1 457.4,400.2 458.1,399.3 458.9,398.7 459.6,398.6 460.3,398.6 461.0,398.7 461.7,399.8 462.5,401.0 463.2,402.3 463.9,400.8 464.6,400.9 465.4,402.1 466.1,401.9 466.8,401.9 467.5,402.0 468.2,402.1 469.0,402.2 469.7,402.6 470.4,402.8 471.1,400.0 471.8,399.8 472.6,401.9 473.3,404.1 474.0,403.4 474.7,402.0 475.4,402.4 476.2,403.1 476.9,404.0 477.6,403.2 478.3,401.8 479.1,401.9 479.8,402.0 480.5,401.9 481.2,401.7 481.9,401.3 482.7,401.2 483.4,401.0 484.1,401.0 484.8,400.8 485.5,400.6 486.3,401.6 487.0,400.6 487.7,400.4 488.4,400.5 489.1,400.5 489.9,400.2 490.6,400.4 491.3,400.0 492.0,401.0 492.8,401.0 493.5,400.9 494.2,400.6 494.9,400.1 495.6,400.6 496.4,400.7 497.1,400.6 497.8,400.5 498.5,400.6 499.3,400.6 500.0,400.6 500.7,400.6 501.4,400.7 502.1,400.7 502.9,400.9 503.6,401.0 504.3,401.0 505.0,400.9 505.7,400.9 506.5,400.9 507.2,400.6 507.9,399.7 508.6,399.6 509.3,399.6 510.1,399.5 510.8,399.5 511.5,399.5 512.2,399.4 513.0,399.4 513.7,399.3 514.4,399.2 515.1,399.2 515.8,399.1 516.6,399.0 517.3,399.1 518.0,399.4 518.7,399.9 519.4,400.6 520.2,400.8 520.9,400.5 521.6,400.5 522.3,400.8 523.0,400.8 523.8,400.8 524.5,400.7 525.2,400.6 525.9,400.6 526.7,400.6 527.4,400.6 528.1,400.5 528.8,400.5 529.5,400.5 530.3,400.5 531.0,400.5 531.7,399.1 532.4,398.9 533.2,399.0 533.9,399.0 534.6,399.0 535.3,399.0 536.0,399.0 536.8,399.0 537.5,399.0 538.2,399.0 538.9,399.1 539.6,399.2 540.4,399.6 541.1,399.6 541.8,399.7 542.5,400.0 543.2,400.4 544.0,400.6 544.7,400.4 545.4,400.8 546.1,401.0 546.9,401.0 547.6,400.9 548.3,400.9 549.0,400.9 549.7,400.9 550.5,400.8 551.2,400.8 551.9,400.8 552.6,400.7 553.3,400.7 554.1,400.7 554.8,400.5 555.5,400.2 556.2,399.9 556.9,399.4 557.7,399.7 558.4,401.0 559.1,402.3 559.8,403.2 560.6,401.3 561.3,401.1 562.0,402.1 562.7,402.3 563.4,402.3 564.2,402.3 564.9,402.4 565.6,402.4 566.3,402.3 567.0,402.2 567.8,402.2 568.5,402.2 569.2,402.1 569.9,402.1 570.7,401.8 571.4,401.6 572.1,400.9 572.8,400.8 573.5,401.2 574.3,401.1 575.0,400.9 575.7,400.7 576.4,400.7 577.1,401.1 577.9,400.2 578.6,400.2 579.3,400.9 580.0,400.8 580.8,400.4 581.5,395.8 582.2,313.5 582.9,117.5 583.6,72.5 584.4,72.6 585.1,72.7 585.8,72.9 586.5,73.0 587.2,73.1 588.0,73.2 588.7,73.4 589.4,73.5 590.1,73.6 590.8,73.7 591.6,73.8 592.3,73.9 593.0,74.0 593.7,74.1 594.4,74.2 595.2,74.4 595.9,74.7 596.6,74.9 597.3,75.1 598.1,75.4 598.8,75.6 599.5,75.8 600.2,76.1 600.9,76.3 601.7,76.5 602.4,76.8 603.1,76.9 603.8,77.1 604.6,77.3 605.3,77.5 606.0,77.6 606.7,77.9 607.4,78.0 608.2,78.2 608.9,78.3 609.6,78.6 610.3,78.7 611.0,78.9 611.8,79.1 612.5,79.2 613.2,79.3 613.9,79.3 614.7,79.3 615.4,79.5 616.1,79.5 616.8,79.5 617.5,79.6 618.3,79.6 619.0,79.7 619.7,79.7 620.4,79.8 621.1,79.9 621.9,79.9 622.6,79.9 623.3,80.0 624.0,80.1 624.7,80.2 625.5,80.3 626.2,80.5 626.9,80.6 627.6,80.6 628.3,80.8 629.1,80.9 629.8,81.0 630.5,81.1 631.2,81.2 632.0,81.3 632.7,81.5 633.4,81.5 634.1,81.8 634.8,82.0 635.6,82.1 636.3,82.4 637.0,82.6 637.7,82.7 638.5,83.0 639.2,83.1 639.9,83.4 640.6,83.6 641.3,83.7 642.1,84.0 642.8,84.2 643.5,84.3 644.2,84.5 644.9,84.6 645.7,84.6 646.4,84.6 647.1,84.6 647.8,84.6 648.6,84.6 649.3,84.6 650.0,84.6 650.7,84.7 651.4,84.9 652.2,84.9 652.9,84.9 653.6,84.9 654.3,84.9 655.0,84.9 655.8,84.9 656.5,85.0 657.2,85.0 657.9,85.0 658.6,85.0 659.4,85.0 660.1,85.1 660.8,85.1 661.5,85.1 662.2,85.1 663.0,85.2 663.7,85.2 664.4,85.0 665.1,84.8 665.9,84.8 666.6,84.8 667.3,84.8 668.0,84.8 668.7,84.8 669.5,84.8 670.2,84.8 670.9,84.8 671.6,84.8 672.4,84.9 673.1,84.9 673.8,84.9 674.5,84.9 675.2,84.9 676.0,85.1 676.7,85.5 677.4,85.7 678.1,86.0 678.8,86.4 679.6,86.3 680.3,86.9 681.0,87.2 681.7,87.5 682.5,87.8 683.2,88.1 683.9,88.4 684.6,88.7 685.3,88.9 686.1,89.7 686.8,89.7 687.5,89.7 688.2,89.7 688.9,89.7 689.7,89.6 690.4,89.6 691.1,89.7 691.8,89.7 692.5,89.7 693.3,89.7 694.0,89.8 694.7,89.8 695.4,89.8 696.1,89.9 696.9,96.3 697.6,105.1 698.3,113.8 699.0,142.7 699.8,151.4 700.5,160.1 701.2,168.7 701.9,199.0 702.6,207.7 703.4,212.1 704.1,226.8 704.8,231.2 705.5,257.2 706.2,289.3 707.0,376.3 707.7,401.7 708.4,401.8 709.1,401.9 709.9,402.0 710.6,402.2 711.3,402.3 712.0,402.4 712.7,402.6 713.5,403.1 714.2,403.3 714.9,403.4 715.6,403.6 716.4,403.1 717.1,400.7 717.8,400.8 718.5,401.5 719.2,402.9 720.0,403.0 720.7,403.4 721.4,403.4 722.1,403.7 722.8,402.4 723.6,402.9 724.3,402.8 725.0,403.7 725.7,404.0 726.4,404.2 727.2,404.2 727.9,404.2 728.6,404.2 729.3,404.2 730.0,404.2 730.8,404.2 731.5,404.2 732.2,404.2 732.9,404.2 733.7,404.2 734.4,404.2 735.1,404.2 735.8,404.2 736.5,404.2 737.3,404.1 738.0,404.1 738.7,404.1 739.4,404.1 740.1,404.1 740.9,404.0 741.6,404.0 742.3,404.0 743.0,404.0 743.8,404.0 744.5,404.0 745.2,404.0 745.9,403.9 746.6,403.9 747.4,403.9 748.1,403.9 748.8,403.9 749.5,403.9 750.3,403.9 751.0,403.9 751.7,403.9 752.4,403.9 753.1,403.9 753.9,403.9 754.6,403.9 755.3,403.8 756.0,403.8 756.7,403.8 757.5,403.6 758.2,403.8 758.9,403.8 759.6,403.9 760.3,403.9 761.1,403.9 761.8,403.9 762.5,403.9 763.2,404.0 763.9,404.0 764.7,404.0 765.4,404.1 766.1,404.1 766.8,404.1 767.6,404.1 768.3,404.2 769.0,404.2 769.7,404.2 770.4,404.2 771.2,404.2 771.9,404.2 772.6,404.2 773.3,404.2 774.0,404.2 774.8,404.2 775.5,404.2 776.2,404.2 776.9,404.2 777.7,404.2 778.4,404.2 779.1,404.2 779.8,404.2 780.5,404.2 781.3,404.2 782.0,404.2 782.7,404.2 783.4,404.2 784.2,404.2 784.9,404.2 785.6,404.2 786.3,404.2 787.0,404.2 787.8,404.2 788.5,404.2 789.2,404.2 789.9,404.2 790.6,404.2 791.4,404.2 792.1,404.2 792.8,404.2 793.5,404.2 794.2,404.3 795.0,404.3 795.7,404.3 796.4,404.3 797.1,404.3 797.8,404.3 798.6,404.3 799.3,404.3 800.0,404.3 800.7,404.3 801.5,404.3 802.2,404.3 802.9,404.3 803.6,404.3 804.3,404.3 805.1,404.2 805.8,404.2 806.5,404.2 807.2,404.2 807.9,404.2 808.7,404.2 809.4,404.2 810.1,404.2 810.8,404.2 811.6,404.2 812.3,404.2 813.0,404.2 813.7,404.2 814.4,404.2 815.2,404.2 815.9,404.2 816.6,404.2 817.3,404.2 818.1,404.2 818.8,404.2 819.5,404.2 820.2,404.2 820.9,404.2 821.7,404.2 822.4,404.2 823.1,404.2 823.8,404.2 824.5,404.2 825.3,404.2 826.0,404.2 826.7,404.2 827.4,404.2 828.1,404.2 828.9,404.2 829.6,404.2 830.3,404.2 831.0,404.2 831.7,404.2 832.5,404.2 833.2,404.2 833.9,404.2 834.6,404.2 835.4,404.2 836.1,404.2 836.8,404.2 837.5,404.2 838.2,404.2 839.0,404.2 839.7,404.2 840.4,404.2 841.1,404.2 841.8,404.2 842.6,404.2 843.3,404.2 844.0,404.2 844.7,404.2 845.4,404.2 846.2,404.2 846.9,404.2 847.6,404.2 848.3,404.2 849.1,404.2 849.8,404.2 850.5,404.2 851.2,404.2 852.0,404.2 852.7,404.2 853.4,404.2 854.1,404.2 854.8,404.2 855.6,404.2 856.3,404.2 857.0,404.2 857.7,404.2 858.4,404.2 859.2,404.2 859.9,404.2 860.6,404.2 861.3,404.2 862.0,404.2 862.8,404.2 863.5,404.2 864.2,404.2 864.9,404.2 865.6,404.2 866.4,404.2 867.1,404.2 867.8,404.2 868.5,404.2 869.3,404.2 870.0,404.2 870.7,404.2 871.4,404.2 872.1,404.2 872.9,404.2 873.6,404.2 874.3,404.2 875.0,404.2 875.7,404.2 876.5,404.2 877.2,404.2 877.9,404.2 878.6,404.2 879.3,404.2 880.1,404.2 880.8,404.2 881.5,404.2 882.2,404.2 883.0,404.2 883.7,404.2 884.4,404.2 885.1,404.2 885.9,404.2 886.6,404.2 887.3,404.2 888.0,404.2 888.7,404.2 889.5,404.2 890.2,404.2 890.9,404.2 891.6,404.2 892.3,404.2 893.1,404.2 893.8,404.2 894.5,404.2 895.2,404.2 895.9,404.2 896.7,404.2 897.4,404.2 898.1,404.2 898.8,404.2 899.5,404.2 900.3,404.2 901.0,404.2 901.7,404.2 902.4,404.2 903.2,404.2 903.9,404.2 904.6,404.2 905.3,404.2 906.0,404.2 906.8,404.2 907.5,404.2 908.2,404.2 908.9,404.2 909.6,404.2 910.4,404.2 911.1,404.2 911.8,404.2 912.5,404.2 913.2,404.2 914.0,404.2 914.7,404.2 915.4,404.2 916.1,404.2 916.9,404.2 917.6,404.2 918.3,404.2 919.0,404.2 919.8,404.2 920.5,404.2 921.2,404.2 921.9,404.2 922.6,404.2 923.4,404.2 924.1,404.2 924.8,404.2 925.5,404.2 926.2,404.2 927.0,404.2 927.7,404.2 928.4,404.2 929.1,404.2 929.8,404.2 930.6,404.2 931.3,404.2 932.0,404.2 932.7,404.2 933.4,404.2 934.2,404.2 934.9,404.2 935.6,404.2 936.3,404.2 937.1,404.2 937.8,404.2 938.5,404.2 939.2,404.2 939.9,404.2 940.7,404.2 941.4,404.2 942.1,404.2 942.8,404.2 943.5,404.2 944.3,404.2 945.0,404.2 945.7,404.2 946.4,404.2 947.1,404.2 947.9,404.2 948.6,404.2 949.3,404.2 950.0,404.2 950.8,404.2 951.5,404.2 952.2,404.2 952.9,404.2 953.7,404.2 954.4,404.2 955.1,404.2 955.8,404.2 956.5,404.2 957.3,404.2 958.0,404.2 958.7,404.2 959.4,404.2 960.1,404.2 960.9,404.2 961.6,404.2 962.3,404.2 963.0,404.2 963.7,404.2 964.5,404.2 965.2,404.2 965.9,404.2 966.6,404.2 967.3,404.2 968.1,404.2 968.8,404.2 969.5,404.2 970.2,404.2 971.0,404.2 971.7,404.2 972.4,404.2 973.1,404.2 973.8,404.2 974.6,404.2 975.3,404.2 976.0,404.2 976.7,404.2 977.4,404.2 978.2,404.2 978.9,404.2 979.6,404.2 980.3,404.2 981.0,404.2 981.8,404.2 982.5,404.2 983.2,404.2 983.9,404.2 984.6,404.2 985.4,404.2 986.1,404.2 986.8,404.2 987.5,404.2 988.3,404.2 989.0,404.2 989.7,404.2 990.4,404.2 991.2,404.2 991.9,404.2 992.6,404.2 993.3,404.2 994.0,404.2 994.8,404.2 995.5,404.2 996.2,404.2 996.9,404.2 997.6,404.2 998.4,404.2 999.1,404.2 999.8,404.2 1000.5,404.2 1001.2,404.2 1002.0,404.2 1002.7,404.2 1003.4,404.2 1004.1,404.2 1004.9,404.2 1005.6,404.2 1006.3,404.2 1007.0,404.2 1007.7,404.2 1008.5,404.2 1009.2,404.2 1009.9,404.2 1010.6,404.2 1011.3,404.2 1012.1,404.2 1012.8,404.2 1013.5,404.2 1014.2,404.2 1014.9,404.2 1015.7,404.2 1016.4,404.2 1017.1,404.2 1017.8,404.2 1018.5,404.2 1019.3,404.2 1020.0,404.2 1020.7,404.2 1021.4,404.2 1022.2,404.2 1022.9,404.2 1023.6,404.2 1024.3,404.2 1025.1,404.2 1025.8,404.2 1026.5,404.2 1027.2,404.2 1027.9,404.2 1028.7,404.2 1029.4,404.2 1030.1,404.2 1030.8,404.2 1031.5,404.2 1032.3,404.2 1033.0,404.2 1033.7,404.2 1034.4,404.2 1035.1,404.2 1035.9,404.2 1036.6,404.2 1037.3,404.2 1038.0,404.2 1038.8,404.2 1039.5,404.2 1040.2,404.2 1040.9,404.2 1041.6,404.2 1042.4,404.2 1043.1,404.2 1043.8,404.2 1044.5,404.2 1045.2,404.2 1046.0,404.2 1046.7,404.2 1047.4,404.2 1048.1,404.2 1048.8,404.2 1049.6,404.2 1050.3,404.2 1051.0,404.2 1051.7,404.2 1052.4,404.2 1053.2,404.2 1053.9,404.2 1054.6,404.2 1055.3,404.2 1056.1,404.2 1056.8,404.2 1057.5,404.2 1058.2,404.2 1059.0,404.2 1059.7,404.2 1060.4,404.2 1061.1,404.2 1061.8,404.2 1062.6,404.2 1063.3,404.2 1064.0,404.2 1064.7,404.2 1065.4,404.2 1066.2,404.2 1066.9,404.2 1067.6,404.2 1068.3,404.2 1069.0,404.2 1069.8,404.2 1070.5,404.2 1071.2,404.2 1071.9,404.2 1072.7,404.2 1073.4,404.2 1074.1,404.2 1074.8,404.2 1075.5,404.2 1076.3,404.2 1077.0,404.0 1077.7,403.8 1078.4,403.7 1079.1,403.7 1079.9,403.6 1080.6,402.3 1081.3,403.6 1082.0,404.2 1082.7,404.3 1083.5,404.4 1084.2,404.4 1084.9,404.4 1085.6,404.4 1086.3,404.4 1087.1,404.4 1087.8,404.4 1088.5,404.4 1089.2,404.4 1090.0,404.4 1090.7,404.4 1091.4,404.4 1092.1,404.4 1092.9,404.4 1093.6,404.4 1094.3,404.4 1095.0,404.4" fill="none" stroke="#3498db" stroke-width="4" stroke-linecap="round" stroke-linejoin="round" />
<polyline points="60.0,404.2 64.7,404.2 75.2,404.2 106.8,404.2 109.5,404.0 110.4,403.2 110.8,402.5 111.1,399.9 111.5,402.0 113.5,402.7 114.2,402.9 115.1,402.8 115.5,403.1 115.8,404.1 116.2,401.4 116.5,402.2 117.1,403.7 119.2,403.0 121.2,403.2 123.2,404.2 123.6,401.2 124.3,401.9 127.9,402.0 130.5,401.2 130.8,401.0 131.2,400.7 131.5,401.3 131.9,398.6 132.2,400.6 134.6,400.7 135.1,400.1 135.7,400.5 136.0,400.5 136.6,399.3 138.5,397.1 138.9,62.1 149.0,69.9 159.6,69.7 170.1,74.9 180.7,72.9 187.7,79.6 191.2,77.9 201.8,77.1 207.9,394.8 210.5,400.5 210.8,400.3 211.2,400.5 212.3,401.0 213.0,400.5 213.4,400.8 213.7,400.4 222.8,400.2 233.4,400.2 236.1,397.9 238.3,400.2 238.8,400.2 239.9,400.5 241.2,400.3 241.7,400.6 243.3,400.6 243.7,400.0 244.1,400.0 253.3,400.2 253.8,399.2 264.3,399.3 264.8,400.0 265.2,400.4 267.0,400.6 267.4,401.0 267.9,400.4 275.6,400.3 276.9,399.8 277.5,398.9 286.1,398.1 288.0,399.9 288.3,400.2 288.9,400.6 290.5,400.8 291.2,400.1 300.4,399.9 300.8,400.5 301.1,398.0 307.2,398.0 311.6,400.1 312.3,400.7 314.1,400.7 314.5,400.6 315.1,400.3 317.7,400.3 324.1,399.8 324.6,398.2 328.3,398.0 335.1,400.3 336.0,400.7 337.6,400.6 338.0,400.0 338.4,400.0 338.8,400.2 347.2,400.1 347.9,400.4 348.3,398.0 348.6,399.0 349.0,399.1 349.6,399.4 349.9,398.9 350.3,399.0 350.6,400.1 359.9,400.2 363.8,400.5 364.4,400.4 365.1,400.0 365.5,400.9 367.4,400.1 368.2,400.2 370.4,400.2 377.0,400.5 377.6,400.2 377.9,398.0 381.0,398.0 388.2,400.2 389.1,400.8 390.7,400.7 391.1,400.0 391.5,400.0 400.7,400.3 401.2,399.7 402.1,398.0 411.7,398.5 412.2,400.0 412.6,400.2 414.6,400.3 415.0,400.3 415.3,400.7 416.0,400.2 423.2,400.2 431.6,399.2 432.5,399.7 433.7,400.1 434.5,399.1 434.8,399.6 442.9,400.2 444.0,400.6 444.8,398.4 454.8,398.0 455.4,400.4 455.8,400.2 456.1,400.7 457.9,400.4 458.3,400.7 458.7,400.4 465.3,400.1 467.9,399.9 468.2,400.0 475.9,398.0 478.9,400.3 479.3,400.0 479.8,400.8 480.9,401.0 481.4,400.6 481.8,400.8 482.2,400.0 486.4,400.3 491.4,399.7 491.7,400.4 494.4,398.6 494.8,399.2 495.2,400.0 495.7,400.9 496.1,401.3 496.4,401.8 496.8,402.1 497.1,403.3 497.5,400.7 497.9,400.6 498.4,400.3 498.8,402.6 499.1,401.8 502.0,402.0 502.6,402.2 504.0,402.5 504.4,403.3 505.1,400.7 506.0,400.0 506.5,402.2 506.9,404.1 507.5,404.2 508.5,403.0 508.9,400.5 509.3,402.7 510.3,404.2 512.1,401.3 512.9,402.0 518.1,402.1 519.2,400.6 519.5,400.2 519.9,401.3 520.3,401.4 520.6,399.5 521.0,400.2 523.3,400.7 523.9,400.1 524.2,400.6 524.6,400.1 525.0,400.0 525.3,401.2 527.8,400.7 528.2,400.2 528.6,400.4 529.5,400.9 531.1,400.6 531.5,400.1 532.2,401.0 539.2,401.0 540.8,400.6 541.2,399.8 541.6,400.0 549.7,399.0 552.2,400.3 552.8,399.8 553.1,400.7 554.8,400.7 555.1,400.0 555.5,400.0 555.9,401.0 564.5,400.5 565.1,400.6 565.4,399.0 570.8,399.0 575.7,399.3 576.4,399.9 576.8,401.0 578.4,400.6 578.8,400.8 579.1,400.0 581.3,401.0 588.2,400.1 588.5,400.1 588.9,399.0 591.2,399.9 591.6,400.6 592.0,401.5 592.3,402.0 592.7,402.6 593.1,402.8 593.8,404.2 594.1,401.0 594.5,401.9 594.9,400.0 595.2,400.8 599.6,402.5 602.4,402.1 605.2,402.2 606.4,401.8 607.0,400.1 607.3,400.8 607.7,400.5 608.2,401.1 610.8,400.7 611.3,400.0 611.7,400.4 612.0,400.1 612.4,400.1 612.7,401.1 614.7,400.4 615.3,400.5 616.5,398.1 616.9,74.2 623.5,76.4 634.1,77.2 644.6,82.0 655.1,83.4 665.7,82.2 676.2,82.7 686.8,86.8 697.3,87.1 707.9,87.3 718.4,87.6 729.0,89.6 732.5,91.3 739.5,91.0 750.0,91.1 760.6,93.1 763.2,329.5 764.8,403.2 771.1,404.2 772.8,403.8 773.3,401.1 775.5,401.3 776.0,402.9 777.1,403.4 777.5,403.2 777.8,403.4 778.7,403.9 779.1,403.5 779.7,401.8 781.1,403.5 781.7,403.4 782.4,404.2 802.7,404.2 813.3,404.2 814.0,403.9 827.3,403.9 855.5,404.2 876.6,404.3 887.1,404.2 971.5,404.2 982.0,404.2 1013.6,404.2 1024.2,404.2 1045.3,404.2 1055.8,404.2 1066.3,404.2 1076.9,404.2 1087.4,404.2 1098.0,404.2 1108.5,404.2 1129.6,404.2 1136.4,403.9 1136.7,400.4 1137.1,402.2 1138.2,404.0 1140.0,404.4" fill="none" stroke="#f39c12" stroke-width="3" stroke-linecap="round" stroke-linejoin="round" />
<!-- Legend -->
<line x1="60" y1="476" x2="92" y2="476" stroke="#3498db" stroke-width="4" />
<text x="102" y="482" fill="#aaa" font-size="22">★ 45-65 Grad</text>
<line x1="420" y1="476" x2="452" y2="476" stroke="#f39c12" stroke-width="3" />
<text x="462" y="482" fill="#aaa" font-size="22">This cycle (actual)</text>
</svg>