<svg xmlns="http://www.w3.org/2000/svg" viewBox="0 0 1200 506" style="background-color: #1c1c1c; font-family: sans-serif;">
<rect x="0" y="0" width="1200" height="450" fill="#1c1c1c" />
<line x1="60" y1="405" x2="1140" y2="405" stroke="#444" stroke-width="2" />
<line x1="60" y1="45" x2="60" y2="405" stroke="#444" stroke-width="2" />
<text x="60" y="30" fill="#aaa" font-size="20">2157W</text>
<text x="1140" y="440" fill="#aaa" font-size="20" text-anchor="middle">119m</text>
<text x="600" y="30" fill="#fff" font-size="26" text-anchor="middle" font-weight="bold">Profile Comparison: 45-65 Grad</text>
<polygon points="60.0,404.2 60.6,404.2 61.2,404.2 61.9,404.2 62.5,404.2 63.1,404.2 63.7,404.2 64.3,404.2 65.0,404.2 65.6,404.2 66.2,404.2 66.8,404.2 67.5,404.2 68.1,404.2 68.7,404.2 69.3,404.2 69.9,404.2 70.6,404.2 71.2,404.2 71.8,404.2 72.4,404.2 73.0,404.2 73.7,404.2 74.3,404.2 74.9,404.2 75.5,404.2 76.1,404.2 76.8,404.2 77.4,404.2 78.0,404.2 78.6,404.2 79.3,404.2 79.9,404.2 80.5,404.2 81.1,404.2 81.7,404.2 82.4,404.2 83.0,404.2 83.6,404.2 84.2,404.2 84.8,404.2 85.5,404.2 86.1,404.2 86.7,404.2 87.3,404.2 87.9,404.2 88.6,404.2 89.2,404.2 89.8,404.2 90.4,404.2 91.1,404.2 91.7,404.2 92.3,404.2 92.9,404.2 93.5,404.2 94.2,404.2 94.8,404.2 95.4,404.2 96.0,404.2 96.6,404.2 97.3,404.2 97.9,404.2 98.5,404.2 99.1,404.2 99.7,404.2 100.4,404.2 101.0,404.1 101.6,404.1 102.2,404.0 102.9,403.4 103.5,401.7 104.1,400.3 104.7,401.7 105.3,402.3 106.0,402.5 106.6,402.7 107.2,402.7 107.8,402.7 108.4,401.5 109.1,403.1 109.7,403.5 110.3,403.1 110.9,402.9 111.5,403.0 112.2,403.2 112.8,403.3 113.4,403.3 114.0,403.3 114.7,401.5 115.3,401.7 115.9,401.7 116.5,401.8 117.1,401.8 117.8,401.8 118.4,401.8 119.0,401.8 119.6,401.4 120.2,401.4 120.9,400.8 121.5,400.8 122.1,400.1 122.7,400.3 123.3,400.4 124.0,400.4 124.6,400.2 125.2,400.3 125.8,399.2 126.4,398.7 127.1,339.3 127.7,237.2 128.3,63.6 128.9,67.1 129.5,67.3 130.2,68.2 130.8,68.7 131.4,69.2 132.0,69.8 132.7,70.4 133.3,70.9 133.9,71.4 134.5,72.1 135.1,72.6 135.8,73.1 136.4,73.6 137.0,73.8 137.6,73.8 138.2,73.8 138.9,73.8 139.5,73.8 140.1,73.8 140.7,73.8 141.3,73.8 142.0,73.8 142.6,73.7 143.2,73.7 143.8,73.7 144.4,73.7 145.1,73.7 145.7,73.2 146.3,73.9 146.9,74.3 147.5,74.4 148.2,74.4 148.8,74.4 149.4,74.4 150.0,74.4 150.7,74.4 151.3,74.4 151.9,74.4 152.5,74.4 153.1,74.4 153.8,74.4 154.4,74.4 155.0,74.4 155.6,74.4 156.2,74.4 156.9,74.4 157.5,74.4 158.1,74.4 158.7,74.4 159.3,74.4 160.0,74.4 160.6,74.4 161.2,74.4 161.8,74.4 162.5,74.4 163.1,74.4 163.7,74.4 164.3,74.4 164.9,74.4 165.6,74.4 166.2,74.4 166.8,74.4 167.4,74.4 168.0,74.4 168.7,74.4 169.3,74.4 169.9,74.4 170.5,74.4 171.1,74.4 171.8,74.4 172.4,74.4 173.0,74.4 173.6,74.4 174.3,74.4 174.9,74.4 175.5,74.4 176.1,74.4 176.7,74.4 177.4,74.4 178.0,74.4 178.6,74.4 179.2,74.4 179.8,74.4 180.5,74.4 181.1,74.4 181.7,74.4 182.3,74.4 182.9,129.6 183.6,145.3 184.2,150.2 184.8,150.2 185.4,237.2 186.1,299.7 186.7,349.1 187.3,378.1 187.9,396.5 188.5,398.1 189.2,399.4 189.8,400.1 190.4,400.5 191.0,400.5 191.6,400.5 192.3,400.4 192.9,400.4 193.5,400.4 194.1,400.3 194.7,400.3 195.4,400.3 196.0,400.3 196.6,400.3 197.2,400.3 197.9,400.3 198.5,400.3 199.1,400.3 199.7,400.3 200.3,400.3 201.0,400.3 201.6,400.3 202.2,400.3 202.8,400.3 203.4,400.3 204.1,400.2 204.7,400.2 205.3,400.2 205.9,400.2 206.5,400.2 207.2,400.2 207.8,400.2 208.4,400.2 209.0,400.1 209.7,399.6 210.3,399.0 210.9,398.3 211.5,398.0 212.1,398.5 212.8,398.9 213.4,399.8 214.0,400.1 214.6,400.1 215.2,400.1 215.9,400.0 216.5,400.1 217.1,400.1 217.7,400.1 218.3,400.0 219.0,400.0 219.6,400.1 220.2,400.1 220.8,400.1 221.5,400.1 222.1,400.1 222.7,400.1 223.3,400.1 223.9,400.1 224.6,400.1 225.2,400.1 225.8,400.1 226.4,400.0 227.0,398.1 227.7,398.0 228.3,398.0 228.9,398.0 229.5,398.1 230.1,398.1 230.8,398.1 231.4,398.3 232.0,398.4 232.6,398.4 233.3,398.5 233.9,398.6 234.5,398.6 235.1,398.7 235.7,399.3 236.4,399.9 237.0,400.4 237.6,400.4 238.2,400.4 238.8,400.4 239.5,400.4 240.1,400.4 240.7,400.4 241.3,400.4 241.9,400.3 242.6,400.4 243.2,400.4 243.8,400.4 244.4,400.4 245.1,400.4 245.7,400.2 246.3,399.9 246.9,399.0 247.5,398.3 248.2,398.3 248.8,398.2 249.4,398.3 250.0,398.3 250.6,398.3 251.3,136.1 251.9,77.3 252.5,76.8 253.1,76.4 253.7,75.9 254.4,77.7 255.0,313.9 255.6,399.3 256.2,399.8 256.9,400.2 257.5,400.7 258.1,400.7 258.7,400.4 259.3,400.1 260.0,400.1 260.6,400.1 261.2,400.1 261.8,400.1 262.4,400.1 263.1,400.0 263.7,400.0 264.3,400.0 264.9,400.0 265.5,399.9 266.2,399.9 266.8,399.8 267.4,398.7 268.0,398.0 268.6,398.0 269.3,398.0 269.9,396.7 270.5,396.8 271.1,396.8 271.7,396.9 272.4,396.9 273.0,396.9 273.6,397.0 274.2,397.0 274.9,398.8 275.5,399.4 276.1,399.4 276.7,400.0 277.3,400.6 278.0,400.6 278.6,400.6 279.2,400.5 279.8,400.0 280.4,400.0 281.1,400.0 281.7,400.1 282.3,400.1 282.9,400.1 283.5,400.1 284.2,400.2 284.8,400.0 285.4,400.0 286.0,400.0 286.6,399.8 287.3,399.0 287.9,397.3 288.5,397.3 289.1,397.3 289.8,397.3 290.4,396.5 291.0,396.9 291.6,397.3 292.2,397.7 292.9,398.5 293.5,398.5 294.1,398.5 294.7,399.2 295.3,399.5 296.0,400.0 296.6,400.1 297.2,400.1 297.8,400.1 298.4,400.1 299.1,400.1 299.7,400.1 300.3,400.1 300.9,400.1 301.6,400.1 302.2,400.1 302.8,400.1 303.4,400.1 304.0,400.1 304.7,400.1 305.3,400.1 305.9,400.0 306.5,399.9 307.1,399.8 307.8,399.8 308.4,398.4 309.0,399.0 309.6,396.8 310.2,399.7 310.9,400.1 311.5,400.1 312.1,400.1 312.7,400.1 313.4,400.1 314.0,400.1 314.6,400.1 315.2,400.1 315.8,400.1 316.5,400.1 317.1,400.1 317.7,400.1 318.3,400.2 318.9,400.3 319.6,400.3 320.2,400.3 320.8,400.3 321.4,400.3 322.0,400.3 322.7,399.9 323.3,400.3 323.9,400.3 324.5,400.0 325.2,400.2 325.8,400.2 326.4,400.2 327.0,400.2 327.6,400.2 328.3,400.2 328.9,400.0 329.5,399.9 330.1,400.1 330.7,399.9 331.4,399.8 332.0,399.7 332.6,399.5 333.2,399.4 333.8,397.7 334.5,398.0 335.1,398.1 335.7,397.9 336.3,398.1 337.0,398.2 337.6,398.5 338.2,398.5 338.8,398.7 339.4,398.9 340.1,398.9 340.7,398.9 341.3,399.3 341.9,400.1 342.5,400.1 343.2,400.7 343.8,400.5 344.4,400.4 345.0,400.0 345.6,400.0 346.3,400.0 346.9,400.0 347.5,400.0 348.1,400.0 348.8,400.0 349.4,400.0 350.0,400.0 350.6,400.0 351.2,400.0 351.9,400.0 352.5,400.0 353.1,400.0 353.7,399.2 354.3,397.5 355.0,222.8 355.6,394.8 356.2,394.8 356.8,394.8 357.4,394.8 358.1,394.8 358.7,394.8 359.3,394.8 359.9,394.8 360.6,394.8 361.2,395.2 361.8,395.5 362.4,395.8 363.0,399.3 363.7,400.0 364.3,400.0 364.9,400.0 365.5,400.0 366.1,400.0 366.8,400.0 367.4,400.0 368.0,400.0 368.6,400.0 369.2,400.0 369.9,400.0 370.5,400.0 371.1,400.0 371.7,400.0 372.4,400.0 373.0,399.9 373.6,399.3 374.2,400.0 374.8,399.9 375.5,399.0 376.1,398.9 376.7,399.0 377.3,399.4 377.9,399.4 378.6,399.4 379.2,399.4 379.8,398.1 380.4,399.5 381.0,399.7 381.7,399.7 382.3,399.1 382.9,399.7 383.5,399.7 384.2,399.7 384.8,399.9 385.4,399.9 386.0,399.9 386.6,399.9 387.3,399.9 387.9,399.9 388.5,399.9 389.1,399.9 389.7,399.7 390.4,399.6 391.0,398.4 391.6,398.4 392.2,398.4 392.8,398.4 393.5,398.4 394.1,398.2 394.7,398.1 395.3,398.2 395.9,398.2 396.6,396.0 397.2,395.8 397.8,395.7 398.4,395.5 399.1,395.4 399.7,398.1 400.3,399.1 400.9,399.2 401.5,399.3 402.2,399.4 402.8,399.6 403.4,399.7 404.0,399.8 404.6,399.9 405.3,400.0 405.9,400.0 406.5,400.0 407.1,400.0 407.7,400.0 408.4,400.0 409.0,400.0 409.6,400.0 410.2,399.9 410.8,399.9 411.5,399.9 412.1,399.8 412.7,399.6 413.3,399.2 413.9,398.8 414.6,397.9 415.2,397.9 415.8,397.9 416.4,398.0 417.1,398.1 417.7,396.9 418.3,398.2 418.9,398.7 419.5,398.9 420.2,399.9 420.8,400.1 421.4,400.2 422.0,400.2 422.6,400.2 423.3,400.0 423.9,400.1 424.5,400.1 425.1,400.2 425.7,400.2 426.4,400.2 427.0,400.2 427.6,400.2 428.2,400.2 428.8,400.1 429.5,400.0 430.1,399.9 430.7,399.8 431.3,399.9 432.0,399.9 432.6,399.3 433.2,397.3 433.8,396.6 434.4,399.5 435.1,400.6 435.7,401.7 436.3,402.3 436.9,400.6 437.5,401.9 438.2,401.7 438.8,401.8 439.4,401.9 440.0,401.9 440.6,401.9 441.3,402.2 441.9,402.2 442.5,402.3 443.1,399.5 443.8,399.5 444.4,400.9 445.0,403.0 445.6,403.0 446.2,401.5 446.9,402.6 447.5,403.9 448.1,402.9 448.7,401.8 449.3,401.5 450.0,401.9 450.6,401.8 451.2,401.8 451.8,401.7 452.4,401.6 453.1,401.6 453.7,401.5 454.3,401.5 454.9,401.1 455.6,400.3 456.2,401.3 456.8,400.1 457.4,400.4 458.0,400.5 458.7,400.5 459.3,400.0 459.9,400.0 460.5,400.6 461.1,400.7 461.8,400.7 462.4,400.6 463.0,400.1 463.6,400.6 464.2,400.7 464.9,400.7 465.5,400.6 466.1,400.6 466.7,400.8 467.4,400.8 468.0,400.8 468.6,400.8 469.2,400.8 469.8,400.8 470.5,400.8 471.1,400.8 471.7,400.8 472.3,400.8 472.9,400.7 473.6,400.5 474.2,399.5 474.8,399.5 475.4,399.5 476.0,399.5 476.7,399.1 477.3,399.5 477.9,398.4 478.5,398.0 479.2,398.1 479.8,397.7 480.4,396.8 481.0,398.8 481.6,399.1 482.3,399.4 482.9,399.7 483.5,399.7 484.1,399.7 484.7,400.3 485.4,400.4 486.0,400.4 486.6,400.4 487.2,400.4 487.8,400.4 488.5,400.4 489.1,400.4 489.7,400.4 490.3,400.4 491.0,400.4 491.6,400.4 492.2,400.4 492.8,400.4 493.4,400.4 494.1,400.4 494.7,400.4 495.3,397.7 495.9,396.4 496.5,396.4 497.2,396.4 497.8,396.4 498.4,396.4 499.0,396.4 499.6,396.4 500.3,396.4 500.9,396.4 501.5,396.4 502.1,396.5 502.8,396.5 503.4,396.5 504.0,397.9 504.6,399.9 505.2,400.3 505.9,400.3 506.5,400.3 507.1,400.1 507.7,400.4 508.3,400.4 509.0,400.4 509.6,400.4 510.2,400.4 510.8,400.4 511.4,400.4 512.1,400.4 512.7,400.3 513.3,400.2 513.9,400.1 514.6,399.9 515.2,398.2 515.8,396.5 516.4,397.8 517.0,399.6 517.7,400.8 518.3,401.5 518.9,402.9 519.5,402.9 520.1,399.7 520.8,399.7 521.4,400.8 522.0,400.8 522.6,401.6 523.2,401.6 523.9,402.1 524.5,402.2 525.1,401.9 525.7,402.2 526.4,401.6 527.0,402.1 527.6,402.1 528.2,402.1 528.8,402.1 529.5,402.0 530.1,401.6 530.7,399.2 531.3,400.6 531.9,400.7 532.6,400.7 533.2,400.7 533.8,400.4 534.4,400.1 535.0,400.0 535.7,400.8 536.3,400.8 536.9,400.6 537.5,400.4 538.1,400.1 538.8,264.4 539.4,72.7 540.0,78.3 540.6,78.6 541.3,78.8 541.9,79.1 542.5,79.3 543.1,79.5 543.7,79.7 544.4,79.9 545.0,80.1 545.6,80.3 546.2,80.3 546.8,80.3 547.5,80.5 548.1,80.5 548.7,80.6 549.3,80.6 549.9,80.7 550.6,80.8 551.2,80.8 551.8,80.8 552.4,80.9 553.0,81.0 553.7,81.0 554.3,81.2 554.9,81.5 555.5,81.8 556.1,82.0 556.8,82.5 557.4,82.7 558.0,83.0 558.6,83.3 559.3,83.7 559.9,84.0 560.5,84.3 561.1,84.6 561.7,84.9 562.4,85.3 563.0,85.6 563.6,85.8 564.2,85.8 564.8,85.9 565.5,86.2 566.1,86.2 566.7,86.2 567.3,86.4 567.9,86.4 568.6,86.4 569.2,86.4 569.8,86.4 570.4,86.4 571.0,86.4 571.7,86.4 572.3,86.4 572.9,86.4 573.5,86.4 574.2,86.4 574.8,86.4 575.4,86.4 576.0,86.4 576.6,86.4 577.3,86.4 577.9,86.4 578.5,86.4 579.1,86.3 579.7,86.2 580.4,86.1 581.0,86.1 581.6,86.0 582.2,86.1 582.8,86.1 583.5,86.1 584.1,86.2 584.7,86.2 585.3,86.2 586.0,86.3 586.6,86.3 587.2,86.4 587.8,86.4 588.4,86.4 589.1,86.4 589.7,86.4 590.3,86.5 590.9,86.6 591.5,87.0 592.2,87.3 592.8,87.5 593.4,87.8 594.0,88.0 594.6,88.4 595.3,88.7 595.9,88.8 596.5,89.2 597.1,89.5 597.8,89.7 598.4,90.1 599.0,90.3 599.6,90.6 600.2,90.6 600.9,90.5 601.5,90.6 602.1,90.6 602.7,90.6 603.3,90.6 604.0,90.6 604.6,90.6 605.2,90.6 605.8,90.6 606.4,90.6 607.1,90.8 607.7,90.8 608.3,90.8 608.9,90.8 609.6,90.8 610.2,90.8 610.8,90.9 611.4,90.9 612.0,90.9 612.7,91.0 613.3,91.0 613.9,91.0 614.5,91.0 615.1,91.0 615.8,91.0 616.4,91.0 617.0,91.0 617.6,91.0 618.2,91.0 618.9,91.0 619.5,91.0 620.1,91.0 620.7,91.0 621.4,91.0 622.0,91.0 622.6,91.0 623.2,91.2 623.8,91.2 624.5,91.2 625.1,91.2 625.7,91.3 626.3,91.3 626.9,91.4 627.6,91.5 628.2,91.6 628.8,91.8 629.4,91.9 630.0,92.1 630.7,92.1 631.3,92.3 631.9,92.4 632.5,92.4 633.2,92.4 633.8,92.4 634.4,92.4 635.0,92.4 635.6,92.4 636.3,92.4 636.9,92.4 637.5,92.4 638.1,92.4 638.7,92.4 639.4,92.4 640.0,92.4 640.6,92.4 641.2,92.4 641.8,92.4 642.5,92.4 643.1,92.4 643.7,92.4 644.3,92.4 645.0,92.4 645.6,92.4 646.2,92.4 646.8,92.4 647.4,92.4 648.1,92.4 648.7,92.4 649.3,92.4 649.9,92.4 650.5,92.4 651.2,92.4 651.8,92.4 652.4,92.4 653.0,92.4 653.6,92.4 654.3,92.4 654.9,92.4 655.5,92.4 656.1,92.3 656.8,92.3 657.4,92.2 658.0,92.1 658.6,92.0 659.2,92.0 659.9,92.9 660.5,92.9 661.1,92.9 661.7,92.9 662.3,96.6 663.0,96.6 663.6,109.6 664.2,109.6 664.8,222.9 665.4,319.5 666.1,371.5 666.7,400.6 667.3,401.0 667.9,401.2 668.6,401.5 669.2,401.7 669.8,402.0 670.4,402.2 671.0,402.5 671.7,402.7 672.3,403.0 672.9,403.2 673.5,402.6 674.1,400.4 674.8,400.6 675.4,401.2 676.0,401.4 676.6,402.9 677.2,403.4 677.9,403.3 678.5,403.6 679.1,402.6 679.7,401.7 680.3,402.7 681.0,403.5 681.6,403.9 682.2,404.1 682.8,404.2 683.5,404.2 684.1,404.2 684.7,404.2 685.3,404.2 685.9,404.2 686.6,404.2 687.2,404.2 687.8,404.2 688.4,404.2 689.0,404.2 689.7,404.2 690.3,404.2 690.9,404.2 691.5,404.2 692.1,404.2 692.8,404.2 693.4,404.2 694.0,404.2 694.6,404.2 695.2,404.2 695.9,404.2 696.5,404.2 697.1,404.2 697.7,404.2 698.3,404.2 699.0,404.2 699.6,404.2 700.2,404.2 700.8,404.2 701.5,404.2 702.1,404.2 702.7,404.2 703.3,404.1 703.9,404.1 704.6,404.1 705.2,404.1 705.8,404.1 706.4,404.1 707.0,404.1 707.7,404.1 708.3,404.1 708.9,403.7 709.5,403.3 710.1,403.3 710.8,403.3 711.4,403.3 712.0,403.3 712.6,403.3 713.3,403.3 713.9,403.3 714.5,403.3 715.1,403.3 715.7,403.3 716.4,403.3 717.0,403.3 717.6,403.3 718.2,403.5 718.8,403.7 719.5,403.8 720.1,403.8 720.7,403.8 721.3,403.8 721.9,403.8 722.6,403.9 723.2,403.9 723.8,403.9 724.4,403.9 725.1,403.9 725.7,403.9 726.3,404.0 726.9,404.0 727.5,404.0 728.2,404.0 728.8,404.0 729.4,404.0 730.0,404.0 730.6,404.0 731.3,404.0 731.9,404.0 732.5,404.0 733.1,404.0 733.7,404.0 734.4,404.0 735.0,404.0 735.6,404.0 736.2,404.1 736.9,404.1 737.5,404.1 738.1,404.1 738.7,404.1 739.3,404.2 740.0,404.2 740.6,404.2 741.2,404.2 741.8,404.2 742.4,404.2 743.1,404.2 743.7,404.2 744.3,404.2 744.9,404.2 745.5,404.2 746.2,404.2 746.8,404.2 747.4,404.2 748.0,404.2 748.7,404.2 749.3,404.2 749.9,404.2 750.5,404.2 751.1,404.2 751.8,404.2 752.4,404.2 753.0,404.2 753.6,404.2 754.2,404.2 754.9,404.2 755.5,404.2 756.1,404.2 756.7,404.2 757.3,404.2 758.0,404.2 758.6,404.2 759.2,404.2 759.8,404.2 760.5,404.2 761.1,404.2 761.7,404.2 762.3,404.2 762.9,404.2 763.6,404.2 764.2,404.2 764.8,404.2 765.4,404.2 766.0,404.2 766.7,404.2 767.3,404.2 767.9,404.2 768.5,404.2 769.1,404.2 769.8,404.2 770.4,404.2 771.0,404.2 771.6,404.2 772.3,404.2 772.9,404.2 773.5,404.2 774.1,404.2 774.7,404.2 775.4,404.2 776.0,404.2 776.6,404.2 777.2,404.2 777.8,404.2 778.5,404.2 779.1,404.2 779.7,404.2 780.3,404.2 780.9,404.2 781.6,404.2 782.2,404.2 782.8,404.2 783.4,404.2 784.1,404.2 784.7,404.2 785.3,404.2 785.9,404.2 786.5,404.2 787.2,404.2 787.8,404.2 788.4,404.2 789.0,404.2 789.6,404.2 790.3,404.2 790.9,404.2 791.5,404.2 792.1,404.2 792.7,404.2 793.4,404.2 794.0,404.2 794.6,404.2 795.2,404.2 795.9,404.2 796.5,404.2 797.1,404.2 797.7,404.2 798.3,404.2 799.0,404.2 799.6,404.2 800.2,404.2 800.8,404.2 801.4,404.2 802.1,404.2 802.7,404.2 803.3,404.2 803.9,404.2 804.5,404.2 805.2,404.2 805.8,404.2 806.4,404.2 807.0,404.2 807.7,404.2 808.3,404.2 808.9,404.2 809.5,404.2 810.1,404.2 810.8,404.2 811.4,404.2 812.0,404.2 812.6,404.2 813.2,404.2 813.9,404.2 814.5,404.2 815.1,404.2 815.7,404.2 816.3,404.2 817.0,404.2 817.6,404.2 818.2,404.2 818.8,404.2 819.4,404.2 820.1,404.2 820.7,404.2 821.3,404.2 821.9,404.2 822.5,404.2 823.2,404.2 823.8,404.2 824.4,404.2 825.0,404.2 825.7,404.2 826.3,404.2 826.9,404.2 827.5,404.2 828.1,404.2 828.8,404.2 829.4,404.2 830.0,404.2 830.6,404.2 831.2,404.2 831.9,404.2 832.5,404.2 833.1,404.2 833.7,404.2 834.3,404.2 835.0,404.2 835.6,404.2 836.2,404.2 836.8,404.2 837.4,404.2 838.1,404.2 838.7,404.2 839.3,404.2 839.9,404.2 840.5,404.2 841.2,404.2 841.8,404.2 842.4,404.2 843.0,404.2 843.7,404.2 844.3,404.2 844.9,404.2 845.5,404.2 846.1,404.2 846.8,404.2 847.4,404.2 848.0,404.2 848.6,404.2 849.2,404.2 849.9,404.2 850.5,404.2 851.1,404.2 851.7,404.2 852.3,404.2 853.0,404.2 853.6,404.2 854.2,404.2 854.8,404.2 855.5,404.2 856.1,404.2 856.7,404.2 857.3,404.2 857.9,404.2 858.6,404.2 859.2,404.2 859.8,404.2 860.4,404.2 861.0,404.2 861.7,404.2 862.3,404.2 862.9,404.2 863.5,404.2 864.1,404.2 864.8,404.2 865.4,404.2 866.0,404.2 866.6,404.2 867.3,404.2 867.9,404.2 868.5,404.2 869.1,404.2 869.7,404.2 870.4,404.2 871.0,404.2 871.6,404.2 872.2,404.2 872.8,404.2 873.5,404.2 874.1,404.2 874.7,404.2 875.3,404.2 875.9,404.2 876.6,404.2 877.2,404.2 877.8,404.2 878.4,404.2 879.1,404.2 879.7,404.2 880.3,404.2 880.9,404.2 881.5,404.2 882.2,404.2 882.8,404.2 883.4,404.2 884.0,404.2 884.6,404.2 885.3,404.2 885.9,404.2 886.5,404.2 887.1,404.2 887.7,404.2 888.4,404.2 889.0,404.2 889.6,404.2 890.2,404.2 890.9,404.2 891.5,404.2 892.1,404.2 892.7,404.2 893.3,404.2 894.0,404.2 894.6,404.2 895.2,404.2 895.8,404.2 896.4,404.2 897.1,404.2 897.7,404.2 898.3,404.2 898.9,404.2 899.5,404.2 900.2,404.2 900.8,404.2 901.4,404.2 902.0,404.2 902.7,404.2 903.3,404.2 903.9,404.2 904.5,404.2 905.1,404.2 905.8,404.2 906.4,404.2 907.0,404.2 907.6,404.2 908.2,404.2 908.9,404.2 909.5,404.2 910.1,404.2 910.7,404.2 911.3,404.2 912.0,404.2 912.6,404.2 913.2,404.2 913.8,404.2 914.5,404.2 915.1,404.2 915.7,404.2 916.3,404.2 916.9,404.2 917.6,404.2 918.2,404.2 918.8,404.2 919.4,404.2 920.0,404.2 920.7,404.2 921.3,404.2 921.9,404.2 922.5,404.2 923.1,404.2 923.8,404.2 924.4,404.2 925.0,404.2 925.6,404.2 926.3,404.2 926.9,404.2 927.5,404.2 928.1,404.2 928.7,404.2 929.4,404.2 930.0,404.2 930.6,404.2 931.2,404.2 931.8,404.2 932.5,404.2 933.1,404.2 933.7,404.2 934.3,404.2 934.9,404.2 935.6,404.2 936.2,404.2 936.8,404.2 937.4,404.2 938.1,404.2 938.7,404.2 939.3,404.2 939.9,404.2 940.5,404.2 941.2,404.2 941.8,404.2 942.4,404.2 943.0,404.2 943.6,404.2 944.3,404.2 944.9,404.2 945.5,404.2 946.1,404.2 946.7,404.2 947.4,404.2 948.0,404.2 948.6,404.2 949.2,404.2 949.9,404.2 950.5,404.2 951.1,404.2 951.7,404.2 952.3,404.2 953.0,404.2 953.6,404.2 954.2,404.2 954.8,404.2 955.4,404.2 956.1,404.2 956.7,404.2 957.3,404.2 957.9,404.2 958.5,404.2 959.2,404.2 959.8,404.2 960.4,404.2 961.0,404.2 961.6,404.2 962.3,404.2 962.9,404.2 963.5,404.2 964.1,404.2 964.7,404.2 965.4,404.2 966.0,404.2 966.6,404.2 967.2,404.2 967.9,404.2 968.5,404.2 969.1,404.2 969.7,404.2 970.3,404.2 971.0,404.2 971.6,404.2 972.2,404.2 972.8,404.2 973.4,404.2 974.1,404.2 974.7,404.2 975.3,404.2 975.9,404.2 976.5,404.2 977.2,404.2 977.8,404.2 978.4,404.2 979.0,404.2 979.6,404.2 980.3,404.2 980.9,404.2 981.5,404.2 982.1,404.2 982.7,404.1 983.4,404.0 984.0,404.0 984.6,404.0 985.2,404.0 985.9,403.9 986.5,403.4 987.1,400.8 987.7,402.7 988.3,403.9 989.0,404.3 989.6,404.4 989.6,404.5 989.0,404.4 988.3,404.3 987.7,403.7 987.1,402.6 986.5,403.8 985.9,404.1 985.2,404.1 984.6,404.1 984.0,404.1 983.4,404.1 982.7,404.2 982.1,404.2 981.5,404.2 980.9,404.2 980.3,404.2 979.6,404.2 979.0,404.2 978.4,404.2 977.8,404.2 977.2,404.2 976.5,404.2 975.9,404.2 975.3,404.2 974.7,404.2 974.1,404.2 973.4,404.2 972.8,404.2 972.2,404.2 971.6,404.2 971.0,404.2 970.3,404.2 969.7,404.2 969.1,404.2 968.5,404.2 967.9,404.2 967.2,404.2 966.6,404.2 966.0,404.2 965.4,404.2 964.7,404.2 964.1,404.2 963.5,404.2 962.9,404.2 962.3,404.2 961.6,404.2 961.0,404.2 960.4,404.2 959.8,404.2 959.2,404.2 958.5,404.2 957.9,404.2 957.3,404.2 956.7,404.2 956.1,404.2 955.4,404.2 954.8,404.2 954.2,404.2 953.6,404.2 953.0,404.2 952.3,404.2 951.7,404.2 951.1,404.2 950.5,404.2 949.9,404.2 949.2,404.2 948.6,404.2 948.0,404.2 947.4,404.2 946.7,404.2 946.1,404.2 945.5,404.2 944.9,404.2 944.3,404.2 943.6,404.2 943.0,404.2 942.4,404.2 941.8,404.2 941.2,404.2 940.5,404.2 939.9,404.2 939.3,404.2 938.7,404.2 938.1,404.2 937.4,404.2 936.8,404.2 936.2,404.2 935.6,404.2 934.9,404.2 934.3,404.2 933.7,404.2 933.1,404.2 932.5,404.2 931.8,404.2 931.2,404.2 930.6,404.2 930.0,404.2 929.4,404.2 928.7,404.2 928.1,404.2 927.5,404.2 926.9,404.2 926.3,404.2 925.6,404.2 925.0,404.2 924.4,404.2 923.8,404.2 923.1,404.2 922.5,404.2 921.9,404.2 921.3,404.2 920.7,404.2 920.0,404.2 919.4,404.2 918.8,404.2 918.2,404.2 917.6,404.2 916.9,404.2 916.3,404.2 915.7,404.2 915.1,404.2 914.5,404.2 913.8,404.2 913.2,404.2 912.6,404.2 912.0,404.2 911.3,404.2 910.7,404.2 910.1,404.2 909.5,404.2 908.9,404.2 908.2,404.2 907.6,404.2 907.0,404.2 906.4,404.2 905.8,404.2 905.1,404.2 904.5,404.2 903.9,404.2 903.3,404.2 902.7,404.2 902.0,404.2 901.4,404.2 900.8,404.2 900.2,404.2 899.5,404.2 898.9,404.2 898.3,404.2 897.7,404.2 897.1,404.2 896.4,404.2 895.8,404.2 895.2,404.2 894.6,404.2 894.0,404.2 893.3,404.2 892.7,404.2 892.1,404.2 891.5,404.2 890.9,404.2 890.2,404.2 889.6,404.2 889.0,404.2 888.4,404.2 887.7,404.2 887.1,404.2 886.5,404.2 885.9,404.2 885.3,404.2 884.6,404.2 884.0,404.2 883.4,404.2 882.8,404.2 882.2,404.2 881.5,404.2 880.9,404.2 880.3,404.2 879.7,404.2 879.1,404.2 878.4,404.2 877.8,404.2 877.2,404.2 876.6,404.2 875.9,404.2 875.3,404.2 874.7,404.2 874.1,404.2 873.5,404.2 872.8,404.2 872.2,404.2 871.6,404.2 871.0,404.2 870.4,404.2 869.7,404.2 869.1,404.2 868.5,404.2 867.9,404.2 867.3,404.2 866.6,404.2 866.0,404.2 865.4,404.2 864.8,404.2 864.1,404.2 863.5,404.2 862.9,404.2 862.3,404.2 861.7,404.2 861.0,404.2 860.4,404.2 859.8,404.2 859.2,404.2 858.6,404.2 857.9,404.2 857.3,404.2 856.7,404.2 856.1,404.2 855.5,404.2 854.8,404.2 854.2,404.2 853.6,404.2 853.0,404.2 852.3,404.2 851.7,404.2 851.1,404.2 850.5,404.2 849.9,404.2 849.2,404.2 848.6,404.2 848.0,404.2 847.4,404.2 846.8,404.2 846.1,404.2 845.5,404.2 844.9,404.2 844.3,404.2 843.7,404.2 843.0,404.2 842.4,404.2 841.8,404.2 841.2,404.2 840.5,404.2 839.9,404.2 839.3,404.2 838.7,404.2 838.1,404.2 837.4,404.2 836.8,404.2 836.2,404.2 835.6,404.2 835.0,404.2 834.3,404.2 833.7,404.2 833.1,404.2 832.5,404.2 831.9,404.2 831.2,404.2 830.6,404.2 830.0,404.2 829.4,404.2 828.8,404.2 828.1,404.2 827.5,404.2 826.9,404.2 826.3,404.2 825.7,404.2 825.0,404.2 824.4,404.2 823.8,404.2 823.2,404.2 822.5,404.2 821.9,404.2 821.3,404.2 820.7,404.2 820.1,404.2 819.4,404.2 818.8,404.2 818.2,404.2 817.6,404.2 817.0,404.2 816.3,404.2 815.7,404.2 815.1,404.2 814.5,404.2 813.9,404.2 813.2,404.2 812.6,404.2 812.0,404.2 811.4,404.2 810.8,404.2 810.1,404.2 809.5,404.2 808.9,404.2 808.3,404.2 807.7,404.2 807.0,404.2 806.4,404.2 805.8,404.2 805.2,404.2 804.5,404.2 803.9,404.2 803.3,404.2 802.7,404.2 802.1,404.2 801.4,404.2 800.8,404.2 800.2,404.2 799.6,404.2 799.0,404.2 798.3,404.2 797.7,404.2 797.1,404.2 796.5,404.2 795.9,404.2 795.2,404.2 794.6,404.2 794.0,404.2 793.4,404.2 792.7,404.2 792.1,404.2 791.5,404.2 790.9,404.2 790.3,404.2 789.6,404.2 789.0,404.2 788.4,404.2 787.8,404.2 787.2,404.2 786.5,404.2 785.9,404.2 785.3,404.2 784.7,404.2 784.1,404.2 783.4,404.2 782.8,404.2 782.2,404.2 781.6,404.2 780.9,404.2 780.3,404.2 779.7,404.2 779.1,404.2 778.5,404.2 777.8,404.2 777.2,404.2 776.6,404.2 776.0,404.2 775.4,404.2 774.7,404.2 774.1,404.2 773.5,404.2 772.9,404.2 772.3,404.2 771.6,404.2 771.0,404.2 770.4,404.2 769.8,404.2 769.1,404.2 768.5,404.2 767.9,404.2 767.3,404.3 766.7,404.3 766.0,404.3 765.4,404.3 764.8,404.3 764.2,404.3 763.6,404.3 762.9,404.3 762.3,404.3 761.7,404.3 761.1,404.3 760.5,404.3 759.8,404.3 759.2,404.3 758.6,404.3 758.0,404.3 757.3,404.3 756.7,404.3 756.1,404.3 755.5,404.3 754.9,404.3 754.2,404.3 753.6,404.2 753.0,404.2 752.4,404.2 751.8,404.2 751.1,404.2 750.5,404.2 749.9,404.2 749.3,404.2 748.7,404.2 748.0,404.2 747.4,404.2 746.8,404.2 746.2,404.2 745.5,404.2 744.9,404.2 744.3,404.2 743.7,404.2 743.1,404.2 742.4,404.2 741.8,404.2 741.2,404.2 740.6,404.2 740.0,404.2 739.3,404.2 738.7,404.2 738.1,404.2 737.5,404.2 736.9,404.2 736.2,404.2 735.6,404.2 735.0,404.2 734.4,404.2 733.7,404.1 733.1,404.1 732.5,404.1 731.9,404.1 731.3,404.1 730.6,404.0 730.0,404.0 729.4,404.0 728.8,404.0 728.2,404.0 727.5,404.0 726.9,404.0 726.3,404.0 725.7,404.0 725.1,404.0 724.4,404.0 723.8,404.0 723.2,404.0 722.6,404.0 721.9,403.9 721.3,403.9 720.7,403.9 720.1,403.9 719.5,403.9 718.8,403.9 718.2,403.9 717.6,403.9 717.0,403.9 716.4,403.9 715.7,403.9 715.1,403.9 714.5,403.9 713.9,403.9 713.3,403.9 712.6,403.9 712.0,403.9 711.4,403.9 710.8,403.9 710.1,403.9 709.5,403.9 708.9,404.0 708.3,404.2 707.7,404.2 707.0,404.2 706.4,404.2 705.8,404.2 705.2,404.2 704.6,404.2 703.9,404.2 703.3,404.2 702.7,404.2 702.1,404.2 701.5,404.2 700.8,404.2 700.2,404.2 699.6,404.2 699.0,404.2 698.3,404.2 697.7,404.2 697.1,404.2 696.5,404.2 695.9,404.2 695.2,404.2 694.6,404.2 694.0,404.2 693.4,404.2 692.8,404.2 692.1,404.2 691.5,404.2 690.9,404.2 690.3,404.2 689.7,404.2 689.0,404.2 688.4,404.2 687.8,404.2 687.2,404.2 686.6,404.2 685.9,404.2 685.3,404.2 684.7,404.2 684.1,404.2 683.5,404.2 682.8,404.2 682.2,404.2 681.6,404.1 681.0,403.8 680.3,403.3 679.7,402.6 679.1,404.1 678.5,403.9 677.9,403.6 677.2,403.7 676.6,403.1 676.0,402.7 675.4,401.7 674.8,401.6 674.1,402.2 673.5,403.8 672.9,404.1 672.3,404.2 671.7,404.2 671.0,404.2 670.4,404.0 669.8,404.0 669.2,403.8 668.6,403.8 667.9,403.8 667.3,403.4 666.7,403.2 666.1,401.6 665.4,400.4 664.8,400.4 664.2,220.4 663.6,157.6 663.0,125.1 662.3,112.1 661.7,99.4 661.1,99.4 660.5,99.4 659.9,99.4 659.2,99.4 658.6,96.6 658.0,96.6 657.4,96.6 656.8,96.6 656.1,95.3 655.5,95.2 654.9,95.1 654.3,94.9 653.6,94.9 653.0,94.8 652.4,94.8 651.8,94.8 651.2,94.8 650.5,94.8 649.9,94.8 649.3,94.8 648.7,94.8 648.1,94.8 647.4,94.8 646.8,94.8 646.2,94.8 645.6,94.8 645.0,94.8 644.3,94.8 643.7,94.8 643.1,94.8 642.5,94.9 641.8,94.9 641.2,94.9 640.6,95.0 640.0,95.0 639.4,95.0 638.7,95.0 638.1,94.7 637.5,94.3 636.9,94.0 636.3,93.6 635.6,93.3 635.0,93.2 634.4,93.0 633.8,93.0 633.2,92.8 632.5,92.7 631.9,92.5 631.3,92.4 630.7,92.2 630.0,92.1 629.4,92.0 628.8,94.1 628.2,91.7 627.6,91.6 626.9,91.6 626.3,91.5 625.7,91.5 625.1,91.5 624.5,91.5 623.8,91.5 623.2,91.5 622.6,91.3 622.0,91.3 621.4,91.3 620.7,91.3 620.1,91.3 619.5,91.3 618.9,91.3 618.2,91.1 617.6,91.1 617.0,91.1 616.4,91.0 615.8,91.0 615.1,91.0 614.5,91.0 613.9,91.0 613.3,91.0 612.7,91.0 612.0,91.0 611.4,91.0 610.8,91.0 610.2,91.0 609.6,91.0 608.9,91.0 608.3,91.0 607.7,91.0 607.1,91.0 606.4,90.8 605.8,90.8 605.2,90.8 604.6,90.8 604.0,90.8 603.3,90.8 602.7,90.8 602.1,90.8 601.5,90.7 600.9,90.7 600.2,91.6 599.6,230.9 599.0,139.2 598.4,90.3 597.8,89.9 597.1,89.7 596.5,89.3 595.9,89.0 595.3,89.5 594.6,88.5 594.0,88.2 593.4,88.0 592.8,87.6 592.2,87.5 591.5,87.2 590.9,86.9 590.3,86.7 589.7,86.6 589.1,86.6 588.4,86.6 587.8,86.6 587.2,86.6 586.6,86.6 586.0,86.6 585.3,86.6 584.7,86.6 584.1,86.6 583.5,86.6 582.8,86.6 582.2,86.6 581.6,86.6 581.0,86.6 580.4,86.6 579.7,86.6 579.1,86.6 578.5,86.6 577.9,86.6 577.3,86.6 576.6,86.7 576.0,86.7 575.4,86.8 574.8,86.9 574.2,87.0 573.5,87.1 572.9,87.2 572.3,87.3 571.7,87.2 571.0,87.1 570.4,87.0 569.8,86.9 569.2,86.8 568.6,86.7 567.9,86.6 567.3,86.6 566.7,86.4 566.1,86.3 565.5,86.3 564.8,86.2 564.2,86.0 563.6,86.0 563.0,85.8 562.4,85.4 561.7,85.1 561.1,84.9 560.5,84.5 559.9,84.1 559.3,83.8 558.6,83.5 558.0,83.2 557.4,82.8 556.8,82.7 556.1,82.3 555.5,82.0 554.9,81.6 554.3,81.3 553.7,81.3 553.0,81.3 552.4,81.3 551.8,81.3 551.2,81.4 550.6,81.4 549.9,81.5 549.3,81.5 548.7,81.6 548.1,81.6 547.5,81.7 546.8,81.7 546.2,81.8 545.6,81.8 545.0,81.9 544.4,81.9 543.7,82.0 543.1,82.0 542.5,94.3 541.9,121.8 541.3,149.3 540.6,176.8 540.0,204.3 539.4,231.8 538.8,398.8 538.1,400.6 537.5,400.6 536.9,400.8 536.3,401.1 535.7,401.2 535.0,400.5 534.4,400.2 533.8,401.2 533.2,401.7 532.6,401.3 531.9,401.4 531.3,401.3 530.7,401.5 530.1,402.0 529.5,402.2 528.8,402.2 528.2,402.2 527.6,402.2 527.0,402.2 526.4,402.2 525.7,404.0 525.1,402.5 524.5,403.8 523.9,404.1 523.2,403.1 522.6,402.7 522.0,402.2 521.4,401.6 520.8,401.6 520.1,402.0 519.5,403.6 518.9,403.6 518.3,402.5 517.7,401.5 517.0,400.5 516.4,399.6 515.8,399.6 515.2,399.8 514.6,400.3 513.9,400.4 513.3,400.5 512.7,400.6 512.1,400.7 511.4,400.7 510.8,400.8 510.2,400.9 509.6,400.9 509.0,401.1 508.3,400.9 507.7,400.7 507.1,400.7 506.5,400.8 505.9,400.8 505.2,401.0 504.6,400.3 504.0,400.0 503.4,399.4 502.8,399.4 502.1,399.3 501.5,399.2 500.9,399.2 500.3,399.1 499.6,399.1 499.0,399.1 498.4,399.0 497.8,399.0 497.2,399.0 496.5,399.0 495.9,399.0 495.3,399.0 494.7,400.6 494.1,400.6 493.4,400.6 492.8,400.6 492.2,400.7 491.6,400.7 491.0,400.9 490.3,401.0 489.7,401.0 489.1,401.0 488.5,401.0 487.8,401.0 487.2,401.0 486.6,400.7 486.0,400.6 485.4,400.9 484.7,400.8 484.1,400.2 483.5,400.5 482.9,399.9 482.3,399.5 481.6,399.2 481.0,399.3 480.4,399.3 479.8,399.3 479.2,399.5 478.5,399.5 477.9,399.6 477.3,400.0 476.7,400.3 476.0,400.2 475.4,400.2 474.8,400.2 474.2,400.2 473.6,400.7 472.9,401.0 472.3,401.2 471.7,401.2 471.1,401.2 470.5,401.2 469.8,401.2 469.2,401.2 468.6,401.0 468.0,401.1 467.4,401.1 466.7,401.0 466.1,400.8 465.5,400.8 464.9,400.8 464.2,400.9 463.6,400.8 463.0,400.8 462.4,400.8 461.8,401.1 461.1,401.1 460.5,401.2 459.9,400.1 459.3,400.2 458.7,400.7 458.0,400.7 457.4,400.8 456.8,401.0 456.2,402.0 455.6,400.9 454.9,401.4 454.3,402.1 453.7,402.1 453.1,402.1 452.4,402.1 451.8,402.1 451.2,402.0 450.6,402.0 450.0,402.0 449.3,402.0 448.7,402.8 448.1,403.7 447.5,404.2 446.9,403.6 446.2,402.5 445.6,403.8 445.0,404.2 444.4,402.5 443.8,400.2 443.1,401.0 442.5,403.1 441.9,402.9 441.3,402.3 440.6,402.2 440.0,402.0 439.4,402.0 438.8,402.0 438.2,402.0 437.5,402.6 436.9,402.4 436.3,403.6 435.7,402.3 435.1,401.4 434.4,400.6 433.8,398.7 433.2,399.3 432.6,400.2 432.0,400.6 431.3,400.5 430.7,400.5 430.1,400.5 429.5,400.4 428.8,400.4 428.2,400.4 427.6,400.4 427.0,400.4 426.4,400.4 425.7,400.4 425.1,400.5 424.5,400.5 423.9,400.5 423.3,400.5 422.6,400.8 422.0,401.0 421.4,400.9 420.8,400.3 420.2,400.2 419.5,399.5 418.9,399.1 418.3,398.5 417.7,398.3 417.1,398.4 416.4,398.6 415.8,398.8 415.2,398.9 414.6,399.2 413.9,400.3 413.3,400.2 412.7,400.1 412.1,400.1 411.5,400.1 410.8,400.1 410.2,400.2 409.6,400.5 409.0,400.5 408.4,400.5 407.7,400.5 407.1,400.5 406.5,400.5 405.9,400.5 405.3,400.4 404.6,400.4 404.0,400.4 403.4,400.4 402.8,400.9 402.2,400.5 401.5,400.7 400.9,400.8 400.3,400.3 399.7,399.1 399.1,399.0 398.4,398.8 397.8,398.6 397.2,398.6 396.6,398.5 395.9,399.1 395.3,398.4 394.7,398.4 394.1,398.4 393.5,398.5 392.8,398.5 392.2,398.5 391.6,398.8 391.0,399.5 390.4,400.6 389.7,400.3 389.1,400.3 388.5,400.2 387.9,400.2 387.3,400.1 386.6,400.0 386.0,400.0 385.4,400.0 384.8,400.0 384.2,400.0 383.5,400.0 382.9,400.0 382.3,400.0 381.7,400.2 381.0,400.0 380.4,400.0 379.8,400.0 379.2,400.0 378.6,400.0 377.9,400.0 377.3,400.0 376.7,400.0 376.1,400.0 375.5,400.0 374.8,400.3 374.2,400.3 373.6,400.3 373.0,400.3 372.4,400.5 371.7,400.5 371.1,400.5 370.5,400.5 369.9,400.5 369.2,400.5 368.6,400.5 368.0,400.5 367.4,400.5 366.8,400.5 366.1,400.7 365.5,400.4 364.9,400.5 364.3,400.4 363.7,400.4 363.0,399.9 362.4,399.0 361.8,398.8 361.2,398.7 360.6,398.5 359.9,398.4 359.3,398.4 358.7,398.4 358.1,398.4 357.4,398.4 356.8,398.2 356.2,398.2 355.6,398.2 355.0,398.2 354.3,398.6 353.7,400.4 353.1,400.4 352.5,400.6 351.9,400.7 351.2,400.7 350.6,400.6 350.0,400.4 349.4,400.3 348.8,400.3 348.1,400.3 347.5,400.3 346.9,400.4 346.3,400.4 345.6,400.4 345.0,400.4 344.4,400.8 343.8,400.8 343.2,400.7 342.5,400.5 341.9,400.7 341.3,400.5 340.7,399.9 340.1,399.6 339.4,399.6 338.8,399.2 338.2,398.9 337.6,398.6 337.0,398.3 336.3,398.6 335.7,398.8 335.1,398.9 334.5,399.1 333.8,399.2 333.2,400.8 332.6,400.7 332.0,400.9 331.4,400.8 330.7,401.0 330.1,400.6 329.5,400.4 328.9,400.3 328.3,400.3 327.6,400.3 327.0,400.3 326.4,400.3 325.8,400.3 325.2,400.3 324.5,400.3 323.9,400.5 323.3,400.8 322.7,400.4 322.0,400.4 321.4,400.5 320.8,400.5 320.2,400.4 319.6,400.3 318.9,400.3 318.3,400.3 317.7,400.3 317.1,400.3 316.5,400.3 315.8,400.3 315.2,400.3 314.6,400.3 314.0,400.3 313.4,400.3 312.7,400.3 312.1,400.3 311.5,400.3 310.9,400.3 310.2,400.2 309.6,399.7 309.0,399.5 308.4,398.9 307.8,400.5 307.1,400.2 306.5,400.1 305.9,400.2 305.3,400.2 304.7,400.2 304.0,400.2 303.4,400.2 302.8,400.2 302.2,400.2 301.6,400.2 300.9,400.3 300.3,400.3 299.7,400.3 299.1,400.5 298.4,400.7 297.8,400.9 297.2,400.6 296.6,400.4 296.0,400.4 295.3,400.4 294.7,400.4 294.1,399.5 293.5,399.2 292.9,399.2 292.2,398.7 291.6,398.4 291.0,398.2 290.4,398.2 289.8,398.2 289.1,398.3 288.5,398.4 287.9,398.8 287.3,400.6 286.6,400.6 286.0,400.6 285.4,400.6 284.8,400.6 284.2,400.6 283.5,400.6 282.9,400.6 282.3,400.6 281.7,400.6 281.1,400.6 280.4,400.6 279.8,400.6 279.2,400.7 278.6,400.7 278.0,400.8 277.3,400.9 276.7,400.5 276.1,400.2 275.5,400.2 274.9,400.2 274.2,399.2 273.6,398.6 273.0,398.3 272.4,398.2 271.7,398.1 271.1,398.1 270.5,398.1 269.9,398.1 269.3,398.1 268.6,398.6 268.0,398.7 267.4,399.4 266.8,400.2 266.2,400.2 265.5,400.2 264.9,400.2 264.3,400.2 263.7,400.2 263.1,400.2 262.4,400.2 261.8,400.2 261.2,400.3 260.6,400.3 260.0,400.3 259.3,400.3 258.7,400.7 258.1,400.8 257.5,400.9 256.9,400.9 256.2,400.4 255.6,400.3 255.0,398.9 254.4,398.4 253.7,398.3 253.1,398.3 252.5,398.4 251.9,398.8 251.3,398.8 250.6,400.0 250.0,399.4 249.4,399.5 248.8,398.8 248.2,399.0 247.5,399.1 246.9,399.8 246.3,400.4 245.7,400.6 245.1,400.6 244.4,400.5 243.8,400.5 243.2,400.5 242.6,400.7 241.9,400.5 241.3,400.5 240.7,400.6 240.1,400.5 239.5,400.5 238.8,400.7 238.2,403.4 237.6,400.7 237.0,400.9 236.4,400.3 235.7,400.1 235.1,400.1 234.5,400.1 233.9,400.1 233.3,400.1 232.6,400.1 232.0,400.1 231.4,400.1 230.8,400.1 230.1,400.1 229.5,400.1 228.9,400.1 228.3,400.1 227.7,400.1 227.0,400.1 226.4,400.1 225.8,400.2 225.2,400.3 224.6,400.4 223.9,400.3 223.3,400.2 222.7,400.2 222.1,400.2 221.5,400.1 220.8,400.1 220.2,400.1 219.6,400.2 219.0,400.3 218.3,400.4 217.7,400.7 217.1,400.9 216.5,401.0 215.9,400.6 215.2,400.6 214.6,400.8 214.0,401.0 213.4,400.1 212.8,399.5 212.1,399.0 211.5,399.0 210.9,399.0 210.3,399.6 209.7,399.9 209.0,400.4 208.4,400.4 207.8,400.3 207.2,400.3 206.5,400.3 205.9,400.3 205.3,400.3 204.7,400.3 204.1,400.3 203.4,400.4 202.8,400.4 202.2,400.4 201.6,400.4 201.0,400.4 200.3,400.4 199.7,400.4 199.1,400.4 198.5,400.4 197.9,400.4 197.2,400.4 196.6,400.4 196.0,400.4 195.4,400.4 194.7,400.4 194.1,400.4 193.5,400.5 192.9,400.5 192.3,400.5 191.6,400.7 191.0,401.0 190.4,400.8 189.8,400.3 189.2,399.7 188.5,398.9 187.9,398.7 187.3,398.6 186.7,398.4 186.1,398.2 185.4,398.1 184.8,246.1 184.2,214.7 183.6,214.7 182.9,139.3 182.3,106.3 181.7,91.7 181.1,86.8 180.5,86.8 179.8,86.8 179.2,86.8 178.6,86.8 178.0,86.8 177.4,86.8 176.7,86.8 176.1,86.8 175.5,86.8 174.9,86.8 174.3,86.8 173.6,86.8 173.0,86.8 172.4,86.8 171.8,86.8 171.1,86.8 170.5,86.8 169.9,86.8 169.3,86.8 168.7,86.8 168.0,86.8 167.4,86.8 166.8,86.8 166.2,86.8 165.6,86.8 164.9,86.8 164.3,86.8 163.7,86.8 163.1,86.8 162.5,86.8 161.8,86.8 161.2,86.8 160.6,86.8 160.0,86.8 159.3,86.8 158.7,86.8 158.1,86.8 157.5,86.8 156.9,86.8 156.2,86.8 155.6,86.8 155.0,86.8 154.4,86.8 153.8,86.8 153.1,86.8 152.5,86.8 151.9,86.8 151.3,86.8 150.7,86.8 150.0,86.8 149.4,86.8 148.8,86.8 148.2,86.8 147.5,86.8 146.9,86.8 146.3,86.8 145.7,86.8 145.1,86.8 144.4,86.8 143.8,86.8 143.2,86.8 142.6,86.8 142.0,86.8 141.3,86.8 140.7,86.8 140.1,86.8 139.5,86.8 138.9,86.8 138.2,86.8 137.6,86.8 137.0,86.8 136.4,86.8 135.8,86.8 135.1,86.8 134.5,86.8 133.9,86.8 133.3,86.8 132.7,86.8 132.0,86.8 131.4,86.8 130.8,86.8 130.2,86.8 129.5,107.1 128.9,131.8 128.3,172.1 127.7,277.7 127.1,398.8 126.4,400.4 125.8,400.4 125.2,400.7 124.6,400.4 124.0,400.8 123.3,400.8 122.7,400.8 122.1,400.9 121.5,401.6 120.9,401.4 120.2,401.5 119.6,401.6 119.0,402.2 118.4,402.1 117.8,402.1 117.1,402.0 116.5,402.0 115.9,402.0 115.3,402.0 114.7,402.5 114.0,404.1 113.4,403.7 112.8,403.4 112.2,403.3 111.5,403.2 110.9,403.1 110.3,403.8 109.7,404.0 109.1,403.8 108.4,402.7 107.8,404.0 107.2,403.0 106.6,403.0 106.0,402.7 105.3,402.7 104.7,402.2 104.1,401.6 103.5,403.1 102.9,403.7 102.2,404.3 101.6,404.3 101.0,404.3 100.4,404.3 99.7,404.3 99.1,404.3 98.5,404.3 97.9,404.3 97.3,404.3 96.6,404.3 96.0,404.3 95.4,404.3 94.8,404.3 94.2,404.3 93.5,404.3 92.9,404.3 92.3,404.3 91.7,404.3 91.1,404.3 90.4,404.3 89.8,404.3 89.2,404.3 88.6,404.3 87.9,404.3 87.3,404.3 86.7,404.3 86.1,404.3 85.5,404.3 84.8,404.3 84.2,404.3 83.6,404.3 83.0,404.3 82.4,404.3 81.7,404.3 81.1,404.3 80.5,404.3 79.9,404.3 79.3,404.3 78.6,404.3 78.0,404.3 77.4,404.3 76.8,404.3 76.1,404.3 75.5,404.3 74.9,404.3 74.3,404.3 73.7,404.3 73.0,404.3 72.4,404.3 71.8,404.3 71.2,404.3 70.6,404.3 69.9,404.3 69.3,404.3 68.7,404.3 68.1,404.3 67.5,404.3 66.8,404.3 66.2,404.3 65.6,404.3 65.0,404.3 64.3,404.3 63.7,404.3 63.1,404.3 62.5,404.3 61.9,404.3 61.2,404.4 60.6,404.3 60.0,404.3" fill="#3498db" fill-opacity="0.2" stroke="none" />
<polyline points="60.0,404.3 60.6,404.3 61.2,404.3 61.9,404.2 62.5,404.2 63.1,404.2 63.7,404.2 64.3,404.2 65.0,404.2 65.6,404.2 66.2,404.2 66.8,404.2 67.5,404.2 68.1,404.2 68.7,404.2 69.3,404.2 69.9,404.2 70.6,404.2 71.2,404.2 71.8,404.2 72.4,404.2 73.0,404.2 73.7,404.2 74.3,404.2 74.9,404.2 75.5,404.2 76.1,404.2 76.8,404.2 77.4,404.2 78.0,404.2 78.6,404.2 79.3,404.2 79.9,404.2 80.5,404.2 81.1,404.2 81.7,404.2 82.4,404.2 83.0,404.2 83.6,404.2 84.2,404.2 84.8,404.2 85.5,404.2 86.1,404.2 86.7,404.2 87.3,404.2 87.9,404.2 88.6,404.2 89.2,404.2 89.8,404.2 90.4,404.2 91.1,404.2 91.7,404.2 92.3,404.2 92.9,404.2 93.5,404.2 94.2,404.2 94.8,404.2 95.4,404.2 96.0,404.2 96.6,404.2 97.3,404.2 97.9,404.2 98.5,404.2 99.1,404.2 99.7,404.2 100.4,404.2 101.0,404.2 101.6,404.1 102.2,404.1 102.9,403.6 103.5,402.6 104.1,400.8 104.7,402.0 105.3,402.5 106.0,402.6 106.6,402.8 107.2,402.8 107.8,403.2 108.4,402.2 109.1,403.5 109.7,403.7 110.3,403.3 110.9,403.0 111.5,403.1 112.2,403.2 112.8,403.3 113.4,403.5 114.0,403.8 114.7,402.1 115.3,401.8 115.9,401.9 116.5,401.9 117.1,401.9 117.8,402.0 118.4,402.0 119.0,401.9 119.6,401.6 120.2,401.4 120.9,401.1 121.5,401.2 122.1,400.4 122.7,400.5 123.3,400.6 124.0,400.6 124.6,400.3 125.2,400.5 125.8,399.8 126.4,399.4 127.1,381.4 127.7,255.3 128.3,107.4 128.9,91.7 129.5,81.5 130.2,76.8 130.8,75.5 131.4,75.7 132.0,75.9 132.7,76.1 133.3,76.3 133.9,76.5 134.5,76.7 135.1,76.9 135.8,77.1 136.4,77.3 137.0,77.3 137.6,77.3 138.2,77.3 138.9,77.3 139.5,77.3 140.1,77.3 140.7,77.3 141.3,77.3 142.0,77.3 142.6,77.3 143.2,77.3 143.8,77.3 144.4,77.3 145.1,77.3 145.7,77.2 146.3,77.4 146.9,77.6 147.5,77.8 148.2,78.0 148.8,78.1 149.4,78.2 150.0,78.4 150.7,78.5 151.3,78.7 151.9,78.8 152.5,78.9 153.1,79.1 153.8,79.2 154.4,79.2 155.0,79.3 155.6,79.2 156.2,79.2 156.9,79.2 157.5,79.2 158.1,79.1 158.7,79.1 159.3,79.1 160.0,79.1 160.6,79.0 161.2,79.0 161.8,79.0 162.5,78.9 163.1,78.9 163.7,78.9 164.3,79.0 164.9,79.2 165.6,79.5 166.2,79.7 166.8,80.1 167.4,80.4 168.0,80.6 168.7,80.8 169.3,80.9 169.9,81.1 170.5,81.0 171.1,80.9 171.8,80.9 172.4,80.8 173.0,80.7 173.6,80.7 174.3,80.7 174.9,80.7 175.5,80.7 176.1,80.7 176.7,80.7 177.4,80.6 178.0,80.6 178.6,80.6 179.2,80.6 179.8,80.6 180.5,80.6 181.1,80.6 181.7,83.5 182.3,98.2 182.9,133.2 183.6,175.4 184.2,198.7 184.8,217.7 185.4,300.5 186.1,346.8 186.7,377.3 187.3,393.1 187.9,397.7 188.5,398.4 189.2,399.5 189.8,400.2 190.4,400.7 191.0,400.7 191.6,400.6 192.3,400.5 192.9,400.4 193.5,400.4 194.1,400.4 194.7,400.4 195.4,400.4 196.0,400.4 196.6,400.4 197.2,400.3 197.9,400.3 198.5,400.3 199.1,400.3 199.7,400.3 200.3,400.3 201.0,400.3 201.6,400.3 202.2,400.3 202.8,400.3 203.4,400.3 204.1,400.2 204.7,400.2 205.3,400.2 205.9,400.2 206.5,400.2 207.2,400.2 207.8,400.2 208.4,400.2 209.0,400.2 209.7,399.8 210.3,399.3 210.9,398.6 211.5,398.3 212.1,398.7 212.8,399.3 213.4,400.0 214.0,400.4 214.6,400.4 215.2,400.4 215.9,400.3 216.5,400.7 217.1,400.6 217.7,400.5 218.3,400.1 219.0,400.1 219.6,400.1 220.2,400.1 220.8,400.1 221.5,400.1 222.1,400.1 222.7,400.1 223.3,400.2 223.9,400.2 224.6,400.2 225.2,400.2 225.8,400.2 226.4,400.0 227.0,399.2 227.7,399.1 228.3,399.1 228.9,399.1 229.5,399.1 230.1,399.1 230.8,399.1 231.4,399.2 232.0,399.2 232.6,399.3 233.3,399.4 233.9,399.4 234.5,399.5 235.1,399.5 235.7,399.6 236.4,400.1 237.0,400.6 237.6,400.6 238.2,401.2 238.8,400.6 239.5,400.5 240.1,400.5 240.7,400.5 241.3,400.5 241.9,400.4 242.6,400.5 243.2,400.4 243.8,400.4 244.4,400.4 245.1,400.5 245.7,400.3 246.3,400.1 246.9,399.4 247.5,398.8 248.2,398.7 248.8,398.5 249.4,398.8 250.0,398.7 250.6,398.8 251.3,346.0 251.9,334.3 252.5,333.9 253.1,333.9 253.7,333.7 254.4,333.9 255.0,381.7 255.6,399.6 256.2,400.1 256.9,400.5 257.5,400.8 258.1,400.7 258.7,400.6 259.3,400.2 260.0,400.2 260.6,400.1 261.2,400.1 261.8,400.1 262.4,400.1 263.1,400.1 263.7,400.1 264.3,400.1 264.9,400.1 265.5,400.0 266.2,400.0 266.8,400.0 267.4,398.9 268.0,398.2 268.6,398.2 269.3,398.1 269.9,397.8 270.5,397.8 271.1,397.8 271.7,397.8 272.4,397.9 273.0,398.0 273.6,398.2 274.2,398.6 274.9,399.3 275.5,399.8 276.1,399.9 276.7,400.3 277.3,400.7 278.0,400.7 278.6,400.7 279.2,400.6 279.8,400.4 280.4,400.4 281.1,400.4 281.7,400.4 282.3,400.4 282.9,400.3 283.5,400.3 284.2,400.3 284.8,400.2 285.4,400.2 286.0,400.2 286.6,400.1 287.3,399.6 287.9,398.2 288.5,398.1 289.1,398.0 289.8,398.0 290.4,397.8 291.0,397.9 291.6,398.1 292.2,398.4 292.9,398.8 293.5,398.9 294.1,399.2 294.7,399.6 295.3,399.9 296.0,400.2 296.6,400.3 297.2,400.4 297.8,400.7 298.4,400.6 299.1,400.4 299.7,400.2 300.3,400.2 300.9,400.2 301.6,400.2 302.2,400.2 302.8,400.2 303.4,400.2 304.0,400.2 304.7,400.2 305.3,400.1 305.9,400.1 306.5,400.1 307.1,400.1 307.8,400.2 308.4,398.6 309.0,399.3 309.6,398.9 310.2,399.9 310.9,400.2 311.5,400.2 312.1,400.2 312.7,400.2 313.4,400.2 314.0,400.2 314.6,400.2 315.2,400.2 315.8,400.2 316.5,400.2 317.1,400.2 317.7,400.2 318.3,400.3 318.9,400.3 319.6,400.3 320.2,400.4 320.8,400.4 321.4,400.4 322.0,400.3 322.7,400.2 323.3,400.5 323.9,400.4 324.5,400.2 325.2,400.2 325.8,400.2 326.4,400.2 327.0,400.2 327.6,400.2 328.3,400.2 328.9,400.2 329.5,400.2 330.1,400.3 330.7,400.4 331.4,400.3 332.0,400.4 332.6,400.4 333.2,400.2 333.8,398.4 334.5,398.4 335.1,398.4 335.7,398.2 336.3,398.2 337.0,398.3 337.6,398.5 338.2,398.7 338.8,398.9 339.4,399.2 340.1,399.3 340.7,399.5 341.3,399.8 341.9,400.4 342.5,400.4 343.2,400.7 343.8,400.7 344.4,400.6 345.0,400.2 345.6,400.2 346.3,400.2 346.9,400.2 347.5,400.2 348.1,400.2 348.8,400.2 349.4,400.2 350.0,400.2 350.6,400.3 351.2,400.3 351.9,400.3 352.5,400.3 353.1,400.3 353.7,399.8 354.3,398.2 355.0,363.1 355.6,397.5 356.2,397.5 356.8,397.5 357.4,397.6 358.1,397.6 358.7,397.6 359.3,397.6 359.9,397.7 360.6,397.7 361.2,397.9 361.8,398.0 362.4,398.2 363.0,399.5 363.7,400.2 364.3,400.3 364.9,400.3 365.5,400.3 366.1,400.4 366.8,400.3 367.4,400.2 368.0,400.2 368.6,400.2 369.2,400.2 369.9,400.2 370.5,400.2 371.1,400.2 371.7,400.2 372.4,400.2 373.0,400.1 373.6,399.9 374.2,400.1 374.8,400.0 375.5,399.7 376.1,399.6 376.7,399.6 377.3,399.6 377.9,399.6 378.6,399.6 379.2,399.5 379.8,399.2 380.4,399.7 381.0,399.9 381.7,400.0 382.3,399.6 382.9,399.8 383.5,399.8 384.2,399.8 384.8,399.9 385.4,399.9 386.0,400.0 386.6,400.0 387.3,400.0 387.9,400.0 388.5,400.1 389.1,400.1 389.7,400.0 390.4,400.0 391.0,399.1 391.6,398.6 392.2,398.5 392.8,398.4 393.5,398.4 394.1,398.4 394.7,398.3 395.3,398.3 395.9,398.5 396.6,397.8 397.2,397.8 397.8,397.8 398.4,397.9 399.1,398.0 399.7,398.8 400.3,399.7 400.9,400.4 401.5,400.3 402.2,400.3 402.8,400.5 403.4,400.1 404.0,400.2 404.6,400.3 405.3,400.3 405.9,400.3 406.5,400.3 407.1,400.3 407.7,400.2 408.4,400.2 409.0,400.2 409.6,400.2 410.2,400.0 410.8,400.0 411.5,400.0 412.1,399.9 412.7,399.9 413.3,399.6 413.9,399.4 414.6,398.8 415.2,398.7 415.8,398.6 416.4,398.3 417.1,398.3 417.7,397.9 418.3,398.4 418.9,398.9 419.5,399.2 420.2,400.0 420.8,400.2 421.4,400.7 422.0,400.7 422.6,400.6 423.3,400.3 423.9,400.2 424.5,400.3 425.1,400.3 425.7,400.3 426.4,400.3 427.0,400.3 427.6,400.3 428.2,400.2 428.8,400.2 429.5,400.1 430.1,400.1 430.7,400.1 431.3,400.1 432.0,400.2 432.6,399.7 433.2,398.6 433.8,398.2 434.4,400.0 435.1,400.9 435.7,402.0 436.3,402.8 436.9,401.3 437.5,402.1 438.2,401.8 438.8,401.9 439.4,402.0 440.0,402.0 440.6,402.1 441.3,402.3 441.9,402.6 442.5,402.7 443.1,400.4 443.8,400.0 444.4,401.9 445.0,403.8 445.6,403.4 446.2,402.0 446.9,403.0 447.5,404.0 448.1,403.3 448.7,402.2 449.3,401.7 450.0,402.0 450.6,402.0 451.2,402.0 451.8,402.0 452.4,402.0 453.1,402.0 453.7,401.9 454.3,401.8 454.9,401.2 455.6,400.7 456.2,401.5 456.8,400.4 457.4,400.5 458.0,400.6 458.7,400.6 459.3,400.1 459.9,400.0 460.5,400.9 461.1,400.9 461.8,400.9 462.4,400.7 463.0,400.4 463.6,400.7 464.2,400.8 464.9,400.8 465.5,400.7 466.1,400.7 466.7,400.9 467.4,400.9 468.0,400.9 468.6,400.9 469.2,401.0 469.8,401.0 470.5,401.0 471.1,401.0 471.7,401.0 472.3,401.0 472.9,400.9 473.6,400.6 474.2,399.8 474.8,399.9 475.4,399.9 476.0,399.8 476.7,399.7 477.3,399.7 477.9,399.3 478.5,399.2 479.2,399.2 479.8,398.8 480.4,398.6 481.0,399.1 481.6,399.2 482.3,399.5 482.9,399.8 483.5,400.1 484.1,400.0 484.7,400.6 485.4,400.7 486.0,400.5 486.6,400.5 487.2,400.8 487.8,400.8 488.5,400.8 489.1,400.8 489.7,400.8 490.3,400.8 491.0,400.7 491.6,400.6 492.2,400.6 492.8,400.6 493.4,400.6 494.1,400.5 494.7,400.5 495.3,398.5 495.9,398.3 496.5,398.3 497.2,398.3 497.8,398.3 498.4,398.3 499.0,398.3 499.6,398.3 500.3,398.4 500.9,398.6 501.5,398.6 502.1,398.6 502.8,398.7 503.4,398.7 504.0,399.4 504.6,400.1 505.2,400.7 505.9,400.6 506.5,400.6 507.1,400.3 507.7,400.6 508.3,400.7 509.0,400.8 509.6,400.8 510.2,400.7 510.8,400.7 511.4,400.6 512.1,400.5 512.7,400.5 513.3,400.4 513.9,400.3 514.6,400.1 515.2,399.3 515.8,398.8 516.4,399.2 517.0,400.0 517.7,401.2 518.3,402.0 518.9,403.2 519.5,403.3 520.1,401.1 520.8,400.8 521.4,401.2 522.0,401.5 522.6,401.9 523.2,402.4 523.9,402.8 524.5,402.9 525.1,402.3 525.7,402.6 526.4,402.1 527.0,402.2 527.6,402.2 528.2,402.2 528.8,402.2 529.5,402.1 530.1,401.8 530.7,400.8 531.3,400.9 531.9,401.1 532.6,401.0 533.2,401.0 533.8,400.8 534.4,400.2 535.0,400.3 535.7,400.9 536.3,401.0 536.9,400.7 537.5,400.5 538.1,400.4 538.8,337.4 539.4,107.3 540.0,103.5 540.6,98.2 541.3,92.9 541.9,87.6 542.5,82.3 543.1,80.1 543.7,80.2 544.4,80.4 545.0,80.6 545.6,80.6 546.2,80.7 546.8,80.7 547.5,80.8 548.1,80.8 548.7,80.8 549.3,80.8 549.9,80.9 550.6,81.0 551.2,81.0 551.8,81.0 552.4,81.1 553.0,81.1 553.7,81.1 554.3,81.3 554.9,81.5 555.5,81.9 556.1,82.2 556.8,82.5 557.4,82.8 558.0,83.1 558.6,83.4 559.3,83.8 559.9,84.1 560.5,84.4 561.1,84.7 561.7,85.0 562.4,85.4 563.0,85.7 563.6,85.9 564.2,85.9 564.8,86.0 565.5,86.2 566.1,86.2 566.7,86.3 567.3,86.5 567.9,86.5 568.6,86.5 569.2,86.6 569.8,86.6 570.4,86.6 571.0,86.6 571.7,86.6 572.3,86.6 572.9,86.6 573.5,86.6 574.2,86.6 574.8,86.6 575.4,86.6 576.0,86.5 576.6,86.5 577.3,86.5 577.9,86.5 578.5,86.5 579.1,86.5 579.7,86.4 580.4,86.4 581.0,86.4 581.6,86.4 582.2,86.4 582.8,86.4 583.5,86.4 584.1,86.4 584.7,86.4 585.3,86.4 586.0,86.5 586.6,86.5 587.2,86.5 587.8,86.5 588.4,86.5 589.1,86.5 589.7,86.5 590.3,86.6 590.9,86.8 591.5,87.1 592.2,87.4 592.8,87.6 593.4,87.9 594.0,88.1 594.6,88.4 595.3,88.9 595.9,88.9 596.5,89.2 597.1,89.6 597.8,89.8 598.4,90.1 599.0,100.2 599.6,118.6 600.2,90.8 600.9,90.6 601.5,90.6 602.1,90.7 602.7,90.7 603.3,90.7 604.0,90.7 604.6,90.7 605.2,90.7 605.8,90.7 606.4,90.7 607.1,90.9 607.7,90.9 608.3,90.9 608.9,90.9 609.6,90.9 610.2,90.9 610.8,91.0 611.4,91.0 612.0,91.0 612.7,91.0 613.3,91.0 613.9,91.0 614.5,91.0 615.1,91.0 615.8,91.0 616.4,91.0 617.0,91.0 617.6,91.0 618.2,91.0 618.9,91.1 619.5,91.1 620.1,91.1 620.7,91.2 621.4,91.2 622.0,91.2 622.6,91.2 623.2,91.3 623.8,91.3 624.5,91.3 625.1,91.3 625.7,91.4 626.3,91.4 626.9,91.4 627.6,91.6 628.2,91.6 628.8,92.3 629.4,91.9 630.0,92.1 630.7,92.2 631.3,92.4 631.9,92.5 632.5,92.6 633.2,92.7 633.8,92.8 634.4,92.9 635.0,92.9 635.6,93.0 636.3,93.1 636.9,93.2 637.5,93.3 638.1,93.4 638.7,93.5 639.4,93.5 640.0,93.5 640.6,93.5 641.2,93.5 641.8,93.5 642.5,93.5 643.1,93.5 643.7,93.4 644.3,93.4 645.0,93.4 645.6,93.4 646.2,93.4 646.8,93.4 647.4,93.4 648.1,93.4 648.7,93.4 649.3,93.4 649.9,93.4 650.5,93.4 651.2,93.4 651.8,93.4 652.4,93.4 653.0,93.4 653.6,93.4 654.3,93.4 654.9,93.4 655.5,93.4 656.1,93.4 656.8,93.9 657.4,93.9 658.0,93.9 658.6,94.0 659.2,95.4 659.9,96.8 660.5,96.8 661.1,96.9 661.7,96.9 662.3,101.8 663.0,107.0 663.6,144.6 664.2,187.6 664.8,281.3 665.4,366.5 666.1,389.6 666.7,402.2 667.3,402.8 667.9,403.1 668.6,403.2 669.2,403.3 669.8,403.5 670.4,403.6 671.0,403.7 671.7,403.8 672.3,403.9 672.9,403.9 673.5,403.2 674.1,401.3 674.8,401.1 675.4,401.4 676.0,401.9 676.6,403.0 677.2,403.5 677.9,403.5 678.5,403.7 679.1,403.4 679.7,402.1 680.3,403.0 681.0,403.6 681.6,404.0 682.2,404.2 682.8,404.2 683.5,404.2 684.1,404.2 684.7,404.2 685.3,404.2 685.9,404.2 686.6,404.2 687.2,404.2 687.8,404.2 688.4,404.2 689.0,404.2 689.7,404.2 690.3,404.2 690.9,404.2 691.5,404.2 692.1,404.2 692.8,404.2 693.4,404.2 694.0,404.2 694.6,404.2 695.2,404.2 695.9,404.2 696.5,404.2 697.1,404.2 697.7,404.2 698.3,404.2 699.0,404.2 699.6,404.2 700.2,404.2 700.8,404.2 701.5,404.2 702.1,404.2 702.7,404.2 703.3,404.2 703.9,404.2 704.6,404.2 705.2,404.2 705.8,404.2 706.4,404.2 707.0,404.2 707.7,404.2 708.3,404.1 708.9,403.9 709.5,403.6 710.1,403.6 710.8,403.7 711.4,403.7 712.0,403.7 712.6,403.7 713.3,403.7 713.9,403.7 714.5,403.7 715.1,403.7 715.7,403.7 716.4,403.8 717.0,403.8 717.6,403.8 718.2,403.8 718.8,403.8 719.5,403.9 720.1,403.9 720.7,403.9 721.3,403.9 721.9,403.9 722.6,403.9 723.2,403.9 723.8,403.9 724.4,403.9 725.1,404.0 725.7,404.0 726.3,404.0 726.9,404.0 727.5,404.0 728.2,404.0 728.8,404.0 729.4,404.0 730.0,404.0 730.6,404.0 731.3,404.0 731.9,404.0 732.5,404.0 733.1,404.1 733.7,404.1 734.4,404.1 735.0,404.1 735.6,404.1 736.2,404.1 736.9,404.2 737.5,404.2 738.1,404.2 738.7,404.2 739.3,404.2 740.0,404.2 740.6,404.2 741.2,404.2 741.8,404.2 742.4,404.2 743.1,404.2 743.7,404.2 744.3,404.2 744.9,404.2 745.5,404.2 746.2,404.2 746.8,404.2 747.4,404.2 748.0,404.2 748.7,404.2 749.3,404.2 749.9,404.2 750.5,404.2 751.1,404.2 751.8,404.2 752.4,404.2 753.0,404.2 753.6,404.2 754.2,404.2 754.9,404.2 755.5,404.2 756.1,404.2 756.7,404.2 757.3,404.2 758.0,404.2 758.6,404.2 759.2,404.2 759.8,404.2 760.5,404.2 761.1,404.2 761.7,404.2 762.3,404.2 762.9,404.2 763.6,404.2 764.2,404.2 764.8,404.2 765.4,404.2 766.0,404.2 766.7,404.2 767.3,404.2 767.9,404.2 768.5,404.2 769.1,404.2 769.8,404.2 770.4,404.2 771.0,404.2 771.6,404.2 772.3,404.2 772.9,404.2 773.5,404.2 774.1,404.2 774.7,404.2 775.4,404.2 776.0,404.2 776.6,404.2 777.2,404.2 777.8,404.2 778.5,404.2 779.1,404.2 779.7,404.2 780.3,404.2 780.9,404.2 781.6,404.2 782.2,404.2 782.8,404.2 783.4,404.2 784.1,404.2 784.7,404.2 785.3,404.2 785.9,404.2 786.5,404.2 787.2,404.2 787.8,404.2 788.4,404.2 789.0,404.2 789.6,404.2 790.3,404.2 790.9,404.2 791.5,404.2 792.1,404.2 792.7,404.2 793.4,404.2 794.0,404.2 794.6,404.2 795.2,404.2 795.9,404.2 796.5,404.2 797.1,404.2 797.7,404.2 798.3,404.2 799.0,404.2 799.6,404.2 800.2,404.2 800.8,404.2 801.4,404.2 802.1,404.2 802.7,404.2 803.3,404.2 803.9,404.2 804.5,404.2 805.2,404.2 805.8,404.2 806.4,404.2 807.0,404.2 807.7,404.2 808.3,404.2 808.9,404.2 809.5,404.2 810.1,404.2 810.8,404.2 811.4,404.2 812.0,404.2 812.6,404.2 813.2,404.2 813.9,404.2 814.5,404.2 815.1,404.2 815.7,404.2 816.3,404.2 817.0,404.2 817.6,404.2 818.2,404.2 818.8,404.2 819.4,404.2 820.1,404.2 820.7,404.2 821.3,404.2 821.9,404.2 822.5,404.2 823.2,404.2 823.8,404.2 824.4,404.2 825.0,404.2 825.7,404.2 826.3,404.2 826.9,404.2 827.5,404.2 828.1,404.2 828.8,404.2 829.4,404.2 830.0,404.2 830.6,404.2 831.2,404.2 831.9,404.2 832.5,404.2 833.1,404.2 833.7,404.2 834.3,404.2 835.0,404.2 835.6,404.2 836.2,404.2 836.8,404.2 837.4,404.2 838.1,404.2 838.7,404.2 839.3,404.2 839.9,404.2 840.5,404.2 841.2,404.2 841.8,404.2 842.4,404.2 843.0,404.2 843.7,404.2 844.3,404.2 844.9,404.2 845.5,404.2 846.1,404.2 846.8,404.2 847.4,404.2 848.0,404.2 848.6,404.2 849.2,404.2 849.9,404.2 850.5,404.2 851.1,404.2 851.7,404.2 852.3,404.2 853.0,404.2 853.6,404.2 854.2,404.2 854.8,404.2 855.5,404.2 856.1,404.2 856.7,404.2 857.3,404.2 857.9,404.2 858.6,404.2 859.2,404.2 859.8,404.2 860.4,404.2 861.0,404.2 861.7,404.2 862.3,404.2 862.9,404.2 863.5,404.2 864.1,404.2 864.8,404.2 865.4,404.2 866.0,404.2 866.6,404.2 867.3,404.2 867.9,404.2 868.5,404.2 869.1,404.2 869.7,404.2 870.4,404.2 871.0,404.2 871.6,404.2 872.2,404.2 872.8,404.2 873.5,404.2 874.1,404.2 874.7,404.2 875.3,404.2 875.9,404.2 876.6,404.2 877.2,404.2 877.8,404.2 878.4,404.2 879.1,404.2 879.7,404.2 880.3,404.2 880.9,404.2 881.5,404.2 882.2,404.2 882.8,404.2 883.4,404.2 884.0,404.2 884.6,404.2 885.3,404.2 885.9,404.2 886.5,404.2 887.1,404.2 887.7,404.2 888.4,404.2 889.0,404.2 889.6,404.2 890.2,404.2 890.9,404.2 891.5,404.2 892.1,404.2 892.7,404.2 893.3,404.2 894.0,404.2 894.6,404.2 895.2,404.2 895.8,404.2 896.4,404.2 897.1,404.2 897.7,404.2 898.3,404.2 898.9,404.2 899.5,404.2 900.2,404.2 900.8,404.2 901.4,404.2 902.0,404.2 902.7,404.2 903.3,404.2 903.9,404.2 904.5,404.2 905.1,404.2 905.8,404.2 906.4,404.2 907.0,404.2 907.6,404.2 908.2,404.2 908.9,404.2 909.5,404.2 910.1,404.2 910.7,404.2 911.3,404.2 912.0,404.2 912.6,404.2 913.2,404.2 913.8,404.2 914.5,404.2 915.1,404.2 915.7,404.2 916.3,404.2 916.9,404.2 917.6,404.2 918.2,404.2 918.8,404.2 919.4,404.2 920.0,404.2 920.7,404.2 921.3,404.2 921.9,404.2 922.5,404.2 923.1,404.2 923.8,404.2 924.4,404.2 925.0,404.2 925.6,404.2 926.3,404.2 926.9,404.2 927.5,404.2 928.1,404.2 928.7,404.2 929.4,404.2 930.0,404.2 930.6,404.2 931.2,404.2 931.8,404.2 932.5,404.2 933.1,404.2 933.7,404.2 934.3,404.2 934.9,404.2 935.6,404.2 936.2,404.2 936.8,404.2 937.4,404.2 938.1,404.2 938.7,404.2 939.3,404.2 939.9,404.2 940.5,404.2 941.2,404.2 941.8,404.2 942.4,404.2 943.0,404.2 943.6,404.2 944.3,404.2 944.9,404.2 945.5,404.2 946.1,404.2 946.7,404.2 947.4,404.2 948.0,404.2 948.6,404.2 949.2,404.2 949.9,404.2 950.5,404.2 951.1,404.2 951.7,404.2 952.3,404.2 953.0,404.2 953.6,404.2 954.2,404.2 954.8,404.2 955.4,404.2 956.1,404.2 956.7,404.2 957.3,404.2 957.9,404.2 958.5,404.2 959.2,404.2 959.8,404.2 960.4,404.2 961.0,404.2 961.6,404.2 962.3,404.2 962.9,404.2 963.5,404.2 964.1,404.2 964.7,404.2 965.4,404.2 966.0,404.2 966.6,404.2 967.2,404.2 967.9,404.2 968.5,404.2 969.1,404.2 969.7,404.2 970.3,404.2 971.0,404.2 971.6,404.2 972.2,404.2 972.8,404.2 973.4,404.2 974.1,404.2 974.7,404.2 975.3,404.2 975.9,404.2 976.5,404.2 977.2,404.2 977.8,404.2 978.4,404.2 979.0,404.2 979.6,404.2 980.3,404.2 980.9,404.2 981.5,404.2 982.1,404.2 982.7,404.1 983.4,404.1 984.0,404.0 984.6,404.0 985.2,404.0 985.9,404.0 986.5,403.6 987.1,402.0 987.7,403.3 988.3,404.1 989.0,404.3 989.6,404.5" fill="none" stroke="#3498db" stroke-width="4" stroke-linecap="round" stroke-linejoin="round" />
<polyline points="60.0,404.3 69.1,404.2 78.2,404.2 96.3,404.1 99.9,403.9 101.2,403.0 101.6,400.5 102.1,401.6 103.7,402.0 104.4,403.2 105.4,404.1 107.6,403.5 108.2,402.9 108.6,403.8 108.9,404.2 109.3,400.9 109.6,402.8 109.9,403.1 111.7,403.5 113.5,403.2 114.5,403.2 115.0,403.6 115.3,401.4 116.0,401.5 121.4,400.7 121.7,401.3 122.0,401.0 122.3,400.5 122.8,400.7 123.1,400.1 123.5,400.1 125.1,400.4 125.4,399.9 125.8,400.3 126.1,400.0 126.4,400.3 126.7,398.4 128.7,62.3 132.6,66.3 141.7,62.1 150.8,67.8 159.8,67.1 168.9,69.1 178.0,73.9 187.1,72.6 196.1,74.5 198.5,397.9 212.3,399.7 214.2,397.5 214.5,399.4 214.8,399.2 215.6,399.8 216.7,400.3 217.0,399.9 217.3,400.9 218.7,400.5 223.4,400.2 227.1,400.4 227.4,400.4 227.7,398.8 232.4,398.1 236.8,400.1 237.5,400.6 238.9,400.6 239.2,399.9 239.6,399.9 247.5,399.8 247.8,400.5 248.1,398.0 250.6,398.0 257.0,398.5 257.4,400.0 257.9,401.0 259.3,400.5 259.6,400.7 259.9,399.9 267.9,399.7 268.2,400.4 268.8,397.9 277.3,398.8 277.8,399.9 278.1,400.7 279.7,400.2 280.0,400.9 286.9,400.1 288.2,399.7 288.5,399.1 296.0,398.0 297.7,400.4 298.2,399.8 298.5,400.9 299.9,400.5 300.7,400.4 305.0,400.3 307.2,400.1 308.3,400.4 308.6,400.4 308.9,398.6 309.4,399.2 309.8,398.7 310.1,399.5 310.6,400.1 310.9,399.9 314.1,400.1 322.4,400.4 322.7,400.5 323.2,400.2 323.5,399.8 325.4,400.2 325.7,400.6 332.3,400.1 333.9,399.7 334.3,399.7 341.3,398.0 343.4,400.3 343.9,399.8 344.2,400.7 345.6,400.6 346.4,400.4 348.9,400.1 350.4,400.1 354.0,400.4 354.6,399.2 359.5,398.1 363.6,399.5 364.1,400.0 364.4,400.3 365.8,400.6 366.1,400.2 366.4,400.1 366.7,401.1 367.4,400.1 368.6,400.1 380.1,400.4 380.4,400.2 380.7,399.1 381.4,398.8 383.1,399.3 383.4,399.6 386.7,399.2 391.2,400.1 391.6,399.7 391.9,399.7 395.8,397.9 401.1,400.3 401.6,399.8 401.9,400.8 403.3,400.5 403.6,399.9 403.9,399.9 404.9,400.3 410.3,400.1 412.1,400.4 412.5,397.9 413.9,397.9 421.3,398.9 421.8,399.9 422.2,400.9 423.0,400.9 423.6,400.5 423.9,400.9 424.4,400.3 432.0,400.0 432.4,400.2 432.7,397.9 436.4,398.8 436.7,399.3 437.0,400.1 437.3,400.5 437.8,401.3 438.1,401.8 438.4,403.0 438.7,402.1 439.2,401.1 439.8,403.0 440.1,402.5 441.2,401.7 443.1,401.9 443.6,402.2 444.6,403.4 444.9,402.1 445.4,400.8 446.3,400.0 446.8,402.5 448.4,403.1 448.7,400.6 449.0,402.5 449.8,402.7 450.1,404.1 451.5,403.0 452.2,401.9 457.5,401.4 457.8,400.8 458.2,400.4 458.5,401.5 458.8,398.9 459.1,400.5 461.1,400.6 461.7,399.8 462.1,400.5 462.5,400.8 462.8,400.8 464.8,400.5 465.3,398.9 465.6,399.1 466.4,399.6 468.1,399.0 468.4,399.8 474.3,400.1 476.4,400.4 477.0,398.5 477.5,397.9 486.0,399.8 486.5,400.1 486.8,400.4 488.2,400.7 488.5,400.0 488.8,400.0 495.6,400.1 496.7,400.4 497.0,400.4 497.3,397.9 504.7,398.0 506.4,400.2 506.9,399.8 508.5,400.5 509.2,400.0 513.8,400.1 516.9,400.3 517.4,400.4 519.7,398.9 520.0,399.5 520.5,400.4 520.8,401.1 521.1,401.4 521.6,402.1 521.9,403.3 522.2,400.7 522.5,400.6 522.9,400.0 523.2,403.1 523.6,401.7 526.3,401.9 526.7,402.2 527.8,402.6 528.1,403.0 528.4,399.9 528.9,399.3 529.5,400.0 529.8,401.4 530.2,404.2 531.6,403.7 531.9,400.4 532.3,402.7 533.1,402.1 533.7,401.4 536.1,402.1 539.2,401.3 539.5,400.9 539.9,402.1 540.3,399.9 540.6,401.0 540.9,400.2 542.7,400.6 543.4,399.8 543.7,400.6 544.5,401.0 546.2,400.6 546.5,400.3 547.1,400.8 547.9,347.2 550.1,72.7 559.2,68.8 568.2,73.2 577.3,71.3 586.4,76.3 595.5,79.1 604.6,82.5 613.6,81.6 622.7,83.8 629.5,88.1 631.8,84.9 640.8,84.1 649.9,85.5 659.0,91.9 668.1,91.3 677.2,92.4 678.3,111.5 678.6,400.1 679.9,402.1 686.2,404.2 686.9,402.9 687.3,401.9 689.1,401.0 689.4,402.7 690.3,403.3 690.8,403.7 691.8,404.2 692.2,401.8 692.5,401.8 693.3,403.2 693.7,403.6 694.0,403.4 694.8,404.0 695.3,404.2 713.4,404.2 722.0,403.9 733.7,403.9 740.7,404.2 749.7,404.2 795.1,404.2 831.4,404.2 840.5,404.2 867.7,404.2 876.8,404.2 940.4,404.2 949.4,404.2 958.5,404.2 967.6,404.2 976.6,404.2 985.7,404.2 999.5,402.2 1000.0,402.4 1000.6,402.9 1001.1,404.2 1002.6,404.4 1013.0,404.4 1022.0,404.5 1049.2,404.5 1067.4,404.5 1076.5,404.5 1094.6,404.5 1103.7,404.5 1112.8,404.5 1140.0,404.5" fill="none" stroke="#f39c12" stroke-width="3" stroke-linecap="round" stroke-linejoin="round" />
<!-- Legend -->
<line x1="60" y1="476" x2="92" y2="476" stroke="#3498db" stroke-width="4" />
<text x="102" y="482" fill="#aaa" font-size="22">★ 45-65 Grad</text>
<line x1="420" y1="476" x2="452" y2="476" stroke="#f39c12" stroke-width="3" />
<text x="462" y="482" fill="#aaa" font-size="22">This cycle (actual)</text>
</svg>