<svg xmlns="http://www.w3.org/2000/svg" viewBox="0 0 1200 506" style="background-color: #1c1c1c; font-family: sans-serif;">
<rect x="0" y="0" width="1200" height="450" fill="#1c1c1c" />
<line x1="60" y1="405" x2="1140" y2="405" stroke="#444" stroke-width="2" />
<line x1="60" y1="45" x2="60" y2="405" stroke="#444" stroke-width="2" />
<text x="60" y="30" fill="#aaa" font-size="20">2088W</text>
<text x="1140" y="440" fill="#aaa" font-size="20" text-anchor="middle">98m</text>
<text x="600" y="30" fill="#fff" font-size="26" text-anchor="middle" font-weight="bold">Profile Comparison: 45-65 Grad</text>
<polygon points="60.0,404.2 60.8,404.2 61.5,404.2 62.3,404.2 63.0,404.2 63.8,404.2 64.5,404.2 65.3,404.2 66.0,404.1 66.8,404.1 67.5,404.1 68.3,404.1 69.0,404.1 69.8,404.1 70.5,404.1 71.3,404.0 72.0,404.0 72.8,404.0 73.6,403.3 74.3,401.6 75.1,400.1 75.8,401.6 76.6,402.4 77.3,402.7 78.1,403.1 78.8,403.2 79.6,403.3 80.3,403.4 81.1,403.4 81.8,403.3 82.6,402.9 83.3,403.8 84.1,402.2 84.8,403.3 85.6,403.3 86.3,403.3 87.1,403.0 87.9,403.1 88.6,403.2 89.4,403.3 90.1,403.5 90.9,401.4 91.6,401.4 92.4,401.4 93.1,401.6 93.9,401.7 94.6,401.7 95.4,401.7 96.1,401.7 96.9,401.7 97.6,401.3 98.4,400.5 99.1,400.0 99.9,399.9 100.6,400.2 101.4,400.1 102.1,400.1 102.9,400.0 103.6,400.1 104.4,400.5 105.2,399.9 105.9,399.0 106.7,391.8 107.4,254.1 108.2,67.6 108.9,67.7 109.7,67.7 110.4,67.8 111.2,67.9 111.9,68.0 112.7,68.0 113.4,68.1 114.2,68.1 114.9,68.2 115.7,68.3 116.4,68.3 117.2,68.4 117.9,68.5 118.7,68.5 119.4,78.6 120.2,95.6 121.0,111.6 121.7,126.7 122.5,136.7 123.2,141.8 124.0,141.8 124.7,141.8 125.5,141.8 126.2,141.8 127.0,397.8 127.7,397.8 128.5,397.9 129.2,397.9 130.0,397.9 130.7,398.6 131.5,399.2 132.2,399.8 133.0,400.0 133.8,400.4 134.5,400.3 135.3,400.3 136.0,400.1 136.8,400.2 137.5,400.2 138.3,400.2 139.0,400.2 139.8,400.2 140.5,400.2 141.3,400.2 142.0,400.0 142.8,400.0 143.5,399.9 144.3,399.7 145.0,399.7 145.8,399.0 146.6,398.1 147.3,398.0 148.1,398.0 148.8,398.0 149.6,398.0 150.3,397.9 151.1,397.9 151.8,397.9 152.6,398.1 153.3,398.3 154.1,398.7 154.8,398.7 155.6,399.4 156.3,399.6 157.1,399.6 157.8,400.2 158.6,400.6 159.4,400.4 160.1,399.8 160.9,399.8 161.6,400.0 162.4,400.1 163.1,400.2 163.9,400.2 164.6,400.2 165.4,400.1 166.1,400.1 166.9,400.1 167.6,400.1 168.4,400.0 169.1,400.0 169.9,399.8 170.6,399.3 171.4,397.8 172.1,397.8 172.9,397.8 173.6,397.8 174.4,397.8 175.2,397.9 175.9,398.0 176.7,398.1 177.4,398.1 178.2,398.2 178.9,398.3 179.7,398.3 180.4,398.4 181.2,398.5 181.9,399.2 182.7,399.9 183.4,400.0 184.2,400.4 184.9,400.1 185.7,400.1 186.4,400.1 187.2,400.1 187.9,400.1 188.7,400.1 189.4,400.2 190.2,400.2 190.9,400.2 191.7,400.2 192.5,400.2 193.2,400.2 194.0,400.2 194.7,400.2 195.5,400.2 196.2,400.2 197.0,400.2 197.7,400.2 198.5,400.2 199.2,400.2 200.0,400.2 200.7,400.1 201.5,400.1 202.2,400.0 203.0,400.0 203.7,399.9 204.5,399.9 205.3,399.8 206.0,399.8 206.8,399.7 207.5,399.1 208.3,397.8 209.0,397.1 209.8,398.2 210.5,398.9 211.3,399.7 212.0,400.2 212.8,400.2 213.5,400.1 214.3,399.9 215.0,400.6 215.8,400.3 216.5,400.2 217.3,400.4 218.1,399.9 218.8,400.0 219.6,400.1 220.3,400.1 221.1,400.1 221.8,400.1 222.6,400.1 223.3,400.2 224.1,400.2 224.8,400.2 225.6,400.2 226.3,400.2 227.1,399.9 227.8,399.2 228.6,398.3 229.3,397.8 230.1,397.9 230.8,398.1 231.6,398.3 232.4,398.4 233.1,398.6 233.9,398.7 234.6,398.8 235.4,399.0 236.1,399.2 236.9,399.2 237.6,399.2 238.4,399.2 239.1,400.3 239.9,400.5 240.6,400.5 241.4,400.3 242.1,400.2 242.9,400.2 243.6,400.2 244.4,400.0 245.1,400.1 245.9,400.1 246.7,400.1 247.4,400.1 248.2,400.1 248.9,400.1 249.7,400.0 250.4,400.0 251.2,400.1 251.9,398.5 252.7,397.8 253.4,397.8 254.2,397.8 254.9,397.8 255.7,397.8 256.4,397.8 257.2,397.8 257.9,397.8 258.7,397.8 259.4,397.8 260.2,397.8 260.9,397.8 261.7,397.8 262.4,398.9 263.2,399.8 264.0,400.4 264.7,400.6 265.5,400.5 266.2,399.8 267.0,399.9 267.7,399.9 268.5,399.9 269.2,399.9 270.0,399.9 270.7,400.0 271.5,400.0 272.2,400.0 273.0,400.0 273.7,399.9 274.5,399.8 275.2,399.7 276.0,399.9 276.7,399.9 277.5,399.8 278.3,399.7 279.0,399.4 279.8,399.2 280.5,398.9 281.3,398.0 282.0,398.0 282.8,398.0 283.5,398.0 284.3,397.8 285.0,397.9 285.8,398.0 286.5,398.2 287.3,398.3 288.0,400.1 288.8,400.2 289.5,400.2 290.3,400.2 291.1,400.2 291.8,400.2 292.6,400.2 293.3,400.2 294.1,400.2 294.8,400.2 295.6,400.1 296.3,400.1 297.1,400.0 297.8,399.8 298.6,399.8 299.3,399.7 300.1,399.6 300.8,399.2 301.6,399.0 302.3,397.8 303.1,397.8 303.9,397.8 304.6,397.8 305.4,397.8 306.1,397.8 306.9,398.1 307.6,398.2 308.4,398.7 309.1,398.7 309.9,398.7 310.6,399.7 311.4,400.0 312.1,400.1 312.9,400.5 313.6,400.5 314.4,400.4 315.1,400.4 315.9,400.1 316.6,400.1 317.4,400.0 318.2,400.0 318.9,400.0 319.7,400.0 320.4,400.0 321.2,399.9 321.9,399.9 322.7,399.9 323.4,399.9 324.2,399.9 324.9,399.7 325.7,398.6 326.4,398.3 327.2,399.5 327.9,399.7 328.7,399.7 329.4,399.7 330.2,399.8 330.9,399.8 331.7,399.9 332.4,399.9 333.2,399.9 333.9,399.9 334.7,399.9 335.5,399.9 336.2,399.9 337.0,400.0 337.7,400.0 338.5,400.0 339.2,400.0 340.0,400.0 340.7,399.9 341.5,399.9 342.2,399.7 343.0,400.3 343.7,400.6 344.5,400.6 345.2,400.6 346.0,400.6 346.7,400.5 347.5,400.4 348.2,400.3 349.0,400.2 349.7,400.1 350.5,400.0 351.3,399.9 352.0,399.9 352.8,399.8 353.5,399.8 354.3,399.7 355.0,399.7 355.8,399.7 356.5,399.4 357.3,399.1 358.0,397.8 358.8,397.8 359.5,397.8 360.3,397.8 361.0,397.8 361.8,397.8 362.5,398.0 363.3,398.0 364.1,398.0 364.8,398.0 365.6,398.3 366.3,398.4 367.1,398.5 367.8,399.4 368.6,400.2 369.3,400.3 370.1,400.1 370.8,400.4 371.6,400.3 372.3,400.2 373.1,400.2 373.8,400.2 374.6,400.2 375.3,400.2 376.1,400.2 376.9,400.1 377.6,400.1 378.4,400.1 379.1,400.1 379.9,400.0 380.6,399.7 381.4,399.0 382.1,398.5 382.9,398.1 383.6,397.9 384.4,398.1 385.1,398.1 385.9,398.3 386.6,398.4 387.4,398.4 388.1,398.7 388.9,398.7 389.7,398.9 390.4,399.0 391.2,399.1 391.9,399.3 392.7,400.0 393.4,400.5 394.2,400.7 394.9,400.2 395.7,400.8 396.4,400.4 397.2,400.2 397.9,400.2 398.7,400.2 399.4,400.2 400.2,400.2 400.9,400.2 401.7,400.2 402.4,400.2 403.2,400.2 403.9,400.2 404.7,400.2 405.5,400.2 406.2,400.2 407.0,400.2 407.7,400.2 408.5,400.2 409.2,400.1 410.0,400.1 410.7,400.1 411.5,400.0 412.2,399.8 413.0,398.9 413.7,399.6 414.5,399.5 415.2,399.6 416.0,399.1 416.7,399.3 417.5,399.4 418.2,399.5 419.0,399.5 419.7,399.5 420.5,399.5 421.2,399.5 422.0,399.5 422.8,399.5 423.5,399.5 424.3,399.5 425.0,399.5 425.8,399.0 426.5,398.1 427.3,397.9 428.0,397.9 428.8,397.9 429.5,398.1 430.3,398.1 431.0,398.1 431.8,398.1 432.5,398.3 433.3,398.3 434.0,398.3 434.8,398.3 435.6,398.5 436.3,398.5 437.1,398.6 437.8,399.5 438.6,400.6 439.3,400.3 440.1,400.1 440.8,400.2 441.6,400.2 442.3,400.0 443.1,400.0 443.8,400.0 444.6,400.0 445.3,400.0 446.1,400.0 446.8,400.0 447.6,400.0 448.3,400.0 449.1,400.0 449.9,399.7 450.6,399.5 451.4,398.6 452.1,398.6 452.9,398.6 453.6,398.6 454.4,398.6 455.1,398.6 455.9,398.5 456.6,398.4 457.4,397.9 458.1,398.0 458.9,398.0 459.6,397.9 460.4,398.0 461.1,398.5 461.9,399.0 462.7,399.6 463.4,399.9 464.2,400.3 464.9,400.5 465.7,400.5 466.4,400.4 467.2,399.8 467.9,399.9 468.7,399.9 469.4,399.9 470.2,399.9 470.9,399.9 471.7,400.0 472.4,400.0 473.2,400.0 473.9,399.8 474.7,399.7 475.4,399.1 476.2,398.5 477.0,398.5 477.7,398.4 478.5,398.5 479.2,399.5 480.0,400.7 480.7,402.1 481.5,400.4 482.2,400.7 483.0,402.1 483.7,401.8 484.5,401.7 485.2,401.9 486.0,402.1 486.7,402.1 487.5,402.5 488.2,402.3 489.0,399.3 489.7,399.3 490.5,400.7 491.2,403.9 492.0,403.2 492.7,402.1 493.5,402.1 494.3,402.8 495.0,403.9 495.8,402.8 496.5,401.7 497.3,401.8 498.0,401.8 498.8,401.7 499.5,401.4 500.3,401.3 501.0,401.2 501.8,400.9 502.5,400.8 503.3,400.7 504.0,400.5 504.8,401.6 505.5,400.4 506.3,400.1 507.0,400.2 507.8,400.3 508.6,400.0 509.3,400.0 510.1,399.8 510.8,400.5 511.6,400.6 512.3,400.6 513.1,400.4 513.8,399.9 514.6,400.5 515.3,400.5 516.1,400.4 516.8,400.4 517.6,400.5 518.3,400.5 519.1,400.6 519.8,400.6 520.6,400.6 521.4,400.6 522.1,400.7 522.9,400.8 523.6,400.8 524.4,400.8 525.1,400.7 525.9,400.6 526.6,400.4 527.4,399.3 528.1,399.3 528.9,399.3 529.6,399.3 530.4,399.3 531.1,399.3 531.9,399.3 532.6,399.2 533.4,399.1 534.2,399.1 534.9,399.1 535.7,398.8 536.4,398.9 537.2,398.9 537.9,399.3 538.7,399.6 539.4,400.5 540.2,400.6 540.9,400.5 541.7,400.5 542.4,400.6 543.2,400.6 543.9,400.6 544.7,400.6 545.4,400.5 546.2,400.5 546.9,400.5 547.7,400.5 548.5,400.4 549.2,400.4 550.0,400.4 550.7,400.4 551.5,400.3 552.2,398.8 553.0,398.8 553.7,398.8 554.5,398.8 555.2,398.8 556.0,398.8 556.7,398.8 557.5,398.8 558.2,398.8 559.0,398.8 559.7,398.8 560.5,398.8 561.2,399.4 562.0,399.5 562.7,399.7 563.5,399.7 564.2,399.8 565.0,400.4 565.8,400.4 566.5,400.7 567.3,400.9 568.0,400.9 568.8,400.8 569.5,400.8 570.3,400.8 571.0,400.8 571.8,400.7 572.5,400.7 573.3,400.7 574.0,400.6 574.8,400.6 575.5,400.6 576.3,400.4 577.0,399.9 577.8,399.7 578.5,399.4 579.3,399.4 580.0,400.7 580.8,402.1 581.6,403.1 582.3,400.4 583.1,400.7 583.8,401.7 584.6,401.8 585.3,401.9 586.1,402.0 586.8,402.0 587.6,402.1 588.3,402.2 589.1,402.1 589.8,402.1 590.6,402.1 591.3,402.1 592.1,402.0 592.8,401.7 593.6,401.3 594.4,401.0 595.1,400.6 595.9,401.0 596.6,401.0 597.4,400.7 598.1,400.5 598.9,400.5 599.6,400.6 600.4,400.1 601.1,399.8 601.9,400.8 602.6,400.7 603.4,400.3 604.1,386.8 604.9,259.7 605.6,107.1 606.4,62.1 607.2,62.5 607.9,62.9 608.7,63.3 609.4,63.7 610.2,64.1 610.9,64.5 611.7,64.9 612.4,65.2 613.2,65.6 613.9,66.0 614.7,66.3 615.4,66.6 616.2,66.8 616.9,67.0 617.7,67.3 618.4,67.5 619.2,67.8 620.0,68.0 620.7,68.3 621.5,68.5 622.2,68.7 623.0,68.9 623.7,69.2 624.5,69.4 625.2,69.6 626.0,69.9 626.7,70.1 627.5,70.3 628.2,70.5 629.0,70.6 629.7,70.8 630.5,71.0 631.2,71.2 632.0,71.3 632.7,71.5 633.5,71.8 634.2,72.0 635.0,72.0 635.8,72.2 636.5,72.4 637.3,72.5 638.0,72.5 638.8,72.6 639.5,72.6 640.3,72.7 641.0,72.7 641.8,72.8 642.5,72.8 643.3,72.9 644.0,73.0 644.8,73.0 645.5,73.1 646.3,73.1 647.0,73.2 647.8,73.3 648.5,73.3 649.3,73.5 650.0,73.6 650.8,73.7 651.5,73.8 652.3,73.9 653.1,74.0 653.8,74.1 654.6,74.2 655.3,74.3 656.1,74.4 656.8,74.6 657.6,74.7 658.3,74.7 659.1,75.0 659.8,75.2 660.6,75.3 661.3,75.6 662.1,75.8 662.8,76.0 663.6,76.2 664.3,76.3 665.1,76.6 665.8,76.9 666.6,77.0 667.4,77.3 668.1,77.5 668.9,77.6 669.6,77.8 670.4,77.8 671.1,77.8 671.9,77.9 672.6,77.9 673.4,77.9 674.1,77.9 674.9,77.9 675.6,77.9 676.4,78.1 677.1,78.1 677.9,78.1 678.6,78.2 679.4,78.2 680.2,78.2 680.9,78.2 681.7,78.2 682.4,78.2 683.2,78.2 683.9,78.2 684.7,78.2 685.4,78.2 686.2,78.2 686.9,78.2 687.7,78.2 688.4,78.2 689.2,78.2 689.9,78.2 690.7,78.2 691.4,78.0 692.2,78.0 693.0,78.0 693.7,78.0 694.5,78.0 695.2,78.0 696.0,78.1 696.7,78.1 697.5,78.1 698.2,78.1 699.0,78.1 699.7,78.1 700.5,78.1 701.2,78.1 702.0,78.2 702.7,78.4 703.5,78.7 704.2,79.0 705.0,79.3 705.7,79.6 706.5,79.1 707.3,80.2 708.0,80.5 708.8,80.9 709.5,81.2 710.3,81.5 711.0,81.8 711.8,82.1 712.5,82.2 713.3,82.3 714.0,82.3 714.8,82.3 715.5,82.3 716.3,82.3 717.0,82.3 717.8,82.2 718.5,82.1 719.3,82.1 720.0,82.0 720.8,81.9 721.5,81.8 722.3,81.8 723.0,81.7 723.8,81.6 724.6,89.0 725.3,102.4 726.1,115.8 726.8,129.3 727.6,142.7 728.3,156.1 729.1,169.6 729.8,183.0 730.6,196.4 731.3,200.1 732.1,223.3 732.8,231.9 733.6,231.9 734.3,263.6 735.1,371.7 735.8,400.4 736.6,400.6 737.3,400.8 738.1,401.1 738.9,401.3 739.6,401.4 740.4,401.4 741.1,401.4 741.9,402.4 742.6,402.7 743.4,402.9 744.1,403.2 744.9,402.6 745.6,400.2 746.4,400.4 747.1,401.3 747.9,402.6 748.6,403.0 749.4,403.4 750.1,403.3 750.9,403.6 751.7,401.8 752.4,402.6 753.2,402.6 753.9,403.7 754.7,404.0 755.4,404.1 756.2,404.2 756.9,404.2 757.7,404.2 758.4,404.2 759.2,404.2 759.9,404.2 760.7,404.2 761.4,404.2 762.2,404.2 762.9,404.1 763.7,404.1 764.4,404.1 765.2,404.1 766.0,404.1 766.7,404.1 767.5,404.1 768.2,404.1 769.0,404.1 769.7,404.0 770.5,404.0 771.2,404.0 772.0,403.9 772.7,403.9 773.5,403.9 774.2,403.9 775.0,403.9 775.7,403.9 776.5,403.9 777.2,403.9 778.0,403.9 778.8,403.9 779.5,403.9 780.3,403.9 781.0,403.8 781.8,403.8 782.5,403.8 783.3,403.8 784.0,403.8 784.8,403.8 785.5,403.8 786.3,403.8 787.0,403.7 787.8,403.2 788.5,403.6 789.3,403.7 790.0,403.8 790.8,403.9 791.5,403.9 792.3,403.9 793.0,403.9 793.8,404.0 794.5,404.0 795.3,404.0 796.1,404.0 796.8,404.0 797.6,404.0 798.3,404.1 799.1,404.1 799.8,404.2 800.6,404.2 801.3,404.2 802.1,404.2 802.8,404.2 803.6,404.2 804.3,404.2 805.1,404.2 805.8,404.2 806.6,404.2 807.3,404.2 808.1,404.2 808.8,404.2 809.6,404.2 810.3,404.2 811.1,404.2 811.9,404.2 812.6,404.2 813.4,404.2 814.1,404.2 814.9,404.2 815.6,404.2 816.4,404.2 817.1,404.2 817.9,404.2 818.6,404.2 819.4,404.2 820.1,404.2 820.9,404.2 821.6,404.2 822.4,404.2 823.1,404.2 823.9,404.2 824.7,404.2 825.4,404.2 826.2,404.2 826.9,404.2 827.7,404.2 828.4,404.2 829.2,404.2 829.9,404.2 830.7,404.2 831.4,404.2 832.2,404.2 832.9,404.2 833.7,404.2 834.4,404.2 835.2,404.2 835.9,404.2 836.7,404.2 837.5,404.2 838.2,404.2 839.0,404.2 839.7,404.2 840.5,404.2 841.2,404.2 842.0,404.2 842.7,404.2 843.5,404.2 844.2,404.2 845.0,404.2 845.7,404.2 846.5,404.2 847.2,404.2 848.0,404.2 848.7,404.2 849.5,404.2 850.3,404.2 851.0,404.2 851.8,404.2 852.5,404.2 853.3,404.2 854.0,404.2 854.8,404.2 855.5,404.2 856.3,404.2 857.0,404.2 857.8,404.2 858.5,404.2 859.3,404.2 860.0,404.2 860.8,404.2 861.5,404.2 862.3,404.2 863.0,404.2 863.8,404.2 864.5,404.2 865.3,404.2 866.1,404.2 866.8,404.2 867.6,404.2 868.3,404.2 869.1,404.2 869.8,404.2 870.6,404.2 871.3,404.2 872.1,404.2 872.8,404.2 873.6,404.2 874.3,404.2 875.1,404.2 875.8,404.2 876.6,404.2 877.3,404.2 878.1,404.2 878.8,404.2 879.6,404.2 880.3,404.2 881.1,404.2 881.8,404.2 882.6,404.2 883.4,404.2 884.1,404.2 884.9,404.2 885.6,404.2 886.4,404.2 887.1,404.2 887.9,404.2 888.6,404.2 889.4,404.2 890.1,404.2 890.9,404.2 891.6,404.2 892.4,404.2 893.1,404.2 893.9,404.2 894.6,404.2 895.4,404.2 896.1,404.2 896.9,404.2 897.7,404.2 898.4,404.2 899.2,404.2 899.9,404.2 900.7,404.2 901.4,404.2 902.2,404.2 902.9,404.2 903.7,404.2 904.4,404.2 905.2,404.2 905.9,404.2 906.7,404.2 907.4,404.2 908.2,404.2 908.9,404.2 909.7,404.2 910.5,404.2 911.2,404.2 912.0,404.2 912.7,404.2 913.5,404.2 914.2,404.2 915.0,404.2 915.7,404.2 916.5,404.2 917.2,404.2 918.0,404.2 918.7,404.2 919.5,404.2 920.2,404.2 921.0,404.2 921.7,404.2 922.5,404.2 923.3,404.2 924.0,404.2 924.8,404.2 925.5,404.2 926.3,404.2 927.0,404.2 927.8,404.2 928.5,404.2 929.3,404.2 930.0,404.2 930.8,404.2 931.5,404.2 932.3,404.2 933.0,404.2 933.8,404.2 934.5,404.2 935.3,404.2 936.0,404.2 936.8,404.2 937.6,404.2 938.3,404.2 939.1,404.2 939.8,404.2 940.6,404.2 941.3,404.2 942.1,404.2 942.8,404.2 943.6,404.2 944.3,404.2 945.1,404.2 945.8,404.2 946.6,404.2 947.3,404.2 948.1,404.2 948.8,404.2 949.6,404.2 950.3,404.2 951.1,404.2 951.8,404.2 952.6,404.2 953.3,404.2 954.1,404.2 954.9,404.2 955.6,404.2 956.4,404.2 957.1,404.2 957.9,404.2 958.6,404.2 959.4,404.2 960.1,404.2 960.9,404.2 961.6,404.2 962.4,404.2 963.1,404.2 963.9,404.2 964.6,404.2 965.4,404.2 966.1,404.2 966.9,404.2 967.6,404.2 968.4,404.2 969.2,404.2 969.9,404.2 970.7,404.2 971.4,404.2 972.2,404.2 972.9,404.2 973.7,404.2 974.4,404.2 975.2,404.2 975.9,404.2 976.7,404.2 977.4,404.2 978.2,404.2 978.9,404.2 979.7,404.2 980.4,404.2 981.2,404.2 981.9,404.2 982.7,404.2 983.5,404.2 984.2,404.2 985.0,404.2 985.7,404.2 986.5,404.2 987.2,404.2 988.0,404.2 988.7,404.2 989.5,404.2 990.2,404.2 991.0,404.2 991.7,404.2 992.5,404.2 993.2,404.2 994.0,404.2 994.7,404.2 995.5,404.2 996.3,404.2 997.0,404.2 997.8,404.2 998.5,404.2 999.3,404.2 1000.0,404.2 1000.8,404.2 1001.5,404.2 1002.3,404.2 1003.0,404.2 1003.8,404.2 1004.5,404.2 1005.3,404.2 1006.0,404.2 1006.8,404.2 1007.5,404.2 1008.3,404.2 1009.1,404.2 1009.8,404.2 1010.6,404.2 1011.3,404.2 1012.1,404.2 1012.8,404.2 1013.6,404.2 1014.3,404.2 1015.1,404.2 1015.8,404.2 1016.6,404.2 1017.3,404.2 1018.1,404.2 1018.8,404.2 1019.6,404.2 1020.3,404.2 1021.1,404.2 1021.8,404.2 1022.6,404.2 1023.3,404.2 1024.1,404.2 1024.8,404.2 1025.6,404.2 1026.4,404.2 1027.1,404.2 1027.9,404.2 1028.6,404.2 1029.4,404.2 1030.1,404.2 1030.9,404.2 1031.6,404.2 1032.4,404.2 1033.1,404.2 1033.9,404.2 1034.6,404.2 1035.4,404.2 1036.1,404.2 1036.9,404.2 1037.6,404.2 1038.4,404.2 1039.1,404.2 1039.9,404.2 1040.6,404.2 1041.4,404.2 1042.2,404.2 1042.9,404.2 1043.7,404.2 1044.4,404.2 1045.2,404.2 1045.9,404.2 1046.7,404.2 1047.4,404.2 1048.2,404.2 1048.9,404.2 1049.7,404.2 1050.4,404.2 1051.2,404.2 1051.9,404.2 1052.7,404.2 1053.4,404.2 1054.2,404.2 1055.0,404.2 1055.7,404.2 1056.5,404.2 1057.2,404.2 1058.0,404.2 1058.7,404.2 1059.5,404.2 1060.2,404.2 1061.0,404.2 1061.7,404.2 1062.5,404.2 1063.2,404.2 1064.0,404.2 1064.7,404.2 1065.5,404.2 1066.2,404.2 1067.0,404.2 1067.8,404.2 1068.5,404.2 1069.3,404.2 1070.0,404.2 1070.8,404.2 1071.5,404.2 1072.3,404.2 1073.0,404.2 1073.8,404.2 1074.5,404.2 1075.3,404.2 1076.0,404.2 1076.8,404.2 1077.5,404.2 1078.3,404.2 1079.0,404.2 1079.8,404.2 1080.6,404.2 1081.3,404.2 1082.1,404.2 1082.8,404.2 1083.6,404.2 1084.3,404.2 1085.1,404.2 1085.8,404.2 1086.6,404.2 1087.3,404.2 1088.1,404.2 1088.8,404.2 1089.6,404.2 1090.3,404.2 1091.1,404.2 1091.8,404.2 1092.6,404.2 1093.3,404.2 1094.1,404.2 1094.8,404.2 1095.6,404.2 1096.4,404.2 1097.1,404.2 1097.9,404.2 1098.6,404.2 1099.4,404.2 1100.1,404.2 1100.9,404.2 1101.6,404.2 1102.4,404.2 1103.1,404.2 1103.9,404.2 1104.6,404.2 1105.4,404.2 1106.1,404.2 1106.9,404.2 1107.6,404.2 1108.4,404.2 1109.1,404.2 1109.9,404.2 1110.6,404.2 1111.4,404.2 1112.1,404.2 1112.9,404.2 1113.7,404.2 1114.4,404.2 1115.2,404.2 1115.9,404.2 1116.7,404.2 1117.4,404.2 1118.2,404.2 1118.9,404.2 1119.7,404.2 1120.4,404.2 1121.2,404.0 1121.9,403.7 1122.7,403.6 1123.4,403.4 1124.2,403.2 1124.9,401.9 1125.7,403.6 1126.4,404.1 1127.2,404.3 1128.0,404.4 1128.7,404.4 1129.5,404.4 1130.2,404.4 1131.0,404.4 1131.7,404.4 1132.5,404.4 1133.2,404.4 1134.0,404.4 1134.7,404.4 1135.5,404.4 1136.2,404.4 1137.0,404.4 1137.7,404.4 1138.5,404.4 1139.2,404.4 1140.0,404.4 1140.0,404.4 1139.2,404.4 1138.5,404.4 1137.7,404.4 1137.0,404.4 1136.2,404.4 1135.5,404.4 1134.7,404.4 1134.0,404.4 1133.2,404.4 1132.5,404.4 1131.7,404.4 1131.0,404.4 1130.2,404.4 1129.5,404.4 1128.7,404.4 1128.0,404.4 1127.2,404.3 1126.4,404.3 1125.7,403.6 1124.9,402.5 1124.2,403.7 1123.4,403.7 1122.7,403.7 1121.9,403.8 1121.2,404.0 1120.4,404.2 1119.7,404.2 1118.9,404.2 1118.2,404.2 1117.4,404.2 1116.7,404.2 1115.9,404.2 1115.2,404.2 1114.4,404.2 1113.7,404.2 1112.9,404.2 1112.1,404.2 1111.4,404.2 1110.6,404.2 1109.9,404.2 1109.1,404.2 1108.4,404.2 1107.6,404.2 1106.9,404.2 1106.1,404.2 1105.4,404.2 1104.6,404.2 1103.9,404.2 1103.1,404.2 1102.4,404.2 1101.6,404.2 1100.9,404.2 1100.1,404.2 1099.4,404.2 1098.6,404.2 1097.9,404.2 1097.1,404.2 1096.4,404.2 1095.6,404.2 1094.8,404.2 1094.1,404.2 1093.3,404.2 1092.6,404.2 1091.8,404.2 1091.1,404.2 1090.3,404.2 1089.6,404.2 1088.8,404.2 1088.1,404.2 1087.3,404.2 1086.6,404.2 1085.8,404.2 1085.1,404.2 1084.3,404.2 1083.6,404.2 1082.8,404.2 1082.1,404.2 1081.3,404.2 1080.6,404.2 1079.8,404.2 1079.0,404.2 1078.3,404.2 1077.5,404.2 1076.8,404.2 1076.0,404.2 1075.3,404.2 1074.5,404.2 1073.8,404.2 1073.0,404.2 1072.3,404.2 1071.5,404.2 1070.8,404.2 1070.0,404.2 1069.3,404.2 1068.5,404.2 1067.8,404.2 1067.0,404.2 1066.2,404.2 1065.5,404.2 1064.7,404.2 1064.0,404.2 1063.2,404.2 1062.5,404.2 1061.7,404.2 1061.0,404.2 1060.2,404.2 1059.5,404.2 1058.7,404.2 1058.0,404.2 1057.2,404.2 1056.5,404.2 1055.7,404.2 1055.0,404.2 1054.2,404.2 1053.4,404.2 1052.7,404.2 1051.9,404.2 1051.2,404.2 1050.4,404.2 1049.7,404.2 1048.9,404.2 1048.2,404.2 1047.4,404.2 1046.7,404.2 1045.9,404.2 1045.2,404.2 1044.4,404.2 1043.7,404.2 1042.9,404.2 1042.2,404.2 1041.4,404.2 1040.6,404.2 1039.9,404.2 1039.1,404.2 1038.4,404.2 1037.6,404.2 1036.9,404.2 1036.1,404.2 1035.4,404.2 1034.6,404.2 1033.9,404.2 1033.1,404.2 1032.4,404.2 1031.6,404.2 1030.9,404.2 1030.1,404.2 1029.4,404.2 1028.6,404.2 1027.9,404.2 1027.1,404.2 1026.4,404.2 1025.6,404.2 1024.8,404.2 1024.1,404.2 1023.3,404.2 1022.6,404.2 1021.8,404.2 1021.1,404.2 1020.3,404.2 1019.6,404.2 1018.8,404.2 1018.1,404.2 1017.3,404.2 1016.6,404.2 1015.8,404.2 1015.1,404.2 1014.3,404.2 1013.6,404.2 1012.8,404.2 1012.1,404.2 1011.3,404.2 1010.6,404.2 1009.8,404.2 1009.1,404.2 1008.3,404.2 1007.5,404.2 1006.8,404.2 1006.0,404.2 1005.3,404.2 1004.5,404.2 1003.8,404.2 1003.0,404.2 1002.3,404.2 1001.5,404.2 1000.8,404.2 1000.0,404.2 999.3,404.2 998.5,404.2 997.8,404.2 997.0,404.2 996.3,404.2 995.5,404.2 994.7,404.2 994.0,404.2 993.2,404.2 992.5,404.2 991.7,404.2 991.0,404.2 990.2,404.2 989.5,404.2 988.7,404.2 988.0,404.2 987.2,404.2 986.5,404.2 985.7,404.2 985.0,404.2 984.2,404.2 983.5,404.2 982.7,404.2 981.9,404.2 981.2,404.2 980.4,404.2 979.7,404.2 978.9,404.2 978.2,404.2 977.4,404.2 976.7,404.2 975.9,404.2 975.2,404.2 974.4,404.2 973.7,404.2 972.9,404.2 972.2,404.2 971.4,404.2 970.7,404.2 969.9,404.2 969.2,404.2 968.4,404.2 967.6,404.2 966.9,404.2 966.1,404.2 965.4,404.2 964.6,404.2 963.9,404.2 963.1,404.2 962.4,404.2 961.6,404.2 960.9,404.2 960.1,404.2 959.4,404.2 958.6,404.2 957.9,404.2 957.1,404.2 956.4,404.2 955.6,404.2 954.9,404.2 954.1,404.2 953.3,404.2 952.6,404.2 951.8,404.2 951.1,404.2 950.3,404.2 949.6,404.2 948.8,404.2 948.1,404.2 947.3,404.2 946.6,404.2 945.8,404.2 945.1,404.2 944.3,404.2 943.6,404.2 942.8,404.2 942.1,404.2 941.3,404.2 940.6,404.2 939.8,404.2 939.1,404.2 938.3,404.2 937.6,404.2 936.8,404.2 936.0,404.2 935.3,404.2 934.5,404.2 933.8,404.2 933.0,404.2 932.3,404.2 931.5,404.2 930.8,404.2 930.0,404.2 929.3,404.2 928.5,404.2 927.8,404.2 927.0,404.2 926.3,404.2 925.5,404.2 924.8,404.2 924.0,404.2 923.3,404.2 922.5,404.2 921.7,404.2 921.0,404.2 920.2,404.2 919.5,404.2 918.7,404.2 918.0,404.2 917.2,404.2 916.5,404.2 915.7,404.2 915.0,404.2 914.2,404.2 913.5,404.2 912.7,404.2 912.0,404.2 911.2,404.2 910.5,404.2 909.7,404.2 908.9,404.2 908.2,404.2 907.4,404.2 906.7,404.2 905.9,404.2 905.2,404.2 904.4,404.2 903.7,404.2 902.9,404.2 902.2,404.2 901.4,404.2 900.7,404.2 899.9,404.2 899.2,404.2 898.4,404.2 897.7,404.2 896.9,404.2 896.1,404.2 895.4,404.2 894.6,404.2 893.9,404.2 893.1,404.2 892.4,404.2 891.6,404.2 890.9,404.2 890.1,404.2 889.4,404.2 888.6,404.2 887.9,404.2 887.1,404.2 886.4,404.2 885.6,404.2 884.9,404.2 884.1,404.2 883.4,404.2 882.6,404.2 881.8,404.2 881.1,404.2 880.3,404.2 879.6,404.2 878.8,404.2 878.1,404.2 877.3,404.2 876.6,404.2 875.8,404.2 875.1,404.2 874.3,404.2 873.6,404.2 872.8,404.2 872.1,404.2 871.3,404.2 870.6,404.2 869.8,404.2 869.1,404.2 868.3,404.2 867.6,404.2 866.8,404.2 866.1,404.2 865.3,404.2 864.5,404.2 863.8,404.2 863.0,404.2 862.3,404.2 861.5,404.2 860.8,404.2 860.0,404.2 859.3,404.2 858.5,404.2 857.8,404.2 857.0,404.2 856.3,404.2 855.5,404.2 854.8,404.2 854.0,404.2 853.3,404.2 852.5,404.2 851.8,404.2 851.0,404.2 850.3,404.2 849.5,404.2 848.7,404.2 848.0,404.2 847.2,404.2 846.5,404.2 845.7,404.2 845.0,404.2 844.2,404.2 843.5,404.2 842.7,404.2 842.0,404.2 841.2,404.2 840.5,404.2 839.7,404.2 839.0,404.2 838.2,404.2 837.5,404.2 836.7,404.2 835.9,404.2 835.2,404.2 834.4,404.2 833.7,404.2 832.9,404.2 832.2,404.2 831.4,404.2 830.7,404.2 829.9,404.2 829.2,404.2 828.4,404.2 827.7,404.2 826.9,404.2 826.2,404.2 825.4,404.2 824.7,404.2 823.9,404.2 823.1,404.2 822.4,404.2 821.6,404.2 820.9,404.2 820.1,404.2 819.4,404.2 818.6,404.2 817.9,404.2 817.1,404.2 816.4,404.2 815.6,404.2 814.9,404.2 814.1,404.2 813.4,404.2 812.6,404.2 811.9,404.2 811.1,404.2 810.3,404.2 809.6,404.2 808.8,404.2 808.1,404.2 807.3,404.2 806.6,404.2 805.8,404.2 805.1,404.2 804.3,404.2 803.6,404.2 802.8,404.2 802.1,404.2 801.3,404.2 800.6,404.2 799.8,404.2 799.1,404.2 798.3,404.2 797.6,404.1 796.8,404.1 796.1,404.0 795.3,404.0 794.5,404.0 793.8,404.0 793.0,403.9 792.3,403.9 791.5,403.9 790.8,403.9 790.0,403.9 789.3,403.8 788.5,403.8 787.8,403.8 787.0,403.8 786.3,403.8 785.5,403.8 784.8,403.8 784.0,403.8 783.3,403.8 782.5,403.9 781.8,403.9 781.0,403.9 780.3,403.9 779.5,403.9 778.8,403.9 778.0,403.9 777.2,403.9 776.5,403.9 775.7,403.9 775.0,404.0 774.2,404.0 773.5,404.0 772.7,404.0 772.0,404.0 771.2,404.1 770.5,404.1 769.7,404.1 769.0,404.1 768.2,404.1 767.5,404.1 766.7,404.1 766.0,404.1 765.2,404.1 764.4,404.1 763.7,404.1 762.9,404.1 762.2,404.2 761.4,404.2 760.7,404.2 759.9,404.2 759.2,404.2 758.4,404.2 757.7,404.2 756.9,404.2 756.2,404.2 755.4,404.1 754.7,404.1 753.9,403.7 753.2,402.7 752.4,402.8 751.7,402.5 750.9,403.7 750.1,403.4 749.4,403.4 748.6,403.0 747.9,403.0 747.1,401.6 746.4,400.4 745.6,400.5 744.9,402.9 744.1,403.7 743.4,402.9 742.6,402.9 741.9,402.9 741.1,402.1 740.4,401.9 739.6,401.6 738.9,401.4 738.1,401.4 737.3,401.4 736.6,401.4 735.8,401.4 735.1,401.4 734.3,316.7 733.6,250.2 732.8,236.7 732.1,231.9 731.3,209.9 730.6,200.1 729.8,186.9 729.1,173.7 728.3,160.5 727.6,147.3 726.8,134.1 726.1,120.9 725.3,107.7 724.6,94.5 723.8,82.5 723.0,82.5 722.3,82.5 721.5,82.5 720.8,82.4 720.0,82.4 719.3,82.4 718.5,82.4 717.8,82.3 717.0,82.3 716.3,82.3 715.5,82.4 714.8,82.5 714.0,82.6 713.3,82.6 712.5,82.4 711.8,82.1 711.0,81.8 710.3,81.5 709.5,81.2 708.8,80.9 708.0,80.6 707.3,80.2 706.5,79.9 705.7,79.9 705.0,79.3 704.2,79.1 703.5,78.9 702.7,78.5 702.0,78.2 701.2,78.2 700.5,78.2 699.7,78.2 699.0,78.2 698.2,78.2 697.5,78.2 696.7,78.2 696.0,78.2 695.2,78.2 694.5,78.2 693.7,78.2 693.0,78.2 692.2,78.2 691.4,78.2 690.7,78.6 689.9,79.1 689.2,79.0 688.4,79.0 687.7,78.9 686.9,78.8 686.2,78.8 685.4,78.7 684.7,78.6 683.9,78.6 683.2,78.5 682.4,78.4 681.7,78.4 680.9,78.3 680.2,78.2 679.4,78.2 678.6,78.2 677.9,78.2 677.1,78.2 676.4,78.2 675.6,78.0 674.9,78.0 674.1,78.0 673.4,77.9 672.6,77.9 671.9,77.9 671.1,77.9 670.4,77.9 669.6,77.9 668.9,77.7 668.1,77.6 667.4,77.3 666.6,77.1 665.8,77.0 665.1,76.7 664.3,76.5 663.6,76.3 662.8,76.1 662.1,76.0 661.3,75.7 660.6,75.4 659.8,75.3 659.1,75.0 658.3,74.8 657.6,74.7 656.8,74.7 656.1,74.5 655.3,74.4 654.6,74.3 653.8,74.2 653.1,74.1 652.3,74.0 651.5,73.8 650.8,73.7 650.0,73.6 649.3,73.5 648.5,73.4 647.8,73.3 647.0,73.2 646.3,73.1 645.5,73.1 644.8,73.0 644.0,73.0 643.3,73.0 642.5,72.8 641.8,72.8 641.0,72.7 640.3,72.7 639.5,72.6 638.8,72.6 638.0,72.6 637.3,72.5 636.5,72.5 635.8,72.3 635.0,72.1 634.2,72.0 633.5,71.8 632.7,71.6 632.0,71.4 631.2,71.3 630.5,71.1 629.7,70.8 629.0,70.7 628.2,70.6 627.5,70.3 626.7,70.1 626.0,69.9 625.2,69.7 624.5,69.5 623.7,69.3 623.0,69.0 622.2,68.8 621.5,68.5 620.7,68.3 620.0,68.0 619.2,67.8 618.4,67.5 617.7,67.3 616.9,67.2 616.2,67.2 615.4,67.2 614.7,67.2 613.9,67.2 613.2,67.2 612.4,67.2 611.7,67.2 610.9,67.2 610.2,67.2 609.4,67.2 608.7,67.2 607.9,67.2 607.2,67.2 606.4,67.2 605.6,160.2 604.9,276.6 604.1,400.1 603.4,400.4 602.6,400.7 601.9,401.1 601.1,400.3 600.4,400.2 599.6,401.7 598.9,400.6 598.1,400.7 597.4,400.8 596.6,401.1 595.9,401.3 595.1,401.0 594.4,401.0 593.6,401.3 592.8,401.7 592.1,402.1 591.3,402.1 590.6,402.1 589.8,402.1 589.1,402.1 588.3,402.3 587.6,402.5 586.8,402.7 586.1,402.8 585.3,402.9 584.6,403.1 583.8,402.7 583.1,401.5 582.3,401.9 581.6,403.2 580.8,402.4 580.0,401.4 579.3,399.8 578.5,399.4 577.8,399.7 577.0,400.1 576.3,400.4 575.5,400.6 574.8,400.6 574.0,400.7 573.3,400.8 572.5,400.8 571.8,400.8 571.0,400.8 570.3,400.8 569.5,400.8 568.8,400.8 568.0,401.0 567.3,400.9 566.5,400.8 565.8,400.5 565.0,400.4 564.2,400.3 563.5,399.8 562.7,399.8 562.0,399.8 561.2,399.8 560.5,399.2 559.7,399.0 559.0,398.8 558.2,398.8 557.5,398.8 556.7,398.8 556.0,398.8 555.2,398.8 554.5,398.8 553.7,398.8 553.0,398.8 552.2,399.3 551.5,400.5 550.7,400.5 550.0,400.5 549.2,400.5 548.5,400.5 547.7,400.5 546.9,400.5 546.2,400.5 545.4,400.5 544.7,400.9 543.9,400.9 543.2,400.9 542.4,400.9 541.7,400.5 540.9,400.5 540.2,400.8 539.4,400.5 538.7,399.7 537.9,399.3 537.2,399.0 536.4,398.9 535.7,399.0 534.9,399.1 534.2,399.1 533.4,399.2 532.6,399.3 531.9,399.3 531.1,399.4 530.4,399.4 529.6,399.5 528.9,399.6 528.1,399.6 527.4,399.7 526.6,400.5 525.9,400.9 525.1,400.9 524.4,400.8 523.6,401.0 522.9,401.0 522.1,400.8 521.4,400.7 520.6,400.6 519.8,400.6 519.1,400.6 518.3,400.6 517.6,400.6 516.8,400.4 516.1,400.4 515.3,400.7 514.6,400.5 513.8,400.1 513.1,400.4 512.3,400.9 511.6,401.0 510.8,401.1 510.1,399.9 509.3,400.4 508.6,400.1 507.8,400.6 507.0,400.7 506.3,400.8 505.5,400.9 504.8,401.9 504.0,400.7 503.3,400.7 502.5,400.9 501.8,401.0 501.0,401.2 500.3,401.4 499.5,401.5 498.8,401.7 498.0,401.9 497.3,401.9 496.5,401.9 495.8,403.4 495.0,404.1 494.3,403.6 493.5,402.2 492.7,402.4 492.0,403.3 491.2,404.1 490.5,402.3 489.7,399.8 489.0,399.7 488.2,402.8 487.5,402.9 486.7,402.2 486.0,402.1 485.2,402.0 484.5,401.9 483.7,401.9 483.0,402.3 482.2,401.3 481.5,401.3 480.7,402.2 480.0,401.2 479.2,400.1 478.5,398.7 477.7,398.5 477.0,398.5 476.2,398.6 475.4,399.1 474.7,400.4 473.9,400.4 473.2,400.3 472.4,400.3 471.7,400.3 470.9,400.2 470.2,400.3 469.4,400.3 468.7,400.3 467.9,400.4 467.2,400.4 466.4,400.6 465.7,400.6 464.9,400.8 464.2,400.6 463.4,400.0 462.7,399.7 461.9,399.0 461.1,398.5 460.4,398.2 459.6,398.0 458.9,398.0 458.1,398.2 457.4,398.3 456.6,398.6 455.9,398.6 455.1,398.6 454.4,398.7 453.6,398.8 452.9,398.9 452.1,399.0 451.4,399.1 450.6,399.7 449.9,399.8 449.1,400.4 448.3,400.4 447.6,400.4 446.8,400.4 446.1,400.3 445.3,400.3 444.6,400.3 443.8,400.3 443.1,400.3 442.3,400.3 441.6,400.2 440.8,400.4 440.1,400.2 439.3,400.3 438.6,400.8 437.8,399.6 437.1,398.9 436.3,398.6 435.6,398.6 434.8,398.4 434.0,398.4 433.3,398.3 432.5,398.3 431.8,398.2 431.0,398.2 430.3,398.1 429.5,398.1 428.8,398.0 428.0,398.0 427.3,397.9 426.5,398.2 425.8,400.0 425.0,400.2 424.3,400.0 423.5,399.9 422.8,399.9 422.0,399.8 421.2,399.7 420.5,399.7 419.7,399.6 419.0,399.6 418.2,399.5 417.5,399.4 416.7,399.4 416.0,399.4 415.2,399.8 414.5,399.8 413.7,399.8 413.0,399.1 412.2,399.8 411.5,400.3 410.7,400.3 410.0,400.3 409.2,400.3 408.5,400.3 407.7,400.3 407.0,400.3 406.2,400.3 405.5,400.3 404.7,400.3 403.9,400.3 403.2,400.3 402.4,400.3 401.7,400.3 400.9,400.3 400.2,400.3 399.4,400.3 398.7,400.3 397.9,400.3 397.2,400.3 396.4,400.6 395.7,401.1 394.9,400.5 394.2,400.8 393.4,400.8 392.7,400.1 391.9,399.5 391.2,399.2 390.4,399.1 389.7,399.1 388.9,398.8 388.1,398.7 387.4,398.6 386.6,398.4 385.9,398.4 385.1,398.2 384.4,398.1 383.6,398.0 382.9,398.1 382.1,398.6 381.4,399.1 380.6,399.8 379.9,400.1 379.1,400.1 378.4,400.1 377.6,400.1 376.9,400.1 376.1,400.2 375.3,400.2 374.6,400.2 373.8,400.2 373.1,400.2 372.3,400.2 371.6,400.3 370.8,400.6 370.1,400.3 369.3,400.4 368.6,400.6 367.8,399.4 367.1,398.5 366.3,398.5 365.6,398.5 364.8,398.2 364.1,398.1 363.3,398.0 362.5,398.0 361.8,397.9 361.0,397.8 360.3,398.1 359.5,398.3 358.8,398.6 358.0,398.9 357.3,400.2 356.5,400.3 355.8,400.2 355.0,400.1 354.3,400.1 353.5,400.1 352.8,400.1 352.0,400.1 351.3,400.1 350.5,400.1 349.7,400.1 349.0,400.2 348.2,400.3 347.5,400.4 346.7,400.5 346.0,400.6 345.2,400.6 344.5,400.7 343.7,400.8 343.0,400.4 342.2,399.8 341.5,400.1 340.7,400.0 340.0,400.0 339.2,400.0 338.5,400.0 337.7,400.0 337.0,400.0 336.2,399.9 335.5,399.9 334.7,399.9 333.9,399.9 333.2,399.9 332.4,399.9 331.7,399.9 330.9,399.9 330.2,399.9 329.4,399.8 328.7,399.8 327.9,399.9 327.2,399.5 326.4,399.0 325.7,398.8 324.9,399.9 324.2,399.9 323.4,399.9 322.7,399.9 321.9,400.0 321.2,400.0 320.4,400.0 319.7,400.0 318.9,400.0 318.2,400.0 317.4,400.0 316.6,400.1 315.9,400.2 315.1,400.8 314.4,400.5 313.6,400.6 312.9,400.6 312.1,400.4 311.4,400.4 310.6,400.4 309.9,399.4 309.1,399.1 308.4,398.8 307.6,398.5 306.9,398.2 306.1,397.9 305.4,398.0 304.6,398.2 303.9,398.4 303.1,398.6 302.3,398.8 301.6,400.3 300.8,399.8 300.1,399.8 299.3,399.8 298.6,399.8 297.8,399.9 297.1,400.1 296.3,400.1 295.6,400.1 294.8,400.2 294.1,400.3 293.3,400.4 292.6,400.4 291.8,400.5 291.1,400.6 290.3,400.5 289.5,400.7 288.8,400.8 288.0,400.2 287.3,398.8 286.5,398.2 285.8,398.1 285.0,398.0 284.3,398.0 283.5,398.0 282.8,398.2 282.0,398.5 281.3,398.7 280.5,399.7 279.8,399.7 279.0,399.7 278.3,399.8 277.5,399.9 276.7,400.2 276.0,400.0 275.2,399.9 274.5,399.9 273.7,399.9 273.0,400.0 272.2,400.0 271.5,400.0 270.7,400.0 270.0,400.0 269.2,400.1 268.5,400.1 267.7,400.1 267.0,400.2 266.2,400.2 265.5,400.6 264.7,400.6 264.0,400.6 263.2,399.8 262.4,399.0 261.7,397.9 260.9,397.8 260.2,397.8 259.4,397.8 258.7,397.8 257.9,397.8 257.2,397.8 256.4,397.8 255.7,397.8 254.9,397.8 254.2,397.8 253.4,397.8 252.7,397.8 251.9,398.8 251.2,400.3 250.4,400.3 249.7,400.2 248.9,400.2 248.2,400.2 247.4,400.2 246.7,400.1 245.9,400.1 245.1,400.2 244.4,400.2 243.6,400.2 242.9,400.2 242.1,400.2 241.4,400.4 240.6,400.6 239.9,400.8 239.1,400.4 238.4,399.8 237.6,399.4 236.9,399.3 236.1,399.2 235.4,399.0 234.6,398.9 233.9,398.8 233.1,398.6 232.4,398.5 231.6,398.3 230.8,398.2 230.1,398.0 229.3,397.9 228.6,398.8 227.8,399.7 227.1,400.1 226.3,400.3 225.6,400.2 224.8,400.2 224.1,400.2 223.3,400.2 222.6,400.2 221.8,400.1 221.1,400.1 220.3,400.1 219.6,400.1 218.8,400.0 218.1,400.0 217.3,400.5 216.5,400.5 215.8,400.5 215.0,400.7 214.3,400.0 213.5,400.2 212.8,400.3 212.0,400.2 211.3,400.2 210.5,399.1 209.8,398.7 209.0,397.5 208.3,397.9 207.5,399.2 206.8,400.0 206.0,400.1 205.3,400.1 204.5,400.1 203.7,400.1 203.0,400.1 202.2,400.1 201.5,400.2 200.7,400.2 200.0,400.2 199.2,400.2 198.5,400.2 197.7,400.2 197.0,400.2 196.2,400.2 195.5,400.2 194.7,400.2 194.0,400.2 193.2,400.2 192.5,400.2 191.7,400.2 190.9,400.2 190.2,400.2 189.4,400.2 188.7,400.2 187.9,400.2 187.2,400.2 186.4,400.2 185.7,400.2 184.9,400.2 184.2,400.6 183.4,400.3 182.7,400.1 181.9,399.3 181.2,398.7 180.4,398.5 179.7,398.4 178.9,398.3 178.2,398.3 177.4,398.1 176.7,398.1 175.9,398.1 175.2,397.9 174.4,397.9 173.6,397.9 172.9,397.9 172.1,397.9 171.4,397.9 170.6,399.7 169.9,399.8 169.1,400.0 168.4,400.1 167.6,400.1 166.9,400.1 166.1,400.1 165.4,400.2 164.6,400.2 163.9,400.2 163.1,400.2 162.4,400.2 161.6,400.2 160.9,400.2 160.1,400.2 159.4,400.5 158.6,400.8 157.8,400.9 157.1,400.1 156.3,399.7 155.6,399.6 154.8,399.1 154.1,398.8 153.3,398.4 152.6,398.3 151.8,397.9 151.1,397.9 150.3,397.9 149.6,398.0 148.8,398.0 148.1,398.0 147.3,398.0 146.6,398.3 145.8,399.1 145.0,399.7 144.3,399.8 143.5,400.0 142.8,400.0 142.0,400.1 141.3,400.2 140.5,400.2 139.8,400.2 139.0,400.2 138.3,400.2 137.5,400.2 136.8,400.2 136.0,400.2 135.3,400.3 134.5,400.6 133.8,400.4 133.0,400.1 132.2,399.9 131.5,399.3 130.7,398.6 130.0,398.2 129.2,398.0 128.5,397.9 127.7,397.9 127.0,397.9 126.2,231.6 125.5,214.6 124.7,197.6 124.0,180.6 123.2,163.6 122.5,146.6 121.7,129.6 121.0,112.6 120.2,96.4 119.4,83.8 118.7,76.3 117.9,76.3 117.2,76.3 116.4,76.3 115.7,76.3 114.9,76.3 114.2,76.3 113.4,76.3 112.7,76.3 111.9,76.3 111.2,76.3 110.4,76.3 109.7,76.3 108.9,104.6 108.2,164.4 107.4,255.1 106.7,398.6 105.9,399.2 105.2,400.6 104.4,400.6 103.6,400.2 102.9,400.1 102.1,400.1 101.4,400.1 100.6,400.2 99.9,400.1 99.1,400.1 98.4,400.7 97.6,401.4 96.9,402.1 96.1,402.0 95.4,401.9 94.6,401.8 93.9,401.7 93.1,401.6 92.4,401.5 91.6,401.5 90.9,402.4 90.1,403.6 89.4,403.4 88.6,403.3 87.9,403.3 87.1,403.3 86.3,403.4 85.6,403.8 84.8,403.8 84.1,402.6 83.3,404.0 82.6,402.9 81.8,403.8 81.1,403.8 80.3,403.9 79.6,404.0 78.8,404.1 78.1,403.8 77.3,402.9 76.6,402.7 75.8,401.9 75.1,401.4 74.3,402.3 73.6,403.5 72.8,404.3 72.0,404.3 71.3,404.3 70.5,404.3 69.8,404.3 69.0,404.3 68.3,404.3 67.5,404.3 66.8,404.3 66.0,404.3 65.3,404.3 64.5,404.3 63.8,404.3 63.0,404.3 62.3,404.3 61.5,404.3 60.8,404.3 60.0,404.3" fill="#3498db" fill-opacity="0.2" stroke="none" />
<polyline points="60.0,404.3 60.8,404.2 61.5,404.2 62.3,404.2 63.0,404.2 63.8,404.2 64.5,404.2 65.3,404.2 66.0,404.2 66.8,404.2 67.5,404.2 68.3,404.2 69.0,404.2 69.8,404.2 70.5,404.2 71.3,404.1 72.0,404.1 72.8,404.1 73.6,403.4 74.3,401.9 75.1,400.8 75.8,401.8 76.6,402.5 77.3,402.8 78.1,403.4 78.8,403.7 79.6,403.7 80.3,403.7 81.1,403.6 81.8,403.6 82.6,402.9 83.3,403.9 84.1,402.4 84.8,403.5 85.6,403.5 86.3,403.4 87.1,403.1 87.9,403.2 88.6,403.2 89.4,403.3 90.1,403.6 90.9,401.9 91.6,401.4 92.4,401.5 93.1,401.6 93.9,401.7 94.6,401.8 95.4,401.8 96.1,401.9 96.9,401.9 97.6,401.4 98.4,400.6 99.1,400.1 99.9,400.0 100.6,400.2 101.4,400.1 102.1,400.1 102.9,400.1 103.6,400.2 104.4,400.5 105.2,400.2 105.9,399.1 106.7,395.2 107.4,254.6 108.2,116.0 108.9,86.1 109.7,72.0 110.4,72.0 111.2,72.1 111.9,72.1 112.7,72.1 113.4,72.2 114.2,72.2 114.9,72.2 115.7,72.3 116.4,72.3 117.2,72.3 117.9,72.4 118.7,72.4 119.4,81.2 120.2,96.0 121.0,112.1 121.7,128.2 122.5,141.7 123.2,152.7 124.0,161.2 124.7,169.7 125.5,178.2 126.2,186.7 127.0,397.9 127.7,397.9 128.5,397.9 129.2,397.9 130.0,398.0 130.7,398.6 131.5,399.3 132.2,399.9 133.0,400.1 133.8,400.4 134.5,400.4 135.3,400.3 136.0,400.2 136.8,400.2 137.5,400.2 138.3,400.2 139.0,400.2 139.8,400.2 140.5,400.2 141.3,400.2 142.0,400.1 142.8,400.0 143.5,399.9 144.3,399.7 145.0,399.7 145.8,399.0 146.6,398.2 147.3,398.0 148.1,398.0 148.8,398.0 149.6,398.0 150.3,397.9 151.1,397.9 151.8,397.9 152.6,398.2 153.3,398.4 154.1,398.7 154.8,398.9 155.6,399.5 156.3,399.7 157.1,399.8 157.8,400.5 158.6,400.7 159.4,400.5 160.1,400.0 160.9,400.0 161.6,400.1 162.4,400.1 163.1,400.2 163.9,400.2 164.6,400.2 165.4,400.2 166.1,400.1 166.9,400.1 167.6,400.1 168.4,400.1 169.1,400.0 169.9,399.8 170.6,399.5 171.4,397.8 172.1,397.8 172.9,397.8 173.6,397.8 174.4,397.9 175.2,397.9 175.9,398.0 176.7,398.1 177.4,398.1 178.2,398.2 178.9,398.3 179.7,398.3 180.4,398.5 181.2,398.6 181.9,399.2 182.7,400.0 183.4,400.1 184.2,400.5 184.9,400.2 185.7,400.2 186.4,400.2 187.2,400.2 187.9,400.2 188.7,400.2 189.4,400.2 190.2,400.2 190.9,400.2 191.7,400.2 192.5,400.2 193.2,400.2 194.0,400.2 194.7,400.2 195.5,400.2 196.2,400.2 197.0,400.2 197.7,400.2 198.5,400.2 199.2,400.2 200.0,400.2 200.7,400.2 201.5,400.2 202.2,400.1 203.0,400.0 203.7,400.0 204.5,400.0 205.3,399.9 206.0,399.9 206.8,399.9 207.5,399.2 208.3,397.9 209.0,397.3 209.8,398.4 210.5,399.0 211.3,400.0 212.0,400.2 212.8,400.3 213.5,400.2 214.3,399.9 215.0,400.6 215.8,400.4 216.5,400.4 217.3,400.5 218.1,399.9 218.8,400.0 219.6,400.1 220.3,400.1 221.1,400.1 221.8,400.1 222.6,400.1 223.3,400.2 224.1,400.2 224.8,400.2 225.6,400.2 226.3,400.3 227.1,400.0 227.8,399.4 228.6,398.6 229.3,397.9 230.1,398.0 230.8,398.1 231.6,398.3 232.4,398.4 233.1,398.6 233.9,398.8 234.6,398.8 235.4,399.0 236.1,399.2 236.9,399.2 237.6,399.3 238.4,399.5 239.1,400.3 239.9,400.6 240.6,400.5 241.4,400.3 242.1,400.2 242.9,400.2 243.6,400.2 244.4,400.1 245.1,400.1 245.9,400.1 246.7,400.1 247.4,400.1 248.2,400.1 248.9,400.1 249.7,400.1 250.4,400.1 251.2,400.2 251.9,398.7 252.7,397.8 253.4,397.8 254.2,397.8 254.9,397.8 255.7,397.8 256.4,397.8 257.2,397.8 257.9,397.8 258.7,397.8 259.4,397.8 260.2,397.8 260.9,397.8 261.7,397.9 262.4,398.9 263.2,399.8 264.0,400.5 264.7,400.6 265.5,400.6 266.2,400.0 267.0,400.0 267.7,400.0 268.5,400.0 269.2,400.0 270.0,400.0 270.7,400.0 271.5,400.0 272.2,400.0 273.0,400.0 273.7,399.9 274.5,399.8 275.2,399.8 276.0,399.9 276.7,400.0 277.5,399.9 278.3,399.7 279.0,399.6 279.8,399.5 280.5,399.3 281.3,398.4 282.0,398.2 282.8,398.1 283.5,398.0 284.3,397.9 285.0,398.0 285.8,398.0 286.5,398.2 287.3,398.5 288.0,400.1 288.8,400.5 289.5,400.5 290.3,400.4 291.1,400.4 291.8,400.4 292.6,400.3 293.3,400.3 294.1,400.3 294.8,400.2 295.6,400.1 296.3,400.1 297.1,400.0 297.8,399.8 298.6,399.8 299.3,399.8 300.1,399.7 300.8,399.5 301.6,399.7 302.3,398.3 303.1,398.2 303.9,398.1 304.6,398.0 305.4,397.9 306.1,397.8 306.9,398.1 307.6,398.4 308.4,398.7 309.1,398.9 309.9,399.0 310.6,400.0 311.4,400.2 312.1,400.3 312.9,400.5 313.6,400.6 314.4,400.4 315.1,400.6 315.9,400.2 316.6,400.1 317.4,400.0 318.2,400.0 318.9,400.0 319.7,400.0 320.4,400.0 321.2,400.0 321.9,400.0 322.7,399.9 323.4,399.9 324.2,399.9 324.9,399.8 325.7,398.7 326.4,398.7 327.2,399.5 327.9,399.8 328.7,399.8 329.4,399.8 330.2,399.9 330.9,399.9 331.7,399.9 332.4,399.9 333.2,399.9 333.9,399.9 334.7,399.9 335.5,399.9 336.2,399.9 337.0,400.0 337.7,400.0 338.5,400.0 339.2,400.0 340.0,400.0 340.7,400.0 341.5,400.0 342.2,399.7 343.0,400.4 343.7,400.7 344.5,400.6 345.2,400.6 346.0,400.6 346.7,400.5 347.5,400.4 348.2,400.3 349.0,400.2 349.7,400.1 350.5,400.0 351.3,400.0 352.0,400.0 352.8,399.9 353.5,399.9 354.3,399.9 355.0,399.9 355.8,399.9 356.5,399.8 357.3,399.7 358.0,398.3 358.8,398.2 359.5,398.1 360.3,397.9 361.0,397.8 361.8,397.9 362.5,398.0 363.3,398.0 364.1,398.1 364.8,398.1 365.6,398.4 366.3,398.4 367.1,398.5 367.8,399.4 368.6,400.4 369.3,400.3 370.1,400.2 370.8,400.5 371.6,400.3 372.3,400.2 373.1,400.2 373.8,400.2 374.6,400.2 375.3,400.2 376.1,400.2 376.9,400.1 377.6,400.1 378.4,400.1 379.1,400.1 379.9,400.0 380.6,399.8 381.4,399.1 382.1,398.5 382.9,398.1 383.6,397.9 384.4,398.1 385.1,398.2 385.9,398.4 386.6,398.4 387.4,398.5 388.1,398.7 388.9,398.8 389.7,399.0 390.4,399.0 391.2,399.1 391.9,399.4 392.7,400.1 393.4,400.7 394.2,400.8 394.9,400.3 395.7,400.9 396.4,400.5 397.2,400.3 397.9,400.3 398.7,400.3 399.4,400.3 400.2,400.3 400.9,400.3 401.7,400.3 402.4,400.3 403.2,400.3 403.9,400.3 404.7,400.3 405.5,400.3 406.2,400.3 407.0,400.3 407.7,400.3 408.5,400.2 409.2,400.2 410.0,400.2 410.7,400.2 411.5,400.2 412.2,399.8 413.0,399.0 413.7,399.7 414.5,399.6 415.2,399.7 416.0,399.2 416.7,399.3 417.5,399.4 418.2,399.5 419.0,399.6 419.7,399.6 420.5,399.6 421.2,399.6 422.0,399.7 422.8,399.7 423.5,399.7 424.3,399.8 425.0,399.8 425.8,399.5 426.5,398.2 427.3,397.9 428.0,397.9 428.8,398.0 429.5,398.1 430.3,398.1 431.0,398.2 431.8,398.2 432.5,398.3 433.3,398.3 434.0,398.4 434.8,398.4 435.6,398.5 436.3,398.5 437.1,398.7 437.8,399.5 438.6,400.7 439.3,400.3 440.1,400.1 440.8,400.3 441.6,400.2 442.3,400.1 443.1,400.2 443.8,400.2 444.6,400.2 445.3,400.2 446.1,400.2 446.8,400.2 447.6,400.2 448.3,400.2 449.1,400.2 449.9,399.7 450.6,399.6 451.4,398.9 452.1,398.8 452.9,398.8 453.6,398.7 454.4,398.7 455.1,398.6 455.9,398.6 456.6,398.5 457.4,398.1 458.1,398.1 458.9,398.0 459.6,398.0 460.4,398.1 461.1,398.5 461.9,399.0 462.7,399.6 463.4,400.0 464.2,400.4 464.9,400.6 465.7,400.5 466.4,400.5 467.2,400.1 467.9,400.1 468.7,400.1 469.4,400.1 470.2,400.1 470.9,400.1 471.7,400.1 472.4,400.2 473.2,400.2 473.9,400.1 474.7,400.1 475.4,399.1 476.2,398.6 477.0,398.5 477.7,398.4 478.5,398.6 479.2,399.8 480.0,401.0 480.7,402.2 481.5,400.9 482.2,401.1 483.0,402.2 483.7,401.9 484.5,401.8 485.2,401.9 486.0,402.1 486.7,402.2 487.5,402.7 488.2,402.6 489.0,399.5 489.7,399.6 490.5,401.5 491.2,404.0 492.0,403.3 492.7,402.2 493.5,402.2 494.3,403.2 495.0,404.0 495.8,403.1 496.5,401.8 497.3,401.9 498.0,401.9 498.8,401.7 499.5,401.5 500.3,401.4 501.0,401.2 501.8,401.0 502.5,400.9 503.3,400.7 504.0,400.6 504.8,401.7 505.5,400.7 506.3,400.5 507.0,400.5 507.8,400.4 508.6,400.1 509.3,400.2 510.1,399.8 510.8,400.8 511.6,400.8 512.3,400.7 513.1,400.4 513.8,400.0 514.6,400.5 515.3,400.6 516.1,400.4 516.8,400.4 517.6,400.5 518.3,400.6 519.1,400.6 519.8,400.6 520.6,400.6 521.4,400.6 522.1,400.8 522.9,400.9 523.6,400.9 524.4,400.8 525.1,400.8 525.9,400.8 526.6,400.4 527.4,399.5 528.1,399.5 528.9,399.4 529.6,399.4 530.4,399.4 531.1,399.3 531.9,399.3 532.6,399.3 533.4,399.1 534.2,399.1 534.9,399.1 535.7,398.9 536.4,398.9 537.2,399.0 537.9,399.3 538.7,399.6 539.4,400.5 540.2,400.7 540.9,400.5 541.7,400.5 542.4,400.8 543.2,400.7 543.9,400.7 544.7,400.7 545.4,400.5 546.2,400.5 546.9,400.5 547.7,400.5 548.5,400.4 549.2,400.4 550.0,400.4 550.7,400.4 551.5,400.4 552.2,399.1 553.0,398.8 553.7,398.8 554.5,398.8 555.2,398.8 556.0,398.8 556.7,398.8 557.5,398.8 558.2,398.8 559.0,398.8 559.7,398.9 560.5,399.0 561.2,399.6 562.0,399.7 562.7,399.7 563.5,399.7 564.2,400.1 565.0,400.4 565.8,400.5 566.5,400.8 567.3,400.9 568.0,400.9 568.8,400.8 569.5,400.8 570.3,400.8 571.0,400.8 571.8,400.8 572.5,400.7 573.3,400.7 574.0,400.6 574.8,400.6 575.5,400.6 576.3,400.4 577.0,400.0 577.8,399.7 578.5,399.4 579.3,399.6 580.0,401.1 580.8,402.3 581.6,403.2 582.3,401.2 583.1,401.1 583.8,402.2 584.6,402.4 585.3,402.4 586.1,402.4 586.8,402.3 587.6,402.3 588.3,402.2 589.1,402.1 589.8,402.1 590.6,402.1 591.3,402.1 592.1,402.0 592.8,401.7 593.6,401.3 594.4,401.0 595.1,400.8 595.9,401.2 596.6,401.1 597.4,400.8 598.1,400.6 598.9,400.6 599.6,401.2 600.4,400.1 601.1,400.1 601.9,400.9 602.6,400.7 603.4,400.4 604.1,393.4 604.9,268.1 605.6,133.7 606.4,64.7 607.2,64.9 607.9,65.1 608.7,65.3 609.4,65.5 610.2,65.6 610.9,65.8 611.7,66.0 612.4,66.2 613.2,66.4 613.9,66.6 614.7,66.8 615.4,66.9 616.2,67.0 616.9,67.1 617.7,67.3 618.4,67.5 619.2,67.8 620.0,68.0 620.7,68.3 621.5,68.5 622.2,68.8 623.0,69.0 623.7,69.2 624.5,69.5 625.2,69.7 626.0,69.9 626.7,70.1 627.5,70.3 628.2,70.5 629.0,70.6 629.7,70.8 630.5,71.0 631.2,71.3 632.0,71.3 632.7,71.6 633.5,71.8 634.2,72.0 635.0,72.1 635.8,72.3 636.5,72.5 637.3,72.5 638.0,72.6 638.8,72.6 639.5,72.6 640.3,72.7 641.0,72.7 641.8,72.8 642.5,72.8 643.3,72.9 644.0,73.0 644.8,73.0 645.5,73.1 646.3,73.1 647.0,73.2 647.8,73.3 648.5,73.3 649.3,73.5 650.0,73.6 650.8,73.7 651.5,73.8 652.3,73.9 653.1,74.1 653.8,74.2 654.6,74.3 655.3,74.4 656.1,74.4 656.8,74.6 657.6,74.7 658.3,74.8 659.1,75.0 659.8,75.3 660.6,75.4 661.3,75.7 662.1,75.9 662.8,76.0 663.6,76.3 664.3,76.4 665.1,76.6 665.8,76.9 666.6,77.0 667.4,77.3 668.1,77.5 668.9,77.6 669.6,77.8 670.4,77.9 671.1,77.9 671.9,77.9 672.6,77.9 673.4,77.9 674.1,77.9 674.9,78.0 675.6,78.0 676.4,78.1 677.1,78.2 677.9,78.2 678.6,78.2 679.4,78.2 680.2,78.2 680.9,78.3 681.7,78.3 682.4,78.3 683.2,78.4 683.9,78.4 684.7,78.4 685.4,78.5 686.2,78.5 686.9,78.5 687.7,78.6 688.4,78.6 689.2,78.6 689.9,78.7 690.7,78.4 691.4,78.1 692.2,78.1 693.0,78.1 693.7,78.1 694.5,78.1 695.2,78.1 696.0,78.1 696.7,78.1 697.5,78.2 698.2,78.2 699.0,78.2 699.7,78.2 700.5,78.2 701.2,78.2 702.0,78.2 702.7,78.5 703.5,78.8 704.2,79.1 705.0,79.3 705.7,79.8 706.5,79.5 707.3,80.2 708.0,80.5 708.8,80.9 709.5,81.2 710.3,81.5 711.0,81.8 711.8,82.1 712.5,82.3 713.3,82.5 714.0,82.4 714.8,82.4 715.5,82.4 716.3,82.3 717.0,82.3 717.8,82.3 718.5,82.2 719.3,82.2 720.0,82.2 720.8,82.2 721.5,82.1 722.3,82.1 723.0,82.1 723.8,82.1 724.6,91.7 725.3,105.1 726.1,118.4 726.8,131.7 727.6,145.0 728.3,158.3 729.1,171.7 729.8,185.0 730.6,198.3 731.3,205.0 732.1,227.6 732.8,234.3 733.6,241.0 734.3,290.1 735.1,386.6 735.8,400.9 736.6,401.0 737.3,401.1 738.1,401.3 738.9,401.4 739.6,401.5 740.4,401.7 741.1,401.8 741.9,402.6 742.6,402.8 743.4,402.9 744.1,403.4 744.9,402.7 745.6,400.4 746.4,400.4 747.1,401.4 747.9,402.8 748.6,403.0 749.4,403.4 750.1,403.3 750.9,403.7 751.7,402.2 752.4,402.7 753.2,402.6 753.9,403.7 754.7,404.1 755.4,404.1 756.2,404.2 756.9,404.2 757.7,404.2 758.4,404.2 759.2,404.2 759.9,404.2 760.7,404.2 761.4,404.2 762.2,404.2 762.9,404.1 763.7,404.1 764.4,404.1 765.2,404.1 766.0,404.1 766.7,404.1 767.5,404.1 768.2,404.1 769.0,404.1 769.7,404.1 770.5,404.1 771.2,404.1 772.0,404.0 772.7,404.0 773.5,404.0 774.2,404.0 775.0,403.9 775.7,403.9 776.5,403.9 777.2,403.9 778.0,403.9 778.8,403.9 779.5,403.9 780.3,403.9 781.0,403.8 781.8,403.8 782.5,403.8 783.3,403.8 784.0,403.8 784.8,403.8 785.5,403.8 786.3,403.8 787.0,403.7 787.8,403.5 788.5,403.7 789.3,403.8 790.0,403.9 790.8,403.9 791.5,403.9 792.3,403.9 793.0,403.9 793.8,404.0 794.5,404.0 795.3,404.0 796.1,404.0 796.8,404.0 797.6,404.1 798.3,404.1 799.1,404.1 799.8,404.2 800.6,404.2 801.3,404.2 802.1,404.2 802.8,404.2 803.6,404.2 804.3,404.2 805.1,404.2 805.8,404.2 806.6,404.2 807.3,404.2 808.1,404.2 808.8,404.2 809.6,404.2 810.3,404.2 811.1,404.2 811.9,404.2 812.6,404.2 813.4,404.2 814.1,404.2 814.9,404.2 815.6,404.2 816.4,404.2 817.1,404.2 817.9,404.2 818.6,404.2 819.4,404.2 820.1,404.2 820.9,404.2 821.6,404.2 822.4,404.2 823.1,404.2 823.9,404.2 824.7,404.2 825.4,404.2 826.2,404.2 826.9,404.2 827.7,404.2 828.4,404.2 829.2,404.2 829.9,404.2 830.7,404.2 831.4,404.2 832.2,404.2 832.9,404.2 833.7,404.2 834.4,404.2 835.2,404.2 835.9,404.2 836.7,404.2 837.5,404.2 838.2,404.2 839.0,404.2 839.7,404.2 840.5,404.2 841.2,404.2 842.0,404.2 842.7,404.2 843.5,404.2 844.2,404.2 845.0,404.2 845.7,404.2 846.5,404.2 847.2,404.2 848.0,404.2 848.7,404.2 849.5,404.2 850.3,404.2 851.0,404.2 851.8,404.2 852.5,404.2 853.3,404.2 854.0,404.2 854.8,404.2 855.5,404.2 856.3,404.2 857.0,404.2 857.8,404.2 858.5,404.2 859.3,404.2 860.0,404.2 860.8,404.2 861.5,404.2 862.3,404.2 863.0,404.2 863.8,404.2 864.5,404.2 865.3,404.2 866.1,404.2 866.8,404.2 867.6,404.2 868.3,404.2 869.1,404.2 869.8,404.2 870.6,404.2 871.3,404.2 872.1,404.2 872.8,404.2 873.6,404.2 874.3,404.2 875.1,404.2 875.8,404.2 876.6,404.2 877.3,404.2 878.1,404.2 878.8,404.2 879.6,404.2 880.3,404.2 881.1,404.2 881.8,404.2 882.6,404.2 883.4,404.2 884.1,404.2 884.9,404.2 885.6,404.2 886.4,404.2 887.1,404.2 887.9,404.2 888.6,404.2 889.4,404.2 890.1,404.2 890.9,404.2 891.6,404.2 892.4,404.2 893.1,404.2 893.9,404.2 894.6,404.2 895.4,404.2 896.1,404.2 896.9,404.2 897.7,404.2 898.4,404.2 899.2,404.2 899.9,404.2 900.7,404.2 901.4,404.2 902.2,404.2 902.9,404.2 903.7,404.2 904.4,404.2 905.2,404.2 905.9,404.2 906.7,404.2 907.4,404.2 908.2,404.2 908.9,404.2 909.7,404.2 910.5,404.2 911.2,404.2 912.0,404.2 912.7,404.2 913.5,404.2 914.2,404.2 915.0,404.2 915.7,404.2 916.5,404.2 917.2,404.2 918.0,404.2 918.7,404.2 919.5,404.2 920.2,404.2 921.0,404.2 921.7,404.2 922.5,404.2 923.3,404.2 924.0,404.2 924.8,404.2 925.5,404.2 926.3,404.2 927.0,404.2 927.8,404.2 928.5,404.2 929.3,404.2 930.0,404.2 930.8,404.2 931.5,404.2 932.3,404.2 933.0,404.2 933.8,404.2 934.5,404.2 935.3,404.2 936.0,404.2 936.8,404.2 937.6,404.2 938.3,404.2 939.1,404.2 939.8,404.2 940.6,404.2 941.3,404.2 942.1,404.2 942.8,404.2 943.6,404.2 944.3,404.2 945.1,404.2 945.8,404.2 946.6,404.2 947.3,404.2 948.1,404.2 948.8,404.2 949.6,404.2 950.3,404.2 951.1,404.2 951.8,404.2 952.6,404.2 953.3,404.2 954.1,404.2 954.9,404.2 955.6,404.2 956.4,404.2 957.1,404.2 957.9,404.2 958.6,404.2 959.4,404.2 960.1,404.2 960.9,404.2 961.6,404.2 962.4,404.2 963.1,404.2 963.9,404.2 964.6,404.2 965.4,404.2 966.1,404.2 966.9,404.2 967.6,404.2 968.4,404.2 969.2,404.2 969.9,404.2 970.7,404.2 971.4,404.2 972.2,404.2 972.9,404.2 973.7,404.2 974.4,404.2 975.2,404.2 975.9,404.2 976.7,404.2 977.4,404.2 978.2,404.2 978.9,404.2 979.7,404.2 980.4,404.2 981.2,404.2 981.9,404.2 982.7,404.2 983.5,404.2 984.2,404.2 985.0,404.2 985.7,404.2 986.5,404.2 987.2,404.2 988.0,404.2 988.7,404.2 989.5,404.2 990.2,404.2 991.0,404.2 991.7,404.2 992.5,404.2 993.2,404.2 994.0,404.2 994.7,404.2 995.5,404.2 996.3,404.2 997.0,404.2 997.8,404.2 998.5,404.2 999.3,404.2 1000.0,404.2 1000.8,404.2 1001.5,404.2 1002.3,404.2 1003.0,404.2 1003.8,404.2 1004.5,404.2 1005.3,404.2 1006.0,404.2 1006.8,404.2 1007.5,404.2 1008.3,404.2 1009.1,404.2 1009.8,404.2 1010.6,404.2 1011.3,404.2 1012.1,404.2 1012.8,404.2 1013.6,404.2 1014.3,404.2 1015.1,404.2 1015.8,404.2 1016.6,404.2 1017.3,404.2 1018.1,404.2 1018.8,404.2 1019.6,404.2 1020.3,404.2 1021.1,404.2 1021.8,404.2 1022.6,404.2 1023.3,404.2 1024.1,404.2 1024.8,404.2 1025.6,404.2 1026.4,404.2 1027.1,404.2 1027.9,404.2 1028.6,404.2 1029.4,404.2 1030.1,404.2 1030.9,404.2 1031.6,404.2 1032.4,404.2 1033.1,404.2 1033.9,404.2 1034.6,404.2 1035.4,404.2 1036.1,404.2 1036.9,404.2 1037.6,404.2 1038.4,404.2 1039.1,404.2 1039.9,404.2 1040.6,404.2 1041.4,404.2 1042.2,404.2 1042.9,404.2 1043.7,404.2 1044.4,404.2 1045.2,404.2 1045.9,404.2 1046.7,404.2 1047.4,404.2 1048.2,404.2 1048.9,404.2 1049.7,404.2 1050.4,404.2 1051.2,404.2 1051.9,404.2 1052.7,404.2 1053.4,404.2 1054.2,404.2 1055.0,404.2 1055.7,404.2 1056.5,404.2 1057.2,404.2 1058.0,404.2 1058.7,404.2 1059.5,404.2 1060.2,404.2 1061.0,404.2 1061.7,404.2 1062.5,404.2 1063.2,404.2 1064.0,404.2 1064.7,404.2 1065.5,404.2 1066.2,404.2 1067.0,404.2 1067.8,404.2 1068.5,404.2 1069.3,404.2 1070.0,404.2 1070.8,404.2 1071.5,404.2 1072.3,404.2 1073.0,404.2 1073.8,404.2 1074.5,404.2 1075.3,404.2 1076.0,404.2 1076.8,404.2 1077.5,404.2 1078.3,404.2 1079.0,404.2 1079.8,404.2 1080.6,404.2 1081.3,404.2 1082.1,404.2 1082.8,404.2 1083.6,404.2 1084.3,404.2 1085.1,404.2 1085.8,404.2 1086.6,404.2 1087.3,404.2 1088.1,404.2 1088.8,404.2 1089.6,404.2 1090.3,404.2 1091.1,404.2 1091.8,404.2 1092.6,404.2 1093.3,404.2 1094.1,404.2 1094.8,404.2 1095.6,404.2 1096.4,404.2 1097.1,404.2 1097.9,404.2 1098.6,404.2 1099.4,404.2 1100.1,404.2 1100.9,404.2 1101.6,404.2 1102.4,404.2 1103.1,404.2 1103.9,404.2 1104.6,404.2 1105.4,404.2 1106.1,404.2 1106.9,404.2 1107.6,404.2 1108.4,404.2 1109.1,404.2 1109.9,404.2 1110.6,404.2 1111.4,404.2 1112.1,404.2 1112.9,404.2 1113.7,404.2 1114.4,404.2 1115.2,404.2 1115.9,404.2 1116.7,404.2 1117.4,404.2 1118.2,404.2 1118.9,404.2 1119.7,404.2 1120.4,404.2 1121.2,404.0 1121.9,403.8 1122.7,403.7 1123.4,403.6 1124.2,403.5 1124.9,402.2 1125.7,403.6 1126.4,404.2 1127.2,404.3 1128.0,404.4 1128.7,404.4 1129.5,404.4 1130.2,404.4 1131.0,404.4 1131.7,404.4 1132.5,404.4 1133.2,404.4 1134.0,404.4 1134.7,404.4 1135.5,404.4 1136.2,404.4 1137.0,404.4 1137.7,404.4 1138.5,404.4 1139.2,404.4 1140.0,404.4" fill="none" stroke="#3498db" stroke-width="4" stroke-linecap="round" stroke-linejoin="round" />
<polyline points="60.0,404.3 62.8,401.8 63.2,402.8 63.6,399.4 66.0,402.7 66.8,403.8 67.3,404.2 70.6,403.8 71.5,402.7 71.9,403.8 72.2,404.2 72.6,402.3 73.0,403.1 73.4,403.3 75.7,403.3 77.7,403.4 78.3,403.3 79.8,403.8 80.2,401.4 80.9,401.6 87.3,401.7 87.9,401.3 88.3,400.8 88.6,400.5 89.2,400.6 89.6,400.1 92.0,400.3 92.4,400.1 93.0,400.5 93.4,400.9 93.7,399.9 94.1,397.0 96.3,390.1 100.3,73.8 110.5,142.5 110.9,397.8 111.3,397.9 121.6,400.1 122.2,399.7 122.6,400.7 124.3,400.5 124.9,400.2 133.3,400.2 135.2,399.4 144.3,397.9 146.1,398.9 146.7,399.9 147.3,400.9 149.0,400.4 149.3,400.9 155.3,400.2 159.3,399.7 159.9,397.9 166.3,397.9 170.9,399.3 171.4,399.7 173.7,400.0 174.0,400.8 177.3,400.0 197.6,398.7 199.4,396.9 199.9,398.4 200.4,400.0 200.8,398.9 201.5,400.4 202.7,400.1 203.1,399.8 203.4,400.9 205.1,400.4 205.5,400.8 205.9,399.8 210.3,400.3 215.5,399.6 216.1,397.8 221.4,397.9 227.0,399.1 227.6,399.7 227.9,400.7 229.8,400.0 230.2,400.6 232.3,400.0 239.8,400.3 240.4,400.1 240.8,397.8 243.4,397.9 251.7,400.2 252.1,400.0 252.5,400.4 254.3,400.9 255.3,400.3 264.7,399.7 265.1,400.1 265.5,397.9 276.2,400.0 287.3,400.2 289.2,399.7 289.6,400.4 290.0,397.8 291.3,397.8 298.3,397.8 300.7,398.4 301.3,399.9 301.8,400.9 303.5,400.3 303.9,400.6 309.4,400.0 313.9,399.6 314.3,399.4 315.0,398.6 315.6,398.7 316.0,399.1 316.3,398.7 316.9,399.4 320.3,400.0 331.2,399.6 332.2,399.8 332.5,400.1 334.4,400.6 335.0,400.6 342.3,400.0 344.6,400.3 345.2,400.3 345.6,397.8 353.3,397.9 356.5,400.2 356.9,400.0 357.2,400.4 359.1,400.3 359.5,400.4 364.3,400.0 369.5,399.6 369.9,399.9 375.3,397.8 381.0,400.1 381.6,399.8 382.1,400.9 383.6,400.5 384.0,399.8 384.4,399.8 384.8,401.2 385.3,401.0 386.3,400.2 401.2,399.6 401.5,399.0 402.3,398.7 402.7,399.6 404.6,399.5 404.9,399.9 408.3,399.0 413.2,399.3 414.9,399.6 415.3,398.6 419.3,397.8 426.4,399.8 427.0,399.8 427.4,400.9 429.1,400.6 429.4,400.3 429.8,400.2 430.3,400.2 439.2,400.4 439.8,400.0 441.3,397.8 450.9,400.0 451.5,399.9 451.9,400.4 452.3,400.9 453.6,400.6 453.9,399.8 454.4,399.8 463.3,400.0 464.1,399.8 464.5,399.9 467.3,398.4 467.9,399.6 468.3,400.3 468.7,400.8 469.0,401.4 469.8,403.2 470.2,401.9 470.7,401.1 471.5,402.7 471.8,402.4 474.4,401.7 475.6,402.0 476.2,402.2 477.3,403.4 477.7,402.1 478.1,399.5 478.4,399.3 479.4,400.0 479.9,402.6 480.4,404.2 482.1,403.4 482.6,401.5 483.9,404.1 485.4,404.2 485.8,403.6 486.5,401.8 488.6,402.0 493.1,400.5 493.5,400.8 493.9,400.9 494.3,401.8 494.9,401.0 497.5,400.5 498.2,399.7 499.0,399.9 499.5,400.6 502.2,400.5 502.8,400.3 503.3,400.0 503.9,400.5 505.8,400.4 506.7,400.7 507.4,401.0 516.0,400.4 516.7,399.3 518.4,398.8 527.6,399.9 528.2,399.8 528.6,400.4 529.4,400.9 530.5,400.4 530.8,400.7 531.4,400.9 540.4,400.9 541.0,400.3 541.4,398.8 551.4,398.8 552.3,400.1 552.9,399.8 553.3,400.9 555.0,400.6 555.3,400.4 555.7,399.8 562.4,401.0 565.1,400.3 565.7,399.9 568.2,399.4 568.5,400.5 568.9,401.1 569.3,401.9 569.7,402.5 570.8,404.0 571.4,400.4 571.7,400.4 572.3,400.3 573.4,403.2 577.0,402.5 584.4,400.7 584.7,400.1 585.3,402.0 585.7,398.7 586.1,400.4 586.4,400.1 588.7,400.4 589.1,400.1 589.7,400.2 590.2,400.8 590.8,400.8 592.8,400.3 593.4,400.2 594.9,180.0 595.5,67.2 606.4,69.0 617.4,72.4 628.4,74.2 639.4,74.3 650.4,74.3 661.4,78.9 672.4,80.1 683.4,79.0 686.0,402.2 689.0,403.5 689.4,402.4 689.8,401.4 690.5,400.3 690.9,197.4 694.4,80.2 705.5,80.1 716.5,82.2 727.5,82.5 734.8,209.9 736.5,402.1 738.4,404.2 744.8,402.9 745.1,400.4 745.5,400.2 747.6,400.7 748.2,402.9 749.3,403.4 749.7,402.9 750.1,403.3 751.0,403.6 751.4,402.3 752.0,400.9 752.7,403.0 753.1,402.6 753.4,403.6 754.8,404.2 760.4,404.2 782.4,404.2 787.7,403.3 793.4,403.2 801.7,403.7 804.4,404.2 815.4,404.2 826.4,404.2 848.4,404.2 870.5,404.2 903.4,404.2 914.4,404.2 925.5,404.2 969.5,404.2 980.5,404.2 1024.5,404.2 1046.5,404.2 1057.5,404.2 1079.5,404.2 1090.5,404.2 1112.6,404.2 1123.6,404.2 1124.8,403.7 1125.1,400.2 1125.7,402.8 1126.6,404.1 1128.5,404.4" fill="none" stroke="#f39c12" stroke-width="3" stroke-linecap="round" stroke-linejoin="round" />
<!-- Legend -->
<line x1="60" y1="476" x2="92" y2="476" stroke="#3498db" stroke-width="4" />
<text x="102" y="482" fill="#aaa" font-size="22">★ 45-65 Grad</text>
<line x1="420" y1="476" x2="452" y2="476" stroke="#f39c12" stroke-width="3" />
<text x="462" y="482" fill="#aaa" font-size="22">This cycle (actual)</text>
</svg>